<svg width="123" height="39" viewBox="0 0 123 39" fill="none" xmlns="http://www.w3.org/2000/svg">
<path d="M23.76 34.36C23.8133 34.6 23.84 34.8267 23.84 35.04C23.84 35.2533 23.8 35.4133 23.72 35.52C23.5867 35.7067 23.4667 35.84 23.36 35.92C23.28 36.0267 23.2 36.1467 23.12 36.28C22.9867 36.4133 22.8133 36.5733 22.6 36.76C22.4133 36.9733 22.2 37.0933 21.96 37.12C21.6933 37.4933 21.3333 37.7733 20.88 37.96C20.4267 38.1467 20 38.2933 19.6 38.4H19.52H19.4C19.2933 38.4533 19.1733 38.48 19.04 38.48C18.9333 38.5067 18.8133 38.5333 18.68 38.56C18.12 38.6133 17.6267 38.6133 17.2 38.56C16.7733 38.5333 16.3467 38.4667 15.92 38.36C15.3067 38.1733 14.72 37.88 14.16 37.48C13.6267 37.1067 13.1867 36.6933 12.84 36.24C12.7333 36.08 12.64 35.92 12.56 35.76C12.5067 35.6 12.44 35.4533 12.36 35.32C12.2533 35.24 12.1467 35.1333 12.04 35C11.9333 34.8667 11.8267 34.7067 11.72 34.52C11.6133 34.3333 11.4933 34.08 11.36 33.76C11.0667 33.04 10.8 32.2933 10.56 31.52C10.3467 30.7733 10.1333 30.0133 9.92 29.24C9.89333 29.1333 9.86667 29.04 9.84 28.96C9.81333 28.8533 9.78667 28.72 9.76 28.56C9.70667 27.8667 9.61333 27.2133 9.48 26.6C9.34667 25.96 9.24 25.48 9.16 25.16C8.78667 24.4933 8.4 24.0533 8 23.84C7.62667 23.6267 7.12 23.52 6.48 23.52C6.02667 23.52 5.61333 23.6133 5.24 23.8C4.89333 23.9867 4.54667 24.3333 4.2 24.84V25.16C4.2 25.2933 4.18667 25.3867 4.16 25.44C4.16 25.4933 4.09333 25.6267 3.96 25.84C3.74667 25.9733 3.69333 26.1867 3.8 26.48C3.90667 26.7467 3.96 27.0267 3.96 27.32C3.96 27.5333 3.89333 27.72 3.76 27.88C3.62667 28.04 3.56 28.1867 3.56 28.32C3.50667 28.64 3.36 28.92 3.12 29.16C2.90667 29.3733 2.65333 29.5333 2.36 29.64C2.09333 29.7467 1.8 29.8 1.48 29.8C1.18667 29.8 0.92 29.7467 0.68 29.64C0.52 29.5067 0.36 29.36 0.2 29.2C0.0666667 29.0133 0 28.84 0 28.68C0 28.2 0.0133333 27.72 0.04 27.24C0.0666667 26.76 0.173333 26.2933 0.36 25.84C0.36 25.4933 0.413333 25.1333 0.52 24.76C0.626667 24.3867 0.68 23.9733 0.68 23.52C0.866667 23.2267 0.986667 22.8533 1.04 22.4C1.09333 21.92 1.18667 21.4267 1.32 20.92C1.4 20.6 1.44 20.2533 1.44 19.88C1.46667 19.48 1.49333 19.08 1.52 18.68C1.54667 18.2533 1.58667 17.8533 1.64 17.48C1.69333 17.08 1.8 16.72 1.96 16.4C2.12 15.8933 2.26667 15.3467 2.4 14.76C2.56 14.1733 2.64 13.6133 2.64 13.08V12.48C2.77333 11.84 2.92 11.16 3.08 10.44C3.26667 9.69333 3.42667 8.98667 3.56 8.32C3.56 8.13333 3.57333 7.92 3.6 7.68C3.62667 7.41333 3.74667 7.21333 3.96 7.08V6C3.96 5.68 3.96 5.32 3.96 4.92C3.98667 4.52 4.06667 4.13333 4.2 3.76C4.30667 3.76 4.38667 3.72 4.44 3.64C4.46667 3.58667 4.48 3.53333 4.48 3.48C4.34667 2.94667 4.41333 2.48 4.68 2.08C4.97333 1.65333 5.34667 1.34667 5.8 1.16C6.25333 0.839999 6.48 0.839999 6.48 1.16C6.82667 1.16 7.09333 1.17333 7.28 1.2C7.46667 1.22667 7.62667 1.33333 7.76 1.52C7.94667 1.52 8.06667 1.58667 8.12 1.72C8.17333 1.82667 8.28 1.98667 8.44 2.2C8.44 2.62667 8.49333 3.04 8.6 3.44C8.70667 3.81333 8.76 4.22667 8.76 4.68C8.76 4.86667 8.77333 5.10667 8.8 5.4C8.82667 5.66667 8.94667 5.86667 9.16 6C9.29333 6.18666 9.36 6.38666 9.36 6.6C9.38667 6.78667 9.4 7.02667 9.4 7.32V7.64C9.53333 8.12 9.62667 8.56 9.68 8.96C9.73333 9.33333 9.85333 9.76 10.04 10.24V11.56C10.2267 12.52 10.4 13.4133 10.56 14.24C10.72 15.0667 10.88 15.8933 11.04 16.72C11.2 17.7333 11.4 18.7733 11.64 19.84C11.9067 20.88 12.12 21.9067 12.28 22.92C12.28 23.3733 12.3467 23.7867 12.48 24.16C12.6133 24.5067 12.7867 24.9333 13 25.44V25.84C13 25.8933 13.0133 26.0667 13.04 26.36C13.0667 26.6533 13.1067 26.9733 13.16 27.32C13.24 27.6667 13.3067 28 13.36 28.32C13.44 28.6133 13.52 28.8 13.6 28.88C13.7333 29.2533 13.84 29.56 13.92 29.8C14.0267 30.04 14.0533 30.3067 14 30.6C14.1333 30.9733 14.2667 31.36 14.4 31.76C14.56 32.1867 14.7467 32.6 14.96 33C14.96 33 14.9733 33.0133 15 33.04C15.2933 33.52 15.5467 33.8667 15.76 34.08C15.9733 34.32 16.1067 34.4533 16.16 34.48C16.8267 34.96 17.5867 35.2 18.44 35.2C18.52 35.1733 18.6133 35.16 18.72 35.16C18.9067 35.1333 19.1733 35.0267 19.52 34.84C19.8667 34.68 20.1067 34.5733 20.24 34.52L20.48 34.24C20.5333 33.92 20.6667 33.7067 20.88 33.6C21.12 33.4933 21.4133 33.3467 21.76 33.16C21.7867 33.1333 21.8267 33.1067 21.88 33.08C21.96 33.0267 22.08 33.04 22.24 33.12C22.5067 33.36 22.7867 33.5467 23.08 33.68C23.3733 33.8133 23.6 34.04 23.76 34.36ZM12.08 29.16C12.08 29.2133 12.0933 29.2667 12.12 29.32C12.1467 29.3733 12.1733 29.4267 12.2 29.48C12.2267 29.5067 12.2933 29.5333 12.4 29.56C12.4 29.3733 12.3467 29.2533 12.24 29.2C12.1867 29.1733 12.1333 29.16 12.08 29.16ZM11.96 25.44C11.8 25.44 11.6533 25.4133 11.52 25.36C11.4133 25.28 11.36 25.3067 11.36 25.44C11.4933 25.6533 11.5867 25.7067 11.64 25.6C11.6933 25.4933 11.8 25.44 11.96 25.44ZM11.68 27.6C11.52 27.6533 11.48 27.68 11.56 27.68C11.64 27.68 11.7067 27.76 11.76 27.92C11.68 27.9733 11.64 28.0133 11.64 28.04C11.72 28.04 11.76 28.0533 11.76 28.08C11.7867 28.1067 11.7867 28.0533 11.76 27.92L11.68 27.6ZM11.36 24.84C11.36 24.76 11.3467 24.7067 11.32 24.68C11.2667 24.6267 11.1733 24.68 11.04 24.84H11.36ZM10.04 18.32C9.98667 18.32 9.94667 18.3333 9.92 18.36C9.84 18.44 9.88 18.56 10.04 18.72V18.32ZM8.76 14.44C8.6 14.44 8.50667 14.4 8.48 14.32C8.45333 14.2667 8.44 14.2133 8.44 14.16V14.44H8.76ZM8.6 15.08H8.44V15.4C8.6 15.4 8.69333 15.3867 8.72 15.36C8.74667 15.3333 8.76 15.24 8.76 15.08H8.6ZM8.44 11.56C8.54667 11.56 8.64 11.6267 8.72 11.76C8.74667 11.8133 8.76 11.8667 8.76 11.92V11.56H8.44ZM8.44 10.6C8.28 10.6 8.24 10.6667 8.32 10.8C8.4 10.9067 8.44 11.04 8.44 11.2V10.6ZM8.44 9.64H8.76C8.76 9.58667 8.74667 9.53333 8.72 9.48C8.64 9.34667 8.54667 9.28 8.44 9.28V9.64ZM8.12 9.96C8.12 10.0133 8.13333 10.0533 8.16 10.08C8.21333 10.1333 8.30667 10.0933 8.44 9.96H8.12ZM7.48 10.6V11.2C7.48 11.0667 7.52 10.9733 7.6 10.92C7.65333 10.8933 7.70667 10.88 7.76 10.88V10.6H7.48ZM7.48 5.36C7.58667 5.2 7.66667 5.05333 7.72 4.92C7.74667 4.84 7.76 4.76 7.76 4.68H7.48V5.36ZM7.76 6.72C7.62667 6.72 7.54667 6.78667 7.52 6.92C7.49333 7.05333 7.48 7.18667 7.48 7.32C7.61333 7.32 7.69333 7.26667 7.72 7.16C7.74667 7.05333 7.76 6.90667 7.76 6.72ZM7.48 7.96C7.48 7.8 7.46667 7.72 7.44 7.72C7.41333 7.72 7.32 7.8 7.16 7.96H7.48ZM6.48 5.72C6.61333 5.72 6.69333 5.78666 6.72 5.92C6.74667 6.02666 6.76 6.17333 6.76 6.36V5.72H6.48ZM7.16 9.96C6.94667 9.96 6.82667 9.92 6.8 9.84C6.77333 9.76 6.76 9.8 6.76 9.96H7.16ZM6.76 4.16C6.76 3.94667 6.74667 3.82667 6.72 3.8C6.69333 3.77333 6.61333 3.76 6.48 3.76V4.16C6.58667 4.29333 6.66667 4.33333 6.72 4.28C6.74667 4.25333 6.76 4.21333 6.76 4.16ZM6.24 3.04C6.37333 3.04 6.44 3.04 6.44 3.04C6.46667 3.01333 6.48 2.93333 6.48 2.8H6.24V3.04ZM5.8 7.64C5.8 7.69333 5.81333 7.74667 5.84 7.8C5.89333 7.90667 6.02667 7.96 6.24 7.96V7.64H5.8ZM5.56 3.76C5.64 3.76 5.70667 3.72 5.76 3.64C5.78667 3.58667 5.8 3.53333 5.8 3.48C5.8 3.29333 5.76 3.16 5.68 3.08C5.62667 3.05333 5.58667 3.04 5.56 3.04V3.76ZM5.56 4.68H5.8C5.8 4.65333 5.78667 4.62667 5.76 4.6C5.68 4.52 5.61333 4.48 5.56 4.48V4.68ZM4.88 7.64H5.16L4.88 7.32V7.64ZM4.48 10.88V11.2C4.66667 11.2 4.78667 11.1467 4.84 11.04C4.86667 10.9867 4.88 10.9333 4.88 10.88H4.48ZM3.56 18.08C3.56 18.2133 3.57333 18.2933 3.6 18.32C3.62667 18.32 3.74667 18.32 3.96 18.32C3.74667 18.32 3.64 18.3867 3.64 18.52C3.64 18.6533 3.74667 18.72 3.96 18.72C3.96 18.8533 3.96 18.8933 3.96 18.84C3.98667 18.76 4.06667 18.72 4.2 18.72H3.96V18.32V18.08H3.56ZM3.96 17.04V16.72L3.56 17.04H3.96ZM4.2 12.8V12.48L3.96 12.8H4.2ZM3.96 20.32C3.96 20.2133 3.89333 20.12 3.76 20.04C3.68 20.0133 3.61333 20 3.56 20V20.32H3.96ZM4.2 20.92C4.06667 20.92 3.98667 20.9333 3.96 20.96C3.96 20.9867 3.96 21.0667 3.96 21.2H4.2V20.92ZM4.2 9.96C4.2 9.90667 4.21333 9.85333 4.24 9.8C4.29333 9.69333 4.37333 9.64 4.48 9.64H4.2V9.96ZM4.48 11.92C4.34667 11.92 4.26667 11.9067 4.24 11.88C4.21333 11.8533 4.2 11.7467 4.2 11.56V11.92H4.48ZM4.2 10.88C4.12 10.88 4.05333 10.9333 4 11.04C3.97333 11.0933 3.96 11.1467 3.96 11.2C3.96 11.2533 3.97333 11.2933 4 11.32C4.02667 11.3467 4.05333 11.36 4.08 11.36C4.10667 11.36 4.14667 11.3067 4.2 11.2V10.88ZM3.96 12.2C3.74667 12.2 3.62667 12.2133 3.6 12.24C3.57333 12.2667 3.56 12.3467 3.56 12.48H3.96V12.2ZM3.56 14.16C3.48 14.16 3.41333 14.2133 3.36 14.32C3.33333 14.3733 3.32 14.4133 3.32 14.44H3.56V14.16ZM2.92 17.68H3.32C3.32 17.52 3.30667 17.4267 3.28 17.4C3.25333 17.3733 3.13333 17.36 2.92 17.36V17.68ZM3.32 19.64C3.13333 19.5067 3.01333 19.4667 2.96 19.52C2.93333 19.5467 2.92 19.5867 2.92 19.64H3.32ZM1.96 23.2C1.96 23.36 2.02667 23.4 2.16 23.32C2.29333 23.24 2.45333 23.2 2.64 23.2C2.56 23.2 2.49333 23.1867 2.44 23.16C2.33333 23.1067 2.28 23.0267 2.28 22.92V23.2H1.96ZM1.96 23.52C1.96 23.68 1.94667 23.7733 1.92 23.8C1.89333 23.8267 1.8 23.84 1.64 23.84H1.96V23.52ZM3.96 23.52C4.09333 23.52 4.16 23.5067 4.16 23.48C4.18667 23.4533 4.2 23.36 4.2 23.2H3.96V23.52C3.96 23.36 3.94667 23.2267 3.92 23.12C3.89333 22.9867 3.77333 22.92 3.56 22.92C3.45333 22.92 3.42667 22.9733 3.48 23.08C3.50667 23.1333 3.53333 23.1733 3.56 23.2H3.32H2.92V23.52C3.13333 23.52 3.25333 23.5067 3.28 23.48C3.30667 23.4533 3.32 23.36 3.32 23.2C3.32 23.36 3.36 23.4533 3.44 23.48C3.46667 23.5067 3.50667 23.52 3.56 23.52V23.84C3.74667 23.84 3.86667 23.7867 3.92 23.68C3.94667 23.6267 3.96 23.5733 3.96 23.52ZM5.56 20.92C5.34667 20.7867 5.21333 20.7067 5.16 20.68C5.10667 20.6533 5.01333 20.64 4.88 20.64C5.01333 20.7733 5.10667 20.8533 5.16 20.88C5.21333 20.9067 5.34667 20.92 5.56 20.92ZM5.56 21.92C5.4 22.08 5.38667 22.1867 5.52 22.24C5.6 22.2667 5.69333 22.28 5.8 22.28C5.8 22.0933 5.78667 21.9333 5.76 21.8C5.76 21.6667 5.69333 21.7067 5.56 21.92ZM6.24 21.92C6.24 22.0533 6.26667 22.1467 6.32 22.2L6.4 22.28C6.4 22.04 6.34667 21.92 6.24 21.92ZM7.16 19.64C7.45333 19.48 7.68 19.3067 7.84 19.12C8.02667 18.9333 8.12 18.6667 8.12 18.32C7.93333 18 7.82667 17.6933 7.8 17.4C7.77333 17.1067 7.76 16.88 7.76 16.72C7.62667 16.3733 7.54667 16.04 7.52 15.72C7.49333 15.4 7.48 15.0933 7.48 14.8V14.44C7.32 13.96 7.16 13.4267 7 12.84C6.84 12.2533 6.76 11.7067 6.76 11.2H6.48H6.24V13.48C6.02667 14.1467 5.84 14.8667 5.68 15.64C5.54667 16.4133 5.37333 17.2267 5.16 18.08C5.16 18.4 5.18667 18.6533 5.24 18.84C5.29333 19 5.48 19.16 5.8 19.32C6.01333 19.6667 6.24 19.8533 6.48 19.88C6.72 19.9067 6.94667 19.8267 7.16 19.64ZM8.12 12.48H8.44C8.44 12.3467 8.42667 12.2667 8.4 12.24C8.37333 12.2133 8.28 12.2 8.12 12.2V12.48ZM8.44 20C8.44 19.8133 8.45333 19.76 8.48 19.84C8.50667 19.8933 8.6 19.8267 8.76 19.64H8.44V20ZM8.76 20C8.97333 20.16 9.09333 20.24 9.12 20.24C9.14667 20.24 9.16 20.16 9.16 20H8.76ZM9.16 20.32C9.29333 20.32 9.37333 20.3733 9.4 20.48C9.45333 20.5867 9.54667 20.64 9.68 20.64V20.32C9.68 20.16 9.62667 20.12 9.52 20.2C9.41333 20.28 9.29333 20.32 9.16 20.32ZM10.04 24.44C10.04 24.3067 10.0267 24.28 10 24.36C9.97333 24.4133 9.86667 24.44 9.68 24.44H10.04ZM10.04 23.2H10.4C10.4 23.1733 10.3867 23.1333 10.36 23.08C10.3067 22.9733 10.2 22.92 10.04 22.92V23.2ZM11.04 22.52C10.9067 22.7067 10.8667 22.8267 10.92 22.88C10.9467 22.9067 10.9867 22.92 11.04 22.92V22.52ZM11.12 27.8C10.9867 27.9333 10.92 28.04 10.92 28.12C10.92 28.1733 11.0267 28.2133 11.24 28.24C11.2133 28.16 11.2 28.1067 11.2 28.08C11.2 28.0267 11.1733 27.9333 11.12 27.8ZM11.04 27.44C11.2533 27.3867 11.36 27.28 11.36 27.12C11.36 27.1467 11.3467 27.16 11.32 27.16H11.24C11.2133 27.2133 11.1733 27.2667 11.12 27.32C11.0933 27.3467 11.0667 27.3867 11.04 27.44ZM11.64 28.68L11.56 28.32L11.36 28.76L11.64 28.68ZM11.64 30.12C11.64 29.9867 11.7067 29.8933 11.84 29.84C11.8933 29.8133 11.96 29.8 12.04 29.8H11.64L11.68 29.48L11.44 29.12C11.44 29.3067 11.44 29.4133 11.44 29.44C11.4667 29.4667 11.5467 29.48 11.68 29.48C11.6533 29.48 11.6133 29.4933 11.56 29.52C11.4533 29.5733 11.3867 29.6667 11.36 29.8H11.64V30.12ZM12.04 29.8C12.0133 29.88 12.0133 29.9467 12.04 30C12.0933 30.1333 12.2 30.2 12.36 30.2V29.88L12.04 29.8ZM12.2 30.68C12.2 30.8133 12.2133 30.8933 12.24 30.92C12.2667 30.9467 12.36 30.96 12.52 30.96C12.36 30.96 12.2667 30.92 12.24 30.84C12.2133 30.7867 12.2 30.7333 12.2 30.68ZM13.12 33.6C13.12 33.52 13.0667 33.4533 12.96 33.4C12.9067 33.3733 12.8533 33.36 12.8 33.36H12.68C12.6267 33.4133 12.6667 33.4933 12.8 33.6H12.84H13.12ZM13.12 32.4C13.2267 32.24 13.2667 32.1467 13.24 32.12C13.2133 32.0933 13.1733 32.0667 13.12 32.04C13.12 31.9333 13.0533 31.84 12.92 31.76C12.8667 31.7333 12.8133 31.72 12.76 31.72V32.04L13.12 32.4ZM14.44 35.88L14.24 35.52L14.12 36L14.44 35.88ZM15.08 36.24L14.72 36.36L14.96 36.56L15.08 36.24ZM14.64 35.68C14.6933 35.76 14.7867 35.8 14.92 35.8C14.9733 35.8 15.0267 35.7867 15.08 35.76L14.84 35.48L14.64 35.68ZM15.48 36.84C15.6133 36.7333 15.68 36.6667 15.68 36.64C15.68 36.6133 15.64 36.5733 15.56 36.52C15.4267 36.5733 15.36 36.6133 15.36 36.64C15.36 36.6667 15.4 36.7333 15.48 36.84ZM16.32 35.96C16.24 35.8533 16.2133 35.7733 16.24 35.72C16.2933 35.6667 16.2667 35.68 16.16 35.76L16.32 35.96ZM19.36 37C19.28 36.8667 19.2267 36.8 19.2 36.8C19.1733 36.8 19.0933 36.8533 18.96 36.96C18.9333 36.9867 18.8933 37 18.84 37C18.7333 37 18.6533 36.9467 18.6 36.84C18.76 37.08 18.8533 37.2133 18.88 37.24C18.9333 37.2667 19.0267 37.24 19.16 37.16L19.36 37ZM20.68 35.8L20.56 35.68C20.5333 35.68 20.52 35.6667 20.52 35.64C20.4933 35.6133 20.48 35.5733 20.48 35.52L20.4 35.92V35.96L20.12 36.16C20.2533 36.0533 20.3333 36 20.36 36C20.4133 36 20.48 36.0533 20.56 36.16L20.4 35.96L20.68 35.8ZM21.92 34.64C21.9733 34.5867 21.9867 34.5333 21.96 34.48C21.96 34.4533 21.9333 34.44 21.88 34.44H21.68L21.92 34.64ZM22.28 35.68C22.2 35.8133 22.12 35.88 22.04 35.88L22.16 35.92L22.28 35.68ZM26.4506 5.68V6.68V8.72C26.2906 8.85333 26.2106 9.08 26.2106 9.4C26.2106 9.69333 26.2906 10 26.4506 10.32V12.72V15V18.04V19.08C26.4506 20.0667 26.4373 21.1067 26.4106 22.2C26.384 23.2667 26.2906 24.2 26.1306 25V25.72C25.784 26.12 25.4773 26.52 25.2106 26.92C24.944 27.32 24.664 27.6933 24.3706 28.04C24.0773 28.36 23.7573 28.64 23.4106 28.88C23.064 29.0933 22.6373 29.24 22.1306 29.32C21.464 29.6933 20.7973 29.8667 20.1306 29.84C19.464 29.8133 18.7973 29.5467 18.1306 29.04C17.944 28.88 17.7706 28.7333 17.6106 28.6C17.4506 28.44 17.2773 28.36 17.0906 28.36C16.424 27.8533 15.9706 27.2933 15.7306 26.68C15.5173 26.04 15.304 25.3867 15.0906 24.72C14.9306 24.1867 14.8506 23.6267 14.8506 23.04C14.8506 22.4267 14.9306 21.8667 15.0906 21.36V20.68C14.744 20.3867 14.744 20.0533 15.0906 19.68V19.36C14.9306 19.0133 14.8506 18.7333 14.8506 18.52C14.8506 18.3067 14.9306 18.0133 15.0906 17.64C15.1706 17.6133 15.224 17.56 15.2506 17.48C15.304 17.32 15.2506 17.1733 15.0906 17.04C15.0906 16.8533 15.0373 16.68 14.9306 16.52C14.824 16.3333 14.7706 16.1733 14.7706 16.04C14.7706 15.5067 14.784 15 14.8106 14.52C14.8373 14.04 14.9306 13.5467 15.0906 13.04V12.32C15.0906 12.0267 15.0773 11.6933 15.0506 11.32C15.024 10.9467 14.9306 10.52 14.7706 10.04V9.68C14.9306 9.01333 14.9706 8.41333 14.8906 7.88C14.8106 7.32 14.7706 6.68 14.7706 5.96C14.7706 5.85333 14.824 5.77333 14.9306 5.72C14.984 5.69333 15.0373 5.68 15.0906 5.68C14.9306 5.33333 14.8906 4.88 14.9706 4.32C15.0506 3.73333 15.0906 3.18667 15.0906 2.68C15.0906 2.01333 15.2373 1.57333 15.5306 1.36C15.8506 1.14667 16.2773 1.04 16.8106 1.04H17.4506C17.7973 1.2 18.0373 1.37333 18.1706 1.56C18.3306 1.72 18.4106 1.98666 18.4106 2.36V4.36C18.4106 4.68 18.424 5 18.4506 5.32C18.4773 5.61333 18.584 5.82667 18.7706 5.96C18.7706 6.33333 18.704 6.69333 18.5706 7.04C18.464 7.38667 18.4106 7.70667 18.4106 8C18.5973 8.69333 18.6373 9.29333 18.5306 9.8C18.4506 10.3067 18.4106 10.8267 18.4106 11.36C18.4106 12.0533 18.4506 12.7333 18.5306 13.4C18.6373 14.04 18.5973 14.6933 18.4106 15.36V16.04C18.5973 16.5467 18.6373 17.12 18.5306 17.76C18.4506 18.3733 18.4106 19.0133 18.4106 19.68V22.68C18.4106 23.0533 18.464 23.4 18.5706 23.72C18.704 24.0133 18.7706 24.3467 18.7706 24.72L19.0906 25C19.2773 25 19.5173 25.08 19.8106 25.24C20.104 25.3733 20.4373 25.5333 20.8106 25.72H21.1306C21.264 25.5333 21.4106 25.3733 21.5706 25.24C21.7573 25.08 21.944 25 22.1306 25C22.184 25 22.2373 24.9867 22.2906 24.96C22.3973 24.9067 22.4506 24.8267 22.4506 24.72C22.6373 24.1867 22.744 23.6267 22.7706 23.04C22.7973 22.4267 22.8106 21.8667 22.8106 21.36V20.68V8C22.8106 7.84 22.8373 7.69333 22.8906 7.56C22.9706 7.4 22.944 7.21333 22.8106 7V5.96V2.68C22.8106 2.01333 23.064 1.52 23.5706 1.2C24.104 0.879998 24.624 0.826665 25.1306 1.04C25.2906 1.2 25.4373 1.30666 25.5706 1.36C25.7306 1.41333 25.9173 1.50666 26.1306 1.64L26.2906 1.88C26.3973 2.04 26.4506 2.2 26.4506 2.36V4.64V5.68ZM22.8106 28V27.72V27.36C22.8106 27.5467 22.7573 27.6533 22.6506 27.68C22.5706 27.7067 22.624 27.72 22.8106 27.72V28ZM18.7706 27.04V26.68V27.04V27.36H19.0906C18.744 28.0267 19.0773 28.36 20.0906 28.36V28C20.2506 28.1867 20.424 28.2933 20.6106 28.32C20.7973 28.3467 20.9706 28.36 21.1306 28.36C21.1306 28.3067 21.1173 28.2533 21.0906 28.2C21.0106 28.0667 20.9173 28 20.8106 28H21.1306H20.8106C20.8106 28.1867 20.7306 28.24 20.5706 28.16C20.4106 28.0533 20.2506 28 20.0906 28C19.9573 28 19.7573 27.9733 19.4906 27.92C19.224 27.8667 19.0906 27.68 19.0906 27.36C19.0373 27.3067 18.984 27.2667 18.9306 27.24C18.824 27.1867 18.7706 27.2267 18.7706 27.36V27.04ZM24.4106 13.32H24.7706H24.4106ZM17.4506 26.4V26.68H17.7706C17.7706 26.5467 17.7573 26.52 17.7306 26.6C17.704 26.6533 17.6106 26.68 17.4506 26.68V26.4ZM17.4506 4V4.36V4ZM24.7706 25.36H24.4106V25H24.7706H24.4106C24.4106 25.08 24.424 25.1467 24.4506 25.2C24.504 25.3067 24.6106 25.36 24.7706 25.36ZM24.4106 24V23.68C24.5973 23.68 24.704 23.6667 24.7306 23.64C24.7573 23.6133 24.7706 23.5333 24.7706 23.4H24.4106H24.7706V23.68L24.4106 24C24.304 24 24.224 23.9467 24.1706 23.84C24.144 23.7867 24.1306 23.7333 24.1306 23.68C24.1306 23.84 24.144 23.9333 24.1706 23.96C24.1973 23.9867 24.2773 24 24.4106 24ZM17.0906 22.36H16.8106H17.0906ZM23.7706 10.68V11V10.68ZM24.7706 19.36V19.08V19.36ZM24.7706 16.04C24.7706 16.0933 24.784 16.1467 24.8106 16.2C24.8373 16.28 24.944 16.32 25.1306 16.32H24.7706V16.04ZM17.0906 16.04H16.8106H17.0906ZM24.4106 7.4L24.1306 7.68H24.4106C24.3573 7.68 24.304 7.66667 24.2506 7.64C24.1706 7.61333 24.1306 7.53333 24.1306 7.4H24.4106ZM25.1306 15.36L24.7706 15.68C24.7706 15.5467 24.824 15.4533 24.9306 15.4C24.984 15.3733 25.0506 15.36 25.1306 15.36V15V15.36H24.7706L25.1306 15.68V16.04V15.68V15.36ZM16.4506 15V15.36V15ZM24.4106 2.68C24.2773 2.68 24.1973 2.69333 24.1706 2.72C24.144 2.74666 24.1306 2.85333 24.1306 3.04H24.4106V2.68ZM16.8106 16.68C16.624 16.4933 16.504 16.3867 16.4506 16.36C16.3973 16.3333 16.2773 16.32 16.0906 16.32C16.2773 16.32 16.3973 16.3867 16.4506 16.52C16.504 16.6267 16.624 16.68 16.8106 16.68ZM24.4106 11.36V11V10.68C24.3573 10.68 24.3173 10.6933 24.2906 10.72C24.2373 10.7733 24.2773 10.8667 24.4106 11V11.36ZM24.7706 9.36C24.824 9.36 24.864 9.34667 24.8906 9.32C24.944 9.26666 24.904 9.16 24.7706 9V9.36H24.4106C24.464 9.30667 24.504 9.25333 24.5306 9.2C24.584 9.06667 24.544 9 24.4106 9C24.4106 9.18667 24.424 9.29333 24.4506 9.32C24.4773 9.34667 24.584 9.36 24.7706 9.36ZM23.0906 27.04C23.2773 27.04 23.3173 27 23.2106 26.92C23.1306 26.8133 23.0906 26.8533 23.0906 27.04ZM22.8106 25.72H23.0906V25.36V25.72H22.8106ZM16.8106 25H16.4506H16.8106ZM16.0906 23.68H16.4506V23.4V23.68H16.0906ZM24.7706 20.68C24.9573 20.68 25.064 20.6667 25.0906 20.64C25.1173 20.6133 25.1306 20.5333 25.1306 20.4L24.7706 20.68ZM17.4506 25C17.264 25 17.1573 25.0133 17.1306 25.04C17.104 25.0667 17.0906 25.1733 17.0906 25.36C17.0906 25.3067 17.104 25.2533 17.1306 25.2C17.184 25.0667 17.2906 25 17.4506 25ZM24.1306 19.36V19.08V19.36ZM16.0906 20.04H16.4506H16.8106H16.4506H16.0906ZM22.4506 26.68V26.4V26.68ZM16.8106 17.64C16.8106 17.6133 16.7973 17.5733 16.7706 17.52C16.7173 17.4133 16.6106 17.36 16.4506 17.36C16.4506 17.4933 16.464 17.5733 16.4906 17.6C16.5173 17.6267 16.624 17.64 16.8106 17.64ZM17.0906 11V10.68V11ZM24.4106 22.68H24.7706H25.1306V23.04C25.264 23.04 25.304 22.9867 25.2506 22.88C25.224 22.8267 25.184 22.76 25.1306 22.68C25.1306 22.52 25.064 22.4133 24.9306 22.36C24.824 22.3067 24.7706 22.1867 24.7706 22V22.36C24.584 22.36 24.4773 22.3733 24.4506 22.4C24.424 22.4267 24.4106 22.52 24.4106 22.68ZM17.0906 23.4V23.68C17.144 23.68 17.184 23.6667 17.2106 23.64C17.2373 23.6133 17.1973 23.5333 17.0906 23.4ZM24.4106 9.68V10.04H24.7706V9.68H24.4106ZM24.7706 17.04H25.1306V16.68C24.944 16.68 24.8373 16.6933 24.8106 16.72C24.784 16.7467 24.7706 16.8533 24.7706 17.04H24.4106H24.7706ZM24.7706 18.04C24.7706 18.2 24.7573 18.2933 24.7306 18.32C24.704 18.3467 24.5973 18.36 24.4106 18.36C24.4106 18.4133 24.424 18.4667 24.4506 18.52C24.504 18.6267 24.6106 18.68 24.7706 18.68H24.4106C24.4106 18.5467 24.464 18.4533 24.5706 18.4C24.624 18.3733 24.6906 18.36 24.7706 18.36V18.04V18.36V18.04ZM24.7706 6.36C24.824 6.30666 24.864 6.24 24.8906 6.16C24.944 6.02667 24.904 5.96 24.7706 5.96V6.36ZM24.1306 21.36H24.4106H24.1306ZM17.4506 17.04H17.0906H17.4506ZM16.8106 23.04V22.68H16.4506C16.4506 22.8667 16.464 22.9733 16.4906 23C16.5173 23.0267 16.624 23.04 16.8106 23.04ZM16.0906 14.72H16.4506V14.36C16.2906 14.36 16.184 14.4267 16.1306 14.56C16.104 14.6133 16.0906 14.6667 16.0906 14.72ZM24.4106 5.36C24.2773 5.36 24.184 5.32 24.1306 5.24C24.0773 5.13333 23.9573 5.17333 23.7706 5.36L24.1306 5.68C24.1306 5.52 24.144 5.42667 24.1706 5.4C24.1973 5.37333 24.2773 5.36 24.4106 5.36ZM25.1306 25H25.4506L25.1306 24.72C25.0506 24.6667 24.984 24.6267 24.9306 24.6C24.824 24.5467 24.7706 24.5867 24.7706 24.72C24.9306 24.72 25.0373 24.7733 25.0906 24.88C25.1173 24.9333 25.1306 24.9733 25.1306 25ZM16.4506 9.36H16.0906V9.68C16.2773 9.68 16.384 9.66667 16.4106 9.64C16.4373 9.61333 16.4506 9.52 16.4506 9.36ZM24.7706 3.32C24.9573 3.32 25.064 3.33333 25.0906 3.36C25.1173 3.38667 25.1306 3.49333 25.1306 3.68C25.1306 3.49333 25.1173 3.38667 25.0906 3.36C25.064 3.33333 24.9573 3.32 24.7706 3.32C24.9573 3.18666 25.0506 3.10666 25.0506 3.08C25.0506 3.05333 24.9573 3.04 24.7706 3.04V3.32ZM24.1306 6.68C24.264 6.52 24.344 6.41333 24.3706 6.36C24.3973 6.30666 24.4106 6.17333 24.4106 5.96H24.1306V6.68C24.1573 6.68 24.1973 6.69333 24.2506 6.72C24.3573 6.77333 24.4106 6.86666 24.4106 7C24.3573 6.94667 24.304 6.90667 24.2506 6.88C24.1706 6.85333 24.1306 6.89333 24.1306 7H24.4106H24.7706C24.9573 7 25.0506 6.94666 25.0506 6.84C25.0506 6.73333 24.9573 6.68 24.7706 6.68H24.4106H24.1306ZM23.7706 26.4C23.9306 26.4 24.0373 26.3467 24.0906 26.24C24.1173 26.1867 24.1306 26.12 24.1306 26.04C24.0506 26.04 23.984 26.0533 23.9306 26.08C23.824 26.1333 23.7706 26.24 23.7706 26.4ZM24.4106 20.4H24.1306C24.1306 20.5333 24.1706 20.6267 24.2506 20.68C24.3573 20.7333 24.4106 20.8533 24.4106 21.04V20.4ZM21.4106 27.36V27.72V27.36ZM17.0906 3.32H16.8106V3.68C16.944 3.68 17.024 3.66666 17.0506 3.64C17.0773 3.61333 17.0906 3.50667 17.0906 3.32ZM17.0906 3.04H16.8106H17.0906ZM21.4106 28H21.7706V27.72C21.584 27.72 21.4773 27.7333 21.4506 27.76C21.424 27.7867 21.4106 27.8667 21.4106 28ZM16.4506 22V21.72C16.264 21.72 16.1706 21.7733 16.1706 21.88C16.1706 21.96 16.264 22 16.4506 22ZM16.4506 14.04H16.8106V13.68C16.8106 13.8667 16.7973 13.9733 16.7706 14C16.744 14.0267 16.6373 14.04 16.4506 14.04ZM16.0906 4.64H16.4506H16.0906ZM22.1306 26.68C21.944 26.68 21.8373 26.64 21.8106 26.56C21.784 26.5067 21.7706 26.4533 21.7706 26.4V26.68H22.1306ZM21.4106 26.4V26.68V26.4ZM17.0906 25V24.72C16.9573 24.72 16.8773 24.7333 16.8506 24.76C16.824 24.7867 16.8106 24.8667 16.8106 25H17.0906ZM24.1306 18.36H23.7706H24.1306ZM16.8106 8.72V8.36V8.72ZM16.0906 9H15.7706H16.0906ZM20.4106 27.72V27.36V27.72ZM21.7706 26.4V26.04C21.584 26.04 21.4773 26.0533 21.4506 26.08C21.424 26.1067 21.4106 26.2133 21.4106 26.4H21.7706ZM18.4106 25.72H18.1306L18.4106 26.04V25.72ZM16.4506 6.36H16.8106H16.4506ZM22.8106 26.4H23.0906H22.8106ZM17.0906 26.4V26.68V26.4ZM18.4106 27.04H18.1306H18.4106ZM16.8106 5.36H16.4506H16.8106ZM16.4506 7H16.8106H16.4506ZM24.7706 10.32H25.1306H24.7706ZM24.4106 11.72V12V11.72ZM24.1306 15.36H24.4106H24.1306ZM16.4506 21.04V21.36V21.04ZM17.0906 13.32V13.68V13.32ZM34.2338 8.08C34.2338 8.42667 34.3004 8.76 34.4338 9.08C34.5938 9.4 34.7538 9.73333 34.9138 10.08C35.0738 10.4 35.2338 10.68 35.3938 10.92C35.5804 11.1333 35.7538 11.3867 35.9138 11.68C36.0471 11.8667 36.1938 12.0933 36.3538 12.36C36.5404 12.6267 36.7138 12.8533 36.8738 13.04C37.3804 13.3333 37.7404 13.6667 37.9538 14.04C38.1938 14.3867 38.4871 14.8133 38.8338 15.32C39.1804 15.5067 39.4604 15.7333 39.6738 16C39.8871 16.24 40.1538 16.4533 40.4738 16.64C40.8204 17.28 41.0871 17.88 41.2738 18.44C41.4604 18.9733 41.6338 19.56 41.7938 20.2C42.1404 21.0533 42.2871 21.88 42.2338 22.68C42.1804 23.4533 42.1538 24.16 42.1538 24.8C42.1538 25.6533 41.9938 26.4133 41.6738 27.08C41.3804 27.72 40.9804 28.2933 40.4738 28.8C40.1538 29.0933 39.7671 29.28 39.3138 29.36C38.8871 29.44 38.5004 29.5733 38.1538 29.76H37.1938C36.8738 30.08 36.5404 30.08 36.1938 29.76H35.5938H34.9138C34.7538 29.5733 34.6471 29.4667 34.5938 29.44C34.5404 29.4133 34.4204 29.4 34.2338 29.4H33.6338C32.6204 28.8133 31.9404 28.0533 31.5938 27.12C31.4604 26.8 31.2738 26.4667 31.0338 26.12C30.8204 25.7467 30.8071 25.3067 30.9938 24.8C30.8071 24.64 30.7004 24.4933 30.6738 24.36C30.6471 24.2 30.6338 24.0267 30.6338 23.84C30.6338 23.68 30.5938 23.4667 30.5138 23.2C30.4338 22.9067 30.4738 22.68 30.6338 22.52C30.8204 22.52 30.9271 22.5067 30.9538 22.48C30.9804 22.4533 30.9938 22.3733 30.9938 22.24C30.9938 21.8933 31.1004 21.68 31.3138 21.6C31.5538 21.52 31.7671 21.4 31.9538 21.24C32.2738 21.24 32.5804 21.2533 32.8738 21.28C33.1938 21.3067 33.4471 21.4 33.6338 21.56C33.7404 21.6933 33.8204 21.8533 33.8737 22.04C33.9004 22.12 33.9138 22.1867 33.9138 22.24C33.9138 22.72 34.0204 23.2133 34.2338 23.72C34.4738 24.2 34.5938 24.68 34.5938 25.16V25.48C34.9138 25.64 35.2338 25.84 35.5538 26.08C35.9004 26.2933 36.2338 26.32 36.5538 26.16H37.1938C37.3804 25.9733 37.5538 25.8 37.7138 25.64C37.8738 25.48 38.0204 25.32 38.1538 25.16C38.3404 24.9733 38.5004 24.7733 38.6338 24.56C38.7671 24.3467 38.8338 24 38.8338 23.52C38.6738 22.6933 38.4738 21.88 38.2338 21.08C38.0204 20.28 37.6738 19.56 37.1938 18.92C37.0338 18.68 36.8604 18.48 36.6738 18.32C36.4871 18.1333 36.3004 17.96 36.1138 17.8C35.9271 17.64 35.7538 17.4667 35.5938 17.28C35.4338 17.0933 35.3138 16.88 35.2338 16.64C34.9138 16.64 34.6604 16.52 34.4737 16.28C34.3138 16.0133 34.2338 15.8133 34.2338 15.68C33.9404 15.4933 33.7538 15.3067 33.6738 15.12C33.5938 14.9333 33.4604 14.6667 33.2738 14.32C32.7671 13.9733 32.3938 13.5733 32.1538 13.12C31.9138 12.6667 31.6338 12.1867 31.3138 11.68C31.1538 11.3867 31.0604 11.0267 31.0338 10.6C31.0071 10.1467 30.9938 9.74667 30.9938 9.4C30.9938 9.08 30.9804 8.74667 30.9538 8.4C30.9271 8.02667 30.8204 7.58667 30.6338 7.08V6.76C30.8204 6.44 30.9404 6.06666 30.9938 5.64C31.0471 5.18667 31.1538 4.81333 31.3138 4.52C31.3138 4.01333 31.4471 3.58667 31.7138 3.24C31.9804 2.86667 32.2738 2.50667 32.5938 2.16C33.1271 1.68 33.7004 1.34667 34.3138 1.16C34.9271 0.973332 35.5538 0.879998 36.1938 0.879998H37.1938C37.1938 1.04 37.2071 1.13333 37.2338 1.16C37.2604 1.18667 37.3671 1.2 37.5538 1.2C38.0338 1.04 38.5004 1.02667 38.9538 1.16C39.4338 1.29333 39.8471 1.53333 40.1938 1.88C40.6738 2.36 41.0604 2.86666 41.3538 3.4C41.6471 3.90667 41.7938 4.48 41.7938 5.12C41.9804 5.30667 42.0871 5.53333 42.1138 5.8C42.1404 6.06667 42.1538 6.29333 42.1538 6.48V7.44C42.1538 7.6 42.0738 7.76 41.9138 7.92C41.7804 8.08 41.6338 8.25333 41.4738 8.44C41.1271 8.6 40.7938 8.64 40.4738 8.56C40.1804 8.48 39.8604 8.44 39.5138 8.44C39.3538 8.44 39.2471 8.38667 39.1938 8.28C39.1671 8.22667 39.1537 8.16 39.1537 8.08C38.9938 7.76 38.8604 7.49333 38.7538 7.28C38.6471 7.04 38.6738 6.77333 38.8338 6.48V6.12C38.6738 5.96 38.4871 5.74667 38.2738 5.48C38.0871 5.18667 37.8471 4.96 37.5538 4.8C37.5538 4.72 37.4871 4.64 37.3538 4.56C37.3004 4.53333 37.2471 4.52 37.1938 4.52C36.8738 4.52 36.6204 4.49333 36.4338 4.44C36.2738 4.38667 36.1938 4.18667 36.1938 3.84C36.1404 3.84 36.1004 3.85333 36.0738 3.88C36.0204 3.93333 36.0604 4.02667 36.1938 4.16C36.1938 4.34666 36.1804 4.46666 36.1538 4.52C36.1271 4.57333 36.0471 4.66666 35.9138 4.8C35.2471 5.14666 34.8071 5.56 34.5938 6.04C34.4071 6.49333 34.4071 6.96 34.5938 7.44V7.76C34.5938 7.89333 34.5271 7.98667 34.3938 8.04C34.3404 8.06667 34.2871 8.08 34.2338 8.08ZM34.5938 28.44V28.12V28.44ZM33.6338 13.32H33.9138V13.04V13.32H33.6338ZM33.9138 26.48V26.76V26.48ZM31.9538 25.48H32.2738H31.9538ZM33.9138 4.52V4.8H34.2338V4.52H33.9138ZM32.2738 22.52V22.84V22.52ZM39.5138 5.12V5.48V5.12ZM38.5138 18.92V19.24V18.92ZM32.2738 6.76V7.08V6.76ZM39.1537 17.28H38.8338H39.1537ZM37.1938 16.64H36.8738V16.28H37.1938H36.8738V15.96C36.9271 15.9067 36.9671 15.84 36.9938 15.76C37.0471 15.6267 37.0071 15.48 36.8738 15.32V15H37.1938H36.8738V15.32L36.5538 15.68V15.32V15.68V15.96H36.8738C36.8738 16.12 36.8604 16.2267 36.8338 16.28C36.8071 16.3333 36.7138 16.4533 36.5538 16.64H36.8738H37.1938ZM34.9138 3.16H35.2338V2.84V2.48C35.1004 2.48 35.0071 2.54667 34.9538 2.68C34.9271 2.73333 34.9138 2.78666 34.9138 2.84V3.16V3.52V3.16ZM39.5138 2.84C39.6738 2.84 39.7138 2.85333 39.6338 2.88C39.5538 2.90667 39.5138 3 39.5138 3.16V2.84ZM38.8338 3.16L38.5138 2.84V3.16V2.84C38.5671 2.84 38.6204 2.85333 38.6738 2.88C38.7804 2.93333 38.8338 3.02667 38.8338 3.16ZM37.1938 2.48H37.5538L37.8738 2.16H37.5538V2.48H37.1938C37.2471 2.56 37.2871 2.62666 37.3138 2.68C37.3671 2.78667 37.3271 2.84 37.1938 2.84H37.5538H37.1938V2.48ZM36.1938 2.16V1.88H35.9138H36.1938V2.16H35.9138H35.5938C35.7271 2.29333 35.8204 2.33333 35.8738 2.28C35.9004 2.25333 35.9138 2.21333 35.9138 2.16H36.1938ZM36.5538 14C36.5538 13.8667 36.4871 13.8267 36.3538 13.88C36.3004 13.9067 36.2471 13.9467 36.1938 14C36.1938 13.84 36.1404 13.7333 36.0338 13.68C35.9804 13.6533 35.9404 13.64 35.9138 13.64H35.5938C35.5938 13.8 35.6471 13.9067 35.7538 13.96C35.8071 13.9867 35.8604 14 35.9138 14H36.1938H36.5538ZM34.2338 13.32C34.4204 13.32 34.5138 13.3067 34.5138 13.28C34.5138 13.2533 34.4204 13.1733 34.2338 13.04V12.68V13.04V13.32ZM33.2738 10.72H33.6338H33.2738ZM41.1538 6.12V6.48C41.1538 6.34667 41.0871 6.24 40.9538 6.16C40.9004 6.13333 40.8471 6.12 40.7938 6.12H41.1538ZM36.8738 27.8H36.5538H36.8738ZM36.8738 2.84L37.1938 3.16L36.8738 2.84ZM32.2738 7.44H31.9538H32.2738ZM39.1537 19.92V20.2C39.2871 20.0933 39.3271 20.0133 39.2738 19.96C39.2471 19.9333 39.2071 19.92 39.1537 19.92ZM40.1938 6.48V6.12V6.48ZM38.5138 16.96L38.1538 17.28C38.2071 17.28 38.2604 17.2933 38.3138 17.32C38.4471 17.4 38.5138 17.5067 38.5138 17.64L38.1538 17.28C38.2071 17.28 38.2604 17.2667 38.3138 17.24C38.4471 17.1867 38.5138 17.0933 38.5138 16.96ZM33.9138 4.16V3.84V4.16ZM39.8338 7.08C39.8871 7.13333 39.9404 7.17333 39.9938 7.2C40.1271 7.28 40.1938 7.24 40.1938 7.08H39.8338ZM32.9538 7.08V6.76V7.08ZM40.7938 21.24C40.6338 21.24 40.5404 21.2 40.5138 21.12C40.4871 21.0133 40.4738 21.0533 40.4738 21.24H40.7938ZM33.6338 27.44H33.2738H33.6338ZM32.9538 3.16C33.0604 3.16 33.1538 3.22667 33.2338 3.36C33.2604 3.41333 33.2738 3.46666 33.2738 3.52V3.16H32.9538ZM34.2338 11.36C34.2871 11.4133 34.3404 11.4533 34.3938 11.48C34.5271 11.56 34.5938 11.52 34.5938 11.36H34.2338ZM33.6338 3.16H33.9138H33.6338V3.52V3.16ZM32.2738 6.48V6.12C32.2738 5.96 32.3404 5.85333 32.4738 5.8C32.6071 5.74667 32.7671 5.64 32.9538 5.48C33.1138 5.48 33.2071 5.52 33.2338 5.6C33.2604 5.68 33.2738 5.64 33.2738 5.48L32.9538 5.12C32.7938 5.28 32.6871 5.32 32.6338 5.24C32.6071 5.21333 32.5938 5.17333 32.5938 5.12C32.4338 5.12 32.3404 5.08 32.3138 5C32.2871 4.92 32.2738 4.96 32.2738 5.12H32.5938V5.48C32.4338 5.64 32.3404 5.74667 32.3138 5.8C32.2871 5.85333 32.2738 5.96 32.2738 6.12H31.9538C31.9538 6.28 32.0071 6.38667 32.1138 6.44C32.1671 6.46667 32.2204 6.48 32.2738 6.48ZM37.5538 28.44H37.1938H37.5538ZM39.8338 17.92H39.5138V18.24H39.8338V17.92ZM32.9538 25.16H32.5938V25.48C32.7804 25.48 32.9004 25.52 32.9538 25.6C33.0071 25.68 33.1138 25.64 33.2738 25.48C33.1404 25.48 33.0471 25.4267 32.9938 25.32C32.9671 25.2667 32.9538 25.2133 32.9538 25.16ZM35.2338 14.64V14.32C35.1004 14.32 35.0071 14.3733 34.9538 14.48C34.9271 14.5333 34.9138 14.5867 34.9138 14.64H35.2338ZM35.9138 15V14.64C35.7538 14.64 35.6738 14.7067 35.6738 14.84C35.6738 14.9467 35.7538 15 35.9138 15ZM32.9538 8.44V8.76V8.44ZM38.5138 3.84V4.16V3.84ZM33.9138 12.04V12.36V12.04ZM33.6338 12.04H33.2738C33.4071 12.2 33.5138 12.24 33.5938 12.16C33.6204 12.1333 33.6338 12.0933 33.6338 12.04ZM33.9138 10.4V10.72V10.4ZM40.4738 25.8V26.16V25.8ZM40.1938 22.52H40.4738C40.4738 22.3867 40.4604 22.3067 40.4338 22.28C40.4071 22.2533 40.3271 22.24 40.1938 22.24V22.52ZM37.8738 27.44V27.12H37.5538V27.44H37.8738ZM32.9538 11.68H32.5938H32.9538ZM37.1938 2.16H36.8738V2.48L37.1938 2.16ZM35.9138 2.84H35.5938H35.9138ZM32.9538 23.84V24.2V23.84ZM39.8338 3.52V3.16V3.52ZM41.1538 22.84H40.7938C40.7938 22.92 40.8071 22.9867 40.8338 23.04C40.8871 23.1467 40.9938 23.2 41.1538 23.2V22.84ZM39.8338 5.48V5.12V5.48ZM39.8338 20.88C40.0204 20.88 40.1271 20.8667 40.1538 20.84C40.1804 20.8133 40.1938 20.72 40.1938 20.56H39.8338V20.88ZM35.2338 12.36H34.9138C34.9138 12.52 34.9671 12.6 35.0738 12.6C35.1804 12.6 35.2338 12.52 35.2338 12.36ZM39.1537 18.6H38.8338H39.1537ZM40.4738 5.48V5.8V5.48ZM37.1938 15.32H37.5538H37.1938ZM37.8738 16.28V15.96V16.28ZM47.8191 0.879998C48.1391 1.04 48.4591 1.09333 48.7791 1.04C49.0991 0.986666 49.4191 1.04 49.7391 1.2C49.9257 1.2 50.0857 1.14667 50.2191 1.04C50.3791 0.933332 50.5524 0.879998 50.7391 0.879998C51.0591 0.879998 51.2991 0.933332 51.4591 1.04C51.6457 1.14667 51.8324 1.2 52.0191 1.2C52.1791 1.2 52.3924 1.14667 52.6591 1.04C52.9524 0.933332 53.1791 0.879998 53.3391 0.879998C53.6591 0.879998 53.9791 0.933332 54.2991 1.04C54.6191 1.14667 54.9391 1.2 55.2591 1.2C55.4457 1.36 55.5924 1.46667 55.6991 1.52C55.8324 1.57333 55.8991 1.69333 55.8991 1.88C56.0857 2.04 56.1924 2.21333 56.2191 2.4C56.2457 2.58667 56.2591 2.85333 56.2591 3.2C56.2591 3.36 56.2457 3.52 56.2191 3.68C56.1924 3.84 56.0857 4 55.8991 4.16C55.7657 4.32 55.5924 4.46666 55.3791 4.6C55.1924 4.73333 54.9391 4.8 54.6191 4.8C54.2991 4.8 54.0324 4.85333 53.8191 4.96C53.6324 5.06667 53.3657 5.12 53.0191 5.12C52.8324 5.28 52.6591 5.45333 52.4991 5.64C52.3391 5.82666 52.1791 6.09333 52.0191 6.44V8.36V13.56V16.44V22.32V27.2C52.0191 27.52 52.0057 27.9067 51.9791 28.36C51.9524 28.7867 51.8457 29.16 51.6591 29.48C51.3391 29.8 50.9124 29.96 50.3791 29.96C49.8457 29.96 49.4191 29.8 49.0991 29.48C48.7791 29.16 48.6457 28.8267 48.6991 28.48C48.7791 28.1333 48.8191 27.7067 48.8191 27.2C48.6324 26.72 48.5657 26.16 48.6191 25.52C48.6991 24.88 48.6457 24.24 48.4591 23.6C48.4591 23.28 48.4724 22.9467 48.4991 22.6C48.5257 22.2533 48.6324 21.8267 48.8191 21.32C48.8191 21.16 48.8057 21.0533 48.7791 21C48.7524 20.9467 48.6457 20.8267 48.4591 20.64C48.2724 20.1867 48.2324 19.7867 48.3391 19.44C48.4724 19.0933 48.6324 18.76 48.8191 18.44V18.08C48.6324 17.92 48.5257 17.76 48.4991 17.6C48.4991 17.44 48.5124 17.2667 48.5391 17.08C48.5924 16.8933 48.6457 16.6933 48.6991 16.48C48.7791 16.2667 48.8191 16.04 48.8191 15.8C48.6324 15.6667 48.5257 15.4533 48.4991 15.16C48.4724 14.8667 48.4591 14.56 48.4591 14.24C48.6457 13.5733 48.6857 12.9733 48.5791 12.44C48.4991 11.9067 48.4591 11.32 48.4591 10.68C48.4591 10.4933 48.5124 10.3067 48.6191 10.12C48.7524 9.93333 48.8191 9.68 48.8191 9.36C48.6324 8.85333 48.5257 8.36 48.4991 7.88C48.4724 7.4 48.4591 6.92 48.4591 6.44C48.4591 5.93333 48.3124 5.58667 48.0191 5.4C47.7257 5.21333 47.3124 5.12 46.7791 5.12C46.4591 5.12 46.1924 5.06667 45.9791 4.96C45.7924 4.85333 45.5391 4.8 45.2191 4.8C45.0324 4.64 44.8724 4.48 44.7391 4.32C44.6324 4.16 44.5791 4 44.5791 3.84C44.3924 3.33333 44.3657 2.89333 44.4991 2.52C44.6591 2.14667 44.8991 1.70667 45.2191 1.2C45.3524 1.04 45.4991 0.946666 45.6591 0.919998C45.8457 0.893331 46.0057 0.879998 46.1391 0.879998H47.8191ZM47.8191 3.52V3.84V4.16V3.84V3.52ZM48.4591 4.16V3.84V3.52C48.3257 3.52 48.2857 3.57333 48.3391 3.68C48.3657 3.73333 48.4057 3.78667 48.4591 3.84V4.16ZM50.3791 22.68H50.7391H50.3791V22.32V22C50.2724 22 50.1924 22.0533 50.1391 22.16C50.1124 22.2133 50.0991 22.2667 50.0991 22.32C50.0991 22.5067 50.1124 22.6133 50.1391 22.64C50.1657 22.6667 50.2457 22.68 50.3791 22.68ZM50.3791 12.6V12.28V12.6ZM50.3791 6.76C50.3257 6.76 50.2724 6.77333 50.2191 6.8C50.1391 6.85333 50.0991 6.94667 50.0991 7.08C50.0191 7.02667 49.9524 6.98666 49.8991 6.96C49.7924 6.90667 49.7391 6.94667 49.7391 7.08C49.6057 7.08 49.5524 7.06667 49.5791 7.04C49.6324 7.01333 49.5924 6.92 49.4591 6.76V7.08V7.4V7.72V7.4C49.5924 7.4 49.7124 7.38667 49.8191 7.36C49.9524 7.33333 49.9257 7.24 49.7391 7.08H50.0991C50.0991 6.94667 50.1391 6.85333 50.2191 6.8C50.2724 6.77333 50.3257 6.76 50.3791 6.76ZM49.4591 12.28H49.7391H49.4591ZM50.7391 8.36H50.3791V8.68V8.36H50.7391V8.04V8.36ZM50.7391 15.2V15.52H51.0191H50.7391V15.2ZM50.7391 3.2V2.84C50.8724 2.84 50.9524 2.82667 50.9791 2.8C51.0057 2.77333 51.0191 2.68 51.0191 2.52C50.9124 2.52 50.8324 2.57333 50.7791 2.68C50.7524 2.73333 50.7391 2.78666 50.7391 2.84C50.7391 3.02667 50.6724 3.09333 50.5391 3.04C50.4324 2.96 50.3791 3.01333 50.3791 3.2C50.4324 3.2 50.4857 3.18667 50.5391 3.16C50.6724 3.10667 50.7391 3 50.7391 2.84V3.2ZM50.0991 2.84V3.2V3.52V3.2V2.84ZM48.8191 2.2H48.4591H48.8191ZM50.3791 18.08H50.7391C50.7391 18.16 50.7524 18.2267 50.7791 18.28C50.8324 18.3867 50.9124 18.44 51.0191 18.44C51.0191 18.28 50.9657 18.1733 50.8591 18.12C50.8057 18.0933 50.7657 18.08 50.7391 18.08H50.3791ZM49.7391 15.8H50.0991H49.7391ZM45.8591 2.84V3.2C45.8591 3.25333 45.8724 3.29333 45.8991 3.32C45.9257 3.37333 46.0057 3.33333 46.1391 3.2H45.8591V2.84ZM50.7391 19.08H50.3791H50.7391V19.36L51.0191 19.72V19.36C51.0191 19.2267 51.0057 19.1467 50.9791 19.12C50.9524 19.0933 50.8724 19.08 50.7391 19.08ZM53.0191 3.84H53.3391H53.0191ZM50.7391 4.16H51.0191C51.0191 4.29333 51.0724 4.38667 51.1791 4.44C51.2324 4.46667 51.2991 4.48 51.3791 4.48C51.4324 4.42667 51.4724 4.37333 51.4991 4.32C51.5524 4.21333 51.5124 4.16 51.3791 4.16H51.0191C51.0191 4.10667 51.0057 4.05333 50.9791 4C50.9257 3.89333 50.8457 3.84 50.7391 3.84V4.16ZM49.4591 21H49.7391H49.4591ZM49.4591 11.64C49.5924 11.8 49.6724 11.88 49.6991 11.88C49.7257 11.88 49.7391 11.8 49.7391 11.64H49.4591ZM50.0991 12.92C50.0191 12.92 49.9524 12.9333 49.8991 12.96C49.7924 13.0133 49.7391 13.1067 49.7391 13.24C49.7391 13.1067 49.7924 13.0133 49.8991 12.96C49.9524 12.9333 50.0191 12.92 50.0991 12.92ZM50.7391 17.44V17.76H51.0191C51.0191 17.6267 50.9657 17.5333 50.8591 17.48C50.8057 17.4533 50.7657 17.44 50.7391 17.44ZM50.7391 26.52H51.0191C51.0191 26.4133 50.9657 26.3333 50.8591 26.28C50.8057 26.2533 50.7657 26.24 50.7391 26.24V26.52ZM47.1391 3.84V3.52H46.7791C46.8324 3.52 46.8857 3.53333 46.9391 3.56C47.0724 3.64 47.1391 3.73333 47.1391 3.84H47.4591H47.1391ZM50.3791 14.24V13.88H50.0991C50.1791 13.88 50.2591 13.9467 50.3391 14.08C50.3657 14.1333 50.3791 14.1867 50.3791 14.24ZM49.4591 23.6H50.0991C50.0991 23.5733 50.0857 23.5333 50.0591 23.48C50.0057 23.3733 49.8991 23.32 49.7391 23.32C49.9257 23.32 50.0324 23.3067 50.0591 23.28C50.0857 23.2533 50.0991 23.1467 50.0991 22.96C50.0991 23.04 50.0857 23.1067 50.0591 23.16C50.0057 23.2667 49.8991 23.32 49.7391 23.32C49.7391 23.3733 49.7257 23.4267 49.6991 23.48C49.6457 23.56 49.5657 23.6 49.4591 23.6V23.96V23.6ZM53.3391 3.52H53.6991V3.2C53.5391 3.2 53.4324 3.25333 53.3791 3.36C53.3524 3.41333 53.3391 3.46666 53.3391 3.52ZM53.9791 3.84H54.3391V3.52C54.3391 3.57333 54.3257 3.62667 54.2991 3.68C54.2457 3.78666 54.1391 3.84 53.9791 3.84ZM48.4591 3.2C48.6457 3.36 48.7524 3.44 48.7791 3.44C48.8057 3.44 48.8191 3.36 48.8191 3.2C48.6324 3.01333 48.5257 2.92 48.4991 2.92C48.4724 2.92 48.4591 3.01333 48.4591 3.2ZM51.0191 24.6V24.24H50.7391C50.5524 24.4267 50.4991 24.5467 50.5791 24.6C50.6857 24.6533 50.7391 24.7467 50.7391 24.88H50.0991C49.9124 25.0667 49.8457 25.24 49.8991 25.4C49.9791 25.5333 49.9257 25.6933 49.7391 25.88H50.0991C50.2324 25.88 50.2591 25.8133 50.1791 25.68C50.1257 25.52 50.0991 25.3733 50.0991 25.24H50.3791C50.5391 25.24 50.6457 25.1867 50.6991 25.08C50.7257 25.0267 50.7391 24.96 50.7391 24.88H51.0191V24.6ZM50.0991 21.68H49.7391V22C49.7391 21.8667 49.7924 21.7733 49.8991 21.72C49.9524 21.6933 50.0191 21.68 50.0991 21.68C50.2324 21.68 50.3124 21.6667 50.3391 21.64C50.3657 21.6133 50.3791 21.5067 50.3791 21.32L50.0991 21.68ZM49.7391 5.12C49.6057 4.96 49.5257 4.88 49.4991 4.88C49.4724 4.88 49.4591 4.96 49.4591 5.12H49.7391ZM49.0991 3.2H49.4591C49.4591 3.12 49.4324 3.04 49.3791 2.96C49.3524 2.85333 49.3124 2.77333 49.2591 2.72C49.2057 2.64 49.1524 2.57333 49.0991 2.52V3.2ZM52.3391 3.84C52.1791 3.84 52.0857 3.90666 52.0591 4.04C52.0324 4.17333 52.0191 4.32 52.0191 4.48C52.0191 4.32 52.1124 4.21333 52.2991 4.16C52.4857 4.10667 52.4991 4 52.3391 3.84H52.6591C52.6591 3.78667 52.6457 3.73333 52.6191 3.68C52.5657 3.57333 52.4724 3.52 52.3391 3.52V3.84ZM49.0991 3.84V4.48H49.4591H49.0991C49.1524 4.42667 49.1924 4.36 49.2191 4.28C49.2724 4.12 49.2324 3.97333 49.0991 3.84H48.8191H49.0991ZM50.0991 19.08V18.72H49.7391C49.7391 18.9067 49.7257 19.0267 49.6991 19.08C49.6724 19.1333 49.5924 19.2267 49.4591 19.36H49.7391L50.0991 19.08ZM50.3791 7.72H50.7391V7.4C50.5524 7.56 50.3924 7.61333 50.2591 7.56C50.1524 7.50667 50.0991 7.56 50.0991 7.72H50.3791ZM48.4591 2.52C48.2724 2.52 48.1657 2.53333 48.1391 2.56C48.1124 2.58666 48.0991 2.68 48.0991 2.84C48.2857 2.84 48.3924 2.82667 48.4191 2.8C48.4457 2.77333 48.4591 2.68 48.4591 2.52ZM46.7791 2.52C46.7791 2.36 46.7657 2.26667 46.7391 2.24C46.7124 2.21333 46.6324 2.2 46.4991 2.2V2.52H46.7791ZM49.7391 2.52H49.4591V2.84C49.5924 2.84 49.6724 2.82667 49.6991 2.8C49.7257 2.77333 49.7391 2.68 49.7391 2.52ZM49.7391 14.52V14.88V14.52ZM53.0191 3.2V2.84V3.2ZM50.0991 5.12C50.0991 4.98667 50.1391 4.89333 50.2191 4.84C50.2724 4.81333 50.3257 4.8 50.3791 4.8H50.0991V5.12ZM49.4591 6.08V5.76V6.08ZM53.9791 2.52V2.2C53.8457 2.2 53.7657 2.21333 53.7391 2.24C53.7124 2.26667 53.6991 2.36 53.6991 2.52H53.9791ZM50.0991 9H50.3791H50.0991ZM49.7391 8.04H49.4591H49.7391ZM49.7391 20.36H49.4591H49.7391ZM51.0191 3.52H51.3791H51.0191ZM50.7391 11.64H50.3791H50.7391ZM50.3791 20.36V20V20.36ZM50.3791 27.56H50.0991H50.3791ZM50.7391 4.8H51.0191H50.7391ZM58.7159 25.36V23.12V20.8V17.2V13.64V11.04V6.12V4.48C58.8493 4.32 58.8759 4.09333 58.7959 3.8C58.7426 3.50667 58.7159 3.2 58.7159 2.88C58.7159 2.69333 58.7293 2.46666 58.7559 2.2C58.7826 1.93333 58.8626 1.72 58.9959 1.56C59.3693 1.37333 59.6359 1.22666 59.7959 1.12C59.9826 0.986664 60.1693 0.919998 60.3559 0.919998H63.9159C64.7426 0.919998 65.4893 1.01333 66.1559 1.2C66.8493 1.36 67.5293 1.69333 68.1959 2.2C68.6493 2.54666 69.0359 2.90667 69.3559 3.28C69.7026 3.65333 69.9559 4.16 70.1159 4.8C70.2759 5.14666 70.3826 5.56 70.4359 6.04C70.4893 6.49333 70.6093 6.96 70.7959 7.44V8.72C70.6093 8.90667 70.5026 9.02667 70.4759 9.08C70.4493 9.13333 70.4359 9.22667 70.4359 9.36C70.7826 9.70667 70.7826 10.04 70.4359 10.36V11.04V11.32C70.2759 11.8267 70.1159 12.4 69.9559 13.04C69.7959 13.6533 69.6359 14.2933 69.4759 14.96H69.1159C68.7959 15.0933 68.5959 15.3067 68.5159 15.6C68.4359 15.8933 68.3293 16.2133 68.1959 16.56C68.0093 16.56 67.9159 16.6267 67.9159 16.76C67.9159 16.8933 68.0093 17.04 68.1959 17.2C68.3293 18.0267 68.4893 18.8533 68.6759 19.68C68.8893 20.5067 69.1559 21.32 69.4759 22.12C69.4759 22.6267 69.5426 23.1333 69.6759 23.64C69.8093 24.1467 69.9559 24.72 70.1159 25.36C70.2759 25.8667 70.4359 26.36 70.5959 26.84C70.7826 27.32 70.9426 27.8133 71.0759 28.32C71.2626 28.64 71.2359 28.96 70.9959 29.28C70.7559 29.5733 70.4626 29.7867 70.1159 29.92C69.6093 29.92 69.0893 29.8267 68.5559 29.64C68.0226 29.4267 67.6759 28.9867 67.5159 28.32C67.3559 28.1333 67.2626 27.9067 67.2359 27.64C67.2093 27.3733 67.1959 27.1733 67.1959 27.04C67.1959 26.8533 67.1826 26.6933 67.1559 26.56C67.1293 26.4267 67.0359 26.36 66.8759 26.36C66.6893 26.36 66.5826 26.2933 66.5559 26.16C66.5293 26.0267 66.5159 25.88 66.5159 25.72C66.5159 25.4 66.4626 25.0933 66.3559 24.8C66.2759 24.48 66.2359 24.24 66.2359 24.08C66.0493 23.6 65.9293 23.1867 65.8759 22.84C65.8226 22.4667 65.7159 22.12 65.5559 21.8C65.3959 21.6133 65.3026 21.4533 65.2759 21.32C65.2493 21.16 65.2359 20.9867 65.2359 20.8C65.2359 20.2933 65.1559 19.8133 64.9959 19.36C64.8359 18.9067 64.5959 18.52 64.2759 18.2C64.2759 17.7733 63.9426 17.56 63.2759 17.56C62.9293 17.56 62.7159 17.64 62.6359 17.8C62.5559 17.9333 62.4493 18.1867 62.3159 18.56C62.3159 18.88 62.2626 19.1467 62.1559 19.36C62.0759 19.5733 62.1293 19.84 62.3159 20.16C62.3159 20.48 62.2493 20.7467 62.1159 20.96C62.0093 21.1467 61.9559 21.3067 61.9559 21.44C61.9559 22.1067 62.0093 22.72 62.1159 23.28C62.2493 23.8133 62.3159 24.4133 62.3159 25.08V26.04C62.1293 26.2 62.0359 26.44 62.0359 26.76C62.0359 27.0533 62.1293 27.36 62.3159 27.68V28.32C62.1293 28.9867 61.8493 29.4533 61.4759 29.72C61.1026 29.9867 60.5159 29.96 59.7159 29.64C59.5293 29.64 59.3159 29.5067 59.0759 29.24C58.8359 28.9467 58.7159 28.64 58.7159 28.32V25.36ZM60.3559 27.68H59.9959C59.9959 27.4933 59.9826 27.3867 59.9559 27.36C59.9293 27.3333 59.8493 27.32 59.7159 27.32V27.68H59.9959H60.3559ZM68.1959 27.04H68.4759C68.4759 27.1733 68.4893 27.2533 68.5159 27.28C68.5426 27.3067 68.6493 27.32 68.8359 27.32H68.4759H68.8359C68.6493 27.32 68.5426 27.28 68.5159 27.2C68.4893 27.1467 68.4759 27.0933 68.4759 27.04H68.8359H68.4759H68.1959ZM61.3159 9.36V9.08V9.36ZM67.5159 3.8H67.1959H67.5159V4.16L67.8359 3.8H67.5159ZM60.3559 26.04V25.72C60.3559 25.5867 60.2893 25.5467 60.1559 25.6C60.1026 25.6267 60.0493 25.6667 59.9959 25.72V25.08H59.7159H59.9959V25.72H60.3559V26.04ZM68.8359 25.72V25.36V25.72V26.04C68.9693 26.04 69.0493 26.0267 69.0759 26C69.1026 25.9733 69.1159 25.88 69.1159 25.72H68.8359ZM60.3559 22.76H59.9959H60.3559ZM67.5159 22.44H67.1959L67.5159 22.12L67.8359 22.44V22.12L67.5159 21.8H67.1959L66.8759 21.44V21.8C66.8759 21.9067 66.8893 22.0133 66.9159 22.12C66.9693 22.3333 67.0626 22.44 67.1959 22.44C67.1959 22.6 67.2093 22.68 67.2359 22.68C67.2626 22.68 67.3559 22.6 67.5159 22.44ZM69.4759 9.72V9.36V9.72ZM67.1959 21.16C67.0359 21.16 66.9426 21.1467 66.9159 21.12C66.8893 21.0933 66.8759 20.9867 66.8759 20.8C66.8759 20.9867 66.8893 21.0933 66.9159 21.12C66.9426 21.1467 67.0359 21.16 67.1959 21.16ZM59.9959 6.12V5.76V6.12ZM60.3559 9.72H59.9959H60.3559V10.04H60.6759H60.3559V9.72ZM60.3559 10.68C60.3559 10.84 60.4093 10.9467 60.5159 11C60.5693 11.0267 60.6226 11.04 60.6759 11.04V10.68H60.3559H59.9959H60.3559ZM59.9959 17.56C59.9959 17.6933 60.0093 17.8533 60.0359 18.04C60.0626 18.2 60.1693 18.3733 60.3559 18.56H59.9959C60.1826 18.56 60.3426 18.5733 60.4759 18.6C60.6093 18.6267 60.6759 18.7067 60.6759 18.84H60.9559V18.56C60.8226 18.3733 60.6759 18.2 60.5159 18.04C60.3559 17.8533 60.1826 17.6933 59.9959 17.56ZM64.2759 16.24V16.56C64.4093 16.56 64.5026 16.6267 64.5559 16.76C64.6093 16.8933 64.7293 17.04 64.9159 17.2H65.2359C65.3959 17.3867 65.5026 17.4667 65.5559 17.44C65.6093 17.4133 65.7159 17.2267 65.8759 16.88L66.2359 17.2V16.88V16.56H66.5159H66.2359V16.88H65.8759H65.5559C65.5559 16.72 65.5959 16.6267 65.6759 16.6C65.7559 16.5733 65.7159 16.56 65.5559 16.56H65.2359C65.2359 16.72 65.2493 16.76 65.2759 16.68C65.3026 16.6 65.3959 16.56 65.5559 16.56C65.5559 16.6933 65.6093 16.7867 65.7159 16.84C65.7693 16.8667 65.8226 16.88 65.8759 16.88V17.2H65.2359H64.9159C64.9159 17.04 64.8359 16.8933 64.6759 16.76C64.5426 16.6267 64.4093 16.56 64.2759 16.56V16.24ZM60.6759 15.88H60.9559V16.24C60.9559 16.08 61.0093 15.9733 61.1159 15.92C61.1693 15.8933 61.2359 15.88 61.3159 15.88C61.3159 15.96 61.3293 16.0267 61.3559 16.08C61.4093 16.1867 61.5159 16.24 61.6759 16.24H61.3159H61.6759V15.88V15.6C61.6759 15.4667 61.6093 15.36 61.4759 15.28C61.4226 15.2533 61.3693 15.24 61.3159 15.24C61.3159 15.32 61.3293 15.3867 61.3559 15.44C61.4093 15.5467 61.5159 15.6 61.6759 15.6V15.88H61.3159H60.9559V15.6L60.6759 15.24C60.6759 15.4267 60.6893 15.5333 60.7159 15.56C60.7426 15.5867 60.8226 15.6 60.9559 15.6C60.9026 15.6 60.8493 15.6133 60.7959 15.64C60.7159 15.6933 60.6759 15.7733 60.6759 15.88ZM62.9559 15.6V15.24H62.5959C62.5959 15.4267 62.6093 15.5333 62.6359 15.56C62.6626 15.5867 62.7693 15.6 62.9559 15.6ZM68.1959 8.08H68.4759H68.1959ZM66.2359 15.24V15.6C66.0759 15.6 65.9693 15.6533 65.9159 15.76C65.8893 15.8133 65.8759 15.8533 65.8759 15.88H66.2359V15.6H66.5159C66.5159 15.44 66.4626 15.3333 66.3559 15.28C66.3026 15.2533 66.2626 15.24 66.2359 15.24ZM65.2359 14.96C65.2359 15.0133 65.2226 15.0667 65.1959 15.12C65.1426 15.2 65.0493 15.24 64.9159 15.24C65.0493 15.24 65.1426 15.2 65.1959 15.12C65.2226 15.0667 65.2359 15.0133 65.2359 14.96ZM60.6759 14.96C60.7826 14.96 60.8626 14.9067 60.9159 14.8C60.9426 14.7467 60.9559 14.68 60.9559 14.6V14.96H60.6759ZM66.5159 14.28H66.8759V14.6V14.96V15.24C66.9826 15.4 67.0759 15.44 67.1559 15.36C67.1826 15.3333 67.1959 15.2933 67.1959 15.24C67.1959 15.1067 67.1826 15.0133 67.1559 14.96C67.1293 14.9067 67.0359 14.7867 66.8759 14.6V14.28H66.5159V14.6H66.2359H66.5159V14.28ZM61.6759 13.96V13.64V13.96ZM65.5559 3.16H65.2359V2.88C65.0759 2.88 64.9959 2.93333 64.9959 3.04C64.9959 3.12 65.0759 3.16 65.2359 3.16H65.5559ZM61.9559 2.88V2.52V2.2L62.3159 2.52C62.4226 2.36 62.4626 2.26667 62.4359 2.24C62.4093 2.21333 62.3693 2.2 62.3159 2.2C62.3159 2.09333 62.2493 2 62.1159 1.92C62.0626 1.89333 62.0093 1.88 61.9559 1.88V2.2V2.52V2.88H61.6759C61.4893 2.69333 61.3693 2.6 61.3159 2.6C61.2626 2.6 61.1426 2.69333 60.9559 2.88H61.3159H61.6759H61.9559ZM60.3559 17.56H60.6759H60.3559ZM69.1159 9.36V9.08H68.8359C68.8359 9.21333 68.8759 9.28 68.9559 9.28C69.0626 9.28 69.1159 9.21333 69.1159 9.08V9.36ZM60.9559 8.08H60.6759C60.8093 8.08 60.8893 8.13333 60.9159 8.24C60.9426 8.32 60.9559 8.26667 60.9559 8.08ZM61.6759 4.48C61.6759 4.32 61.6893 4.22666 61.7159 4.2C61.7426 4.17333 61.8226 4.16 61.9559 4.16C61.8226 4.16 61.7426 4.17333 61.7159 4.2C61.6893 4.22666 61.6759 4.32 61.6759 4.48ZM63.5959 2.88L63.2759 2.52C63.2759 2.6 63.2893 2.66667 63.3159 2.72C63.3693 2.82667 63.4626 2.88 63.5959 2.88ZM68.8359 24.4V24.72V24.4ZM60.3559 21.16H60.6759L60.3559 21.44V21.16ZM59.9959 19.8H60.3559C60.3559 19.9867 60.3693 20.0933 60.3959 20.12C60.4226 20.1467 60.5159 20.16 60.6759 20.16V19.8H60.3559H59.9959ZM66.2359 18.56V18.2V18.56H66.5159H66.2359ZM61.3159 25.72V26.04C61.3159 25.88 61.3026 25.7867 61.2759 25.76C61.2493 25.7333 61.1426 25.72 60.9559 25.72C60.9559 25.88 60.9693 25.92 60.9959 25.84C61.0226 25.76 61.1293 25.72 61.3159 25.72ZM60.6759 12H60.9559H60.6759ZM60.3559 26.68H60.6759H60.3559ZM59.9959 3.52V3.16H60.3559H59.9959C59.8626 3.16 59.7959 3.22667 59.7959 3.36C59.7959 3.46666 59.8626 3.52 59.9959 3.52ZM60.6759 11.32V11.68H60.9559L60.6759 11.32ZM69.4759 10.68H69.1159H69.4759ZM59.9959 22.12C59.9959 21.96 60.0359 21.8667 60.1159 21.84C60.2226 21.8133 60.1826 21.8 59.9959 21.8V22.12H60.3559C60.3559 21.96 60.3426 21.92 60.3159 22C60.2893 22.08 60.1826 22.12 59.9959 22.12ZM67.8359 25.08C67.8359 25.0267 67.8226 24.9867 67.7959 24.96C67.7426 24.9067 67.6493 24.9467 67.5159 25.08H67.8359ZM68.1959 12H68.4759V12.32V12H68.1959ZM64.9159 3.52V3.16H64.5559C64.5559 3.32 64.6093 3.42667 64.7159 3.48C64.7693 3.50666 64.8359 3.52 64.9159 3.52ZM60.6759 24.72H60.3559C60.5159 24.9067 60.6226 25.0133 60.6759 25.04C60.7293 25.0667 60.8226 25.08 60.9559 25.08L60.6759 25.36H60.9559L60.6759 25.08V24.72H60.9559H60.6759ZM67.8359 4.8H68.1959V4.48C68.0359 4.48 67.9293 4.53333 67.8759 4.64C67.8493 4.69333 67.8359 4.74667 67.8359 4.8H67.5159H67.8359ZM60.9559 16.88H60.6759H60.9559V16.56V16.88ZM60.3559 4.48H59.9959C59.9959 4.32 60.0359 4.22666 60.1159 4.2C60.2226 4.17333 60.1826 4.16 59.9959 4.16V3.8V4.48C59.9959 4.53333 60.0093 4.58667 60.0359 4.64C60.0893 4.74667 60.1959 4.8 60.3559 4.8C60.4893 4.8 60.5293 4.74667 60.4759 4.64C60.4493 4.58667 60.4093 4.53333 60.3559 4.48H60.6759H60.3559ZM67.5159 23.76V24.08C67.3559 24.08 67.3159 24.0933 67.3959 24.12C67.4759 24.1467 67.5159 24.24 67.5159 24.4C67.5159 24.24 67.5559 24.1333 67.6359 24.08C67.7159 24.0267 67.6759 23.92 67.5159 23.76ZM60.3559 13V13.28C60.4093 13.28 60.4626 13.2667 60.5159 13.24C60.6226 13.1867 60.6759 13.1067 60.6759 13C60.8093 13 60.8493 12.9467 60.7959 12.84C60.7693 12.7867 60.7293 12.72 60.6759 12.64C60.5426 12.64 60.4493 12.7067 60.3959 12.84C60.3693 12.8933 60.3559 12.9467 60.3559 13ZM67.1959 9.08C67.1959 8.76 67.1426 8.38667 67.0359 7.96C66.9293 7.50667 66.8759 7.10667 66.8759 6.76C66.7959 6.28 66.6226 5.89333 66.3559 5.6C66.0893 5.30667 65.7826 5.10667 65.4359 5C65.0893 4.86667 64.7159 4.81333 64.3159 4.84C63.9426 4.86667 63.5959 4.96 63.2759 5.12H62.9559C62.7693 5.44 62.5693 5.72 62.3559 5.96C62.1426 6.17333 62.1293 6.44 62.3159 6.76V7.72C62.3159 7.90667 62.2626 8.08 62.1559 8.24C62.0759 8.37333 62.1293 8.44 62.3159 8.44C62.4493 9.08 62.4759 9.65333 62.3959 10.16C62.3426 10.6667 62.3159 11.1733 62.3159 11.68V12.64C62.4493 12.96 62.5959 13.16 62.7559 13.24C62.9426 13.32 63.1159 13.4533 63.2759 13.64C63.5959 13.8 63.9826 13.8667 64.4359 13.84C64.9159 13.8133 65.3959 13.6267 65.8759 13.28C66.1959 13.1467 66.4493 12.9333 66.6359 12.64C66.8493 12.32 67.0359 12 67.1959 11.68V9.08ZM61.3159 5.48C61.1293 5.48 60.9159 5.54667 60.6759 5.68C60.4626 5.78667 60.3559 5.93333 60.3559 6.12C60.4093 6.17333 60.4626 6.21333 60.5159 6.24C60.6226 6.29333 60.6759 6.25333 60.6759 6.12C60.8093 5.93333 60.9426 5.81333 61.0759 5.76C61.2359 5.70667 61.3159 5.61333 61.3159 5.48ZM59.9959 9.08H60.3559C60.3559 8.89333 60.3426 8.78667 60.3159 8.76C60.2893 8.73333 60.1826 8.72 59.9959 8.72V9.08ZM69.4759 7.08V6.76C69.2893 6.76 69.1293 6.77333 68.9959 6.8C68.8893 6.82666 68.8359 6.92 68.8359 7.08H69.4759ZM68.4759 23.76C68.3426 23.76 68.2626 23.7733 68.2359 23.8C68.2093 23.8267 68.1959 23.92 68.1959 24.08C68.2226 24.08 68.2626 24.0667 68.3159 24.04C68.4226 23.9867 68.4759 23.8933 68.4759 23.76ZM69.4759 27.32V27.68V27.32ZM67.1959 4.48C67.1959 4.34667 67.1426 4.25333 67.0359 4.2C66.9826 4.17333 66.9293 4.16 66.8759 4.16C66.8226 4.16 66.7826 4.17333 66.7559 4.2C66.6759 4.28 66.7159 4.37333 66.8759 4.48H67.1959ZM68.1959 23.4C68.0093 23.4 67.9426 23.36 67.9959 23.28C68.0759 23.1733 68.0226 23.12 67.8359 23.12V23.4H68.1959ZM68.4759 5.48H68.1959H68.4759ZM60.6759 10.36H60.3559H60.6759ZM66.5159 19.2V19.52H66.8759C66.8759 19.4133 66.8093 19.32 66.6759 19.24C66.6226 19.2133 66.5693 19.2 66.5159 19.2ZM61.9559 14.28H62.3159H61.9559ZM63.5959 1.88V2.2V1.88ZM63.2759 3.16V3.52V3.16ZM60.3559 5.12C60.3559 5.28 60.2893 5.38666 60.1559 5.44C60.1026 5.46667 60.0493 5.48 59.9959 5.48H60.3559V5.12ZM59.9959 13V13.28V13ZM60.6759 24.4V24.08C60.5426 24.08 60.4493 24.1333 60.3959 24.24C60.3693 24.2933 60.3559 24.3467 60.3559 24.4H60.6759ZM66.5159 21.16H66.2359H66.5159ZM67.1959 20.52V20.8V20.52ZM68.1959 25.72H68.4759H68.1959ZM67.5159 23.12V23.4V23.12ZM63.2759 15.6V15.88V15.6ZM59.7159 9.36V9.72V9.36ZM68.4759 10.04V9.72V10.04ZM66.5159 20.16H66.2359V20.52L66.5159 20.16ZM60.9559 2.2H60.6759H60.9559ZM59.9959 19.2H59.7159H59.9959ZM61.6759 5.12V4.8H61.3159C61.3159 4.93333 61.3693 5.02667 61.4759 5.08C61.5293 5.10667 61.5959 5.12 61.6759 5.12ZM59.9959 12.64H59.7159H59.9959ZM68.1959 13.28H67.8359H68.1959ZM82.1344 7.32V7.6C82.2944 8.08 82.401 8.50667 82.4544 8.88C82.5077 9.25333 82.601 9.69333 82.7344 10.2V11.52C82.921 12.4533 83.0944 13.3467 83.2544 14.2C83.4144 15.0533 83.5877 15.8667 83.7744 16.64C83.9344 17.6267 84.1477 18.6667 84.4144 19.76C84.681 20.8267 84.8944 21.84 85.0544 22.8C85.0544 23.3067 85.121 23.76 85.2544 24.16C85.3877 24.5333 85.5344 24.96 85.6944 25.44V25.76C85.6944 25.8933 85.7077 26.1067 85.7344 26.4C85.761 26.6667 85.8677 26.88 86.0544 27.04C86.1877 27.5467 86.201 27.9733 86.0944 28.32C86.0144 28.6667 85.881 29 85.6944 29.32C85.5344 29.48 85.3744 29.6267 85.2144 29.76C85.0544 29.8933 84.8944 29.96 84.7344 29.96C84.0677 29.96 83.5077 29.8 83.0544 29.48C82.601 29.16 82.2944 28.68 82.1344 28.04C82.1344 27.5333 82.121 27.04 82.0944 26.56C82.0677 26.0533 81.9744 25.56 81.8144 25.08C81.4944 24.44 81.1344 24.0267 80.7344 23.84C80.361 23.6267 79.841 23.52 79.1744 23.52C78.6944 23.52 78.281 23.6133 77.9344 23.8C77.6144 23.96 77.281 24.28 76.9344 24.76V25.08C76.9344 25.2667 76.921 25.3867 76.8944 25.44C76.8677 25.4933 76.7877 25.6 76.6544 25.76C76.4677 25.8933 76.4144 26.12 76.4944 26.44C76.601 26.7333 76.6544 27.04 76.6544 27.36C76.6544 27.5467 76.5877 27.72 76.4544 27.88C76.3477 28.04 76.2944 28.1867 76.2944 28.32C76.2144 28.64 76.0544 28.9067 75.8144 29.12C75.601 29.3333 75.3477 29.4933 75.0544 29.6C74.7877 29.7067 74.4944 29.76 74.1744 29.76C73.881 29.76 73.6144 29.72 73.3744 29.64C73.2144 29.48 73.0677 29.32 72.9344 29.16C72.801 29 72.7344 28.84 72.7344 28.68C72.7344 28.2 72.7477 27.72 72.7744 27.24C72.801 26.7333 72.8944 26.24 73.0544 25.76C73.0544 25.4133 73.1077 25.08 73.2144 24.76C73.321 24.4133 73.3744 24 73.3744 23.52C73.5344 23.1467 73.641 22.7333 73.6944 22.28C73.7477 21.8267 73.8544 21.36 74.0144 20.88C74.0944 20.56 74.1477 20.2133 74.1744 19.84C74.201 19.44 74.2144 19.04 74.2144 18.64C74.241 18.2133 74.281 17.8133 74.3344 17.44C74.3877 17.04 74.4944 16.68 74.6544 16.36C74.8144 15.88 74.961 15.3467 75.0944 14.76C75.2544 14.1733 75.3344 13.6267 75.3344 13.12V12.44C75.4944 11.8 75.6544 11.12 75.8144 10.4C75.9744 9.65333 76.1344 8.94667 76.2944 8.28C76.2944 8.09333 76.3077 7.88 76.3344 7.64C76.361 7.37333 76.4677 7.14667 76.6544 6.96V6C76.6544 5.68 76.6677 5.30667 76.6944 4.88C76.721 4.42667 76.801 4.04 76.9344 3.72C77.0677 3.72 77.161 3.66667 77.2144 3.56C77.241 3.50667 77.2544 3.45333 77.2544 3.4C77.0944 2.92 77.1477 2.46667 77.4144 2.04C77.7077 1.61333 78.0944 1.32 78.5744 1.16C78.7344 0.973332 78.8677 0.879998 78.9744 0.879998C79.1077 0.879998 79.1744 0.973332 79.1744 1.16C79.5477 1.16 79.8277 1.17333 80.0144 1.2C80.201 1.22667 80.361 1.32 80.4944 1.48C80.681 1.48 80.801 1.54667 80.8544 1.68C80.9077 1.78667 81.0144 1.93333 81.1744 2.12C81.1744 2.6 81.2144 3.02667 81.2944 3.4C81.401 3.77333 81.4544 4.2 81.4544 4.68C81.4544 4.81333 81.4677 5.02667 81.4944 5.32C81.521 5.61333 81.6277 5.84 81.8144 6C81.9744 6.16 82.0677 6.33333 82.0944 6.52C82.121 6.70667 82.1344 6.97333 82.1344 7.32ZM77.6144 13.4H77.2544H77.6144ZM84.7344 25.76V25.44C84.5744 25.44 84.4277 25.4 84.2944 25.32C84.161 25.2133 84.0944 25.2533 84.0944 25.44C84.2544 25.6 84.361 25.64 84.4144 25.56C84.4677 25.48 84.5744 25.44 84.7344 25.44V25.76ZM74.6544 23.8V23.52C74.6544 23.6533 74.641 23.7333 74.6144 23.76C74.5877 23.7867 74.5077 23.8 74.3744 23.8H74.6544ZM75.3344 23.2C75.2544 23.2 75.1877 23.1867 75.1344 23.16C75.0277 23.1067 74.9744 22.9867 74.9744 22.8V23.2H74.6544C74.6544 23.3333 74.7077 23.3733 74.8144 23.32C74.8677 23.2933 74.921 23.2533 74.9744 23.2H75.3344ZM81.1744 21.84V21.52V21.84H80.8544V22.2V21.84H81.1744ZM75.9744 20.24H75.6544H75.9744ZM82.7344 19.96C82.7344 20.0933 82.721 20.1733 82.6944 20.2C82.6677 20.2267 82.5877 20.24 82.4544 20.24C82.4544 20.1067 82.3877 20.08 82.2544 20.16C82.121 20.2133 81.9744 20.24 81.8144 20.24V20.56V20.24C81.9744 20.24 82.081 20.2933 82.1344 20.4C82.1877 20.5067 82.2944 20.56 82.4544 20.56V20.88V20.56V20.24C82.481 20.24 82.521 20.2267 82.5744 20.2C82.681 20.1467 82.7344 20.0667 82.7344 19.96ZM81.8144 19.6V19.28V19.6V19.28V19.6ZM80.4944 10.56H80.2144V11.16C80.2144 11.0267 80.2544 10.9333 80.3344 10.88C80.3877 10.8533 80.441 10.84 80.4944 10.84V10.56ZM77.2544 11.84H76.9344V11.52C76.9344 11.68 76.9477 11.7733 76.9744 11.8C77.001 11.8267 77.0944 11.84 77.2544 11.84ZM80.4944 7.92H80.2144C80.2144 7.76 80.201 7.68 80.1744 7.68C80.1477 7.68 80.0544 7.76 79.8944 7.92H80.4944ZM76.9344 10.2V10.56V10.2ZM81.1744 10.2V10.56C81.0144 10.56 80.9744 10.6267 81.0544 10.76C81.1344 10.8667 81.1744 11 81.1744 11.16V10.84V10.56V10.2ZM82.1344 15.4V15.08V14.76V15.08V15.4ZM78.2144 8.56H78.5744V8.28V8.56H78.2144ZM77.2544 14.12H76.9344H77.2544ZM80.8544 11.84H80.4944H80.8544ZM80.2144 9.88H79.8944C79.681 9.88 79.561 9.85333 79.5344 9.8C79.5077 9.72 79.4944 9.74667 79.4944 9.88H79.8944H80.2144ZM79.8944 8.56H79.4944H79.8944ZM77.6144 7.6H77.9344L77.6144 7.32V7.6ZM78.5744 6.64H78.8944H78.5744ZM74.3744 27.36C74.321 27.36 74.281 27.3733 74.2544 27.4C74.1744 27.48 74.2144 27.5867 74.3744 27.72V27.36ZM83.7744 26.72V27.04V26.72ZM82.1344 22.48V22.8V22.48ZM80.2144 20.56H79.8944H80.2144ZM81.4544 19.6C81.321 19.7867 81.241 19.8533 81.2144 19.8C81.1877 19.72 81.1744 19.7733 81.1744 19.96V19.6H81.4544ZM75.6544 19.6H75.9744C75.841 19.4667 75.7477 19.4267 75.6944 19.48C75.6677 19.5067 75.6544 19.5467 75.6544 19.6ZM81.8144 16.04V16.36V16.04ZM76.6544 18.6V18.28V17.96H76.2944C76.2944 18.12 76.3077 18.2133 76.3344 18.24C76.361 18.2667 76.4677 18.28 76.6544 18.28C76.4677 18.28 76.3744 18.3333 76.3744 18.44C76.3744 18.5467 76.4677 18.6 76.6544 18.6C76.6544 18.76 76.6677 18.8 76.6944 18.72C76.721 18.64 76.801 18.6 76.9344 18.6H76.6544ZM79.1744 7.92H79.4944H79.1744ZM75.3344 26.4H74.9744H75.3344ZM80.8544 9.88C80.8544 9.93333 80.8677 9.97333 80.8944 10C80.9477 10.0533 81.041 10.0133 81.1744 9.88H80.8544ZM81.8144 17.32V17.64V17.32H82.1344H81.8144ZM79.4944 6.96V7.32V6.96ZM77.2544 9.6C77.121 9.6 77.0277 9.65333 76.9744 9.76C76.9477 9.81333 76.9344 9.85333 76.9344 9.88V9.6H77.2544ZM78.2144 6.96V7.32V6.96ZM82.7344 18.6V18.28C82.681 18.28 82.641 18.2933 82.6144 18.32C82.561 18.3733 82.601 18.4667 82.7344 18.6ZM74.0144 28.32V28.04V28.32ZM74.9744 28.04H74.6544H74.9744ZM82.4544 24.48H82.7344C82.7344 24.2933 82.721 24.2533 82.6944 24.36C82.6677 24.44 82.5877 24.48 82.4544 24.48ZM81.1744 15.08V15.4C81.3077 15.4 81.3877 15.3867 81.4144 15.36C81.441 15.3333 81.4544 15.24 81.4544 15.08H81.1744ZM81.1744 11.52H81.4544V11.84C81.4544 11.7867 81.441 11.7333 81.4144 11.68C81.361 11.5733 81.281 11.52 81.1744 11.52ZM82.1344 15.68C82.241 15.68 82.3344 15.7467 82.4144 15.88C82.441 15.9333 82.4544 15.9867 82.4544 16.04C82.4544 15.9867 82.441 15.9333 82.4144 15.88C82.3344 15.7467 82.241 15.68 82.1344 15.68ZM81.8144 12.8H81.4544H81.8144ZM79.8944 21.24V21.52V21.24ZM84.4144 27.36V27.72H84.7344L84.4144 27.36ZM74.6544 24.48H74.9744H74.6544ZM83.7744 23.2H84.0944H83.7744V22.8V22.48C83.6144 22.5867 83.5744 22.68 83.6544 22.76C83.681 22.7867 83.721 22.8 83.7744 22.8V23.2ZM81.4544 16.64H81.8144V17V16.64H81.4544ZM78.5744 7.6C78.5744 7.65333 78.5877 7.70667 78.6144 7.76C78.6677 7.86666 78.761 7.92 78.8944 7.92V7.6H78.5744ZM76.2944 17H76.6544V16.64L76.2944 17ZM76.6544 12.12C76.4677 12.12 76.361 12.1333 76.3344 12.16C76.3077 12.1867 76.2944 12.28 76.2944 12.44H76.6544V12.12ZM84.0944 24.76C84.0944 24.7067 84.081 24.6667 84.0544 24.64C84.0277 24.6133 83.9344 24.6533 83.7744 24.76H84.0944ZM79.4944 3.4V3.08V3.4H79.1744H79.4944ZM79.4944 4H79.8944H79.4944C79.4944 3.86667 79.481 3.78667 79.4544 3.76C79.4277 3.73333 79.3344 3.72 79.1744 3.72V4C79.281 4.16 79.3744 4.2 79.4544 4.12C79.481 4.09333 79.4944 4.05333 79.4944 4ZM80.8544 12.44H81.1744C81.1744 12.28 81.161 12.1867 81.1344 12.16C81.1077 12.1333 81.0144 12.12 80.8544 12.12V12.44ZM80.2144 4.68V5.36C80.321 5.17333 80.401 5.01333 80.4544 4.88C80.481 4.8 80.4944 4.73333 80.4944 4.68H80.2144ZM79.1744 22.48C79.1744 22.3467 79.161 22.2133 79.1344 22.08C79.1077 21.92 79.0277 21.84 78.8944 21.84C78.8944 22.0267 78.9344 22.1333 79.0144 22.16C79.0677 22.1867 79.121 22.2 79.1744 22.2V22.48ZM78.2144 3.08V3.72C78.3744 3.72 78.481 3.66667 78.5344 3.56C78.561 3.50667 78.5744 3.45333 78.5744 3.4C78.5744 3.29333 78.5077 3.2 78.3744 3.12C78.321 3.09333 78.2677 3.08 78.2144 3.08ZM80.4944 6.64C80.361 6.64 80.281 6.70666 80.2544 6.84C80.2277 6.97333 80.2144 7.13333 80.2144 7.32C80.3477 7.32 80.4277 7.25333 80.4544 7.12C80.481 6.96 80.4944 6.8 80.4944 6.64ZM78.2144 21.84C78.081 22 78.1077 22.1067 78.2944 22.16C78.3744 22.1867 78.4677 22.2 78.5744 22.2C78.5744 22.0133 78.561 21.8667 78.5344 21.76C78.5077 21.6533 78.401 21.68 78.2144 21.84ZM76.6544 23.52C76.7877 23.52 76.8677 23.5067 76.8944 23.48C76.921 23.4533 76.9344 23.36 76.9344 23.2H76.6544V23.52C76.6544 23.36 76.641 23.2 76.6144 23.04C76.5877 22.88 76.481 22.8 76.2944 22.8C76.1344 22.8 76.0944 22.8667 76.1744 23C76.201 23.08 76.241 23.1467 76.2944 23.2H75.9744H75.6544V23.52C75.8144 23.52 75.9077 23.5067 75.9344 23.48C75.961 23.4533 75.9744 23.36 75.9744 23.2C75.9744 23.3333 76.0277 23.4267 76.1344 23.48C76.1877 23.5067 76.241 23.52 76.2944 23.52V23.8C76.4544 23.8 76.561 23.76 76.6144 23.68C76.641 23.6267 76.6544 23.5733 76.6544 23.52ZM80.2144 14.76V14.4C80.0544 13.8933 79.8944 13.3467 79.7344 12.76C79.5744 12.1733 79.4944 11.64 79.4944 11.16H79.1744H78.8944V13.4C78.7344 14.0933 78.561 14.8267 78.3744 15.6C78.2144 16.3733 78.0677 17.16 77.9344 17.96C77.9344 18.28 77.961 18.5333 78.0144 18.72C78.0677 18.9067 78.2544 19.0933 78.5744 19.28C78.7344 19.6267 78.9344 19.8133 79.1744 19.84C79.441 19.8667 79.681 19.7867 79.8944 19.6C80.1877 19.44 80.4144 19.2667 80.5744 19.08C80.761 18.8667 80.8544 18.6 80.8544 18.28C80.6677 17.96 80.561 17.6533 80.5344 17.36C80.5077 17.0667 80.4944 16.8267 80.4944 16.64C80.361 16.3467 80.281 16.04 80.2544 15.72C80.2277 15.4 80.2144 15.08 80.2144 14.76ZM78.2144 20.88C78.081 20.72 77.9877 20.6267 77.9344 20.6C77.881 20.5733 77.7744 20.56 77.6144 20.56H77.2544H77.6144C77.7744 20.72 77.881 20.8133 77.9344 20.84C77.9877 20.8667 78.081 20.88 78.2144 20.88ZM79.4944 6.32V5.68H79.1744C79.3344 5.68 79.4277 5.74667 79.4544 5.88C79.481 6.01333 79.4944 6.16 79.4944 6.32ZM76.9344 10.84C76.8277 10.84 76.7477 10.8933 76.6944 11C76.6677 11.0533 76.6544 11.1067 76.6544 11.16C76.6544 11.2133 76.6677 11.2533 76.6944 11.28C76.721 11.3067 76.7477 11.32 76.7744 11.32C76.801 11.32 76.8544 11.2667 76.9344 11.16V10.84ZM80.4944 9.2H80.2144H80.4944ZM75.6544 17.32V17.64H75.9744C75.9744 17.48 75.961 17.3867 75.9344 17.36C75.9077 17.3333 75.8144 17.32 75.6544 17.32ZM76.9344 12.8V12.44L76.6544 12.8H76.9344ZM82.7344 19.6V19.28V19.6ZM77.2544 10.84V11.16C77.4144 11.16 77.521 11.1067 77.5744 11C77.601 10.9467 77.6144 10.8933 77.6144 10.84H77.2544ZM76.6544 20.24C76.6544 20.16 76.5877 20.08 76.4544 20C76.401 19.9733 76.3477 19.96 76.2944 19.96V20.24H76.6544ZM76.2944 14.12C76.161 14.12 76.0677 14.1733 76.0144 14.28C75.9877 14.3333 75.9744 14.3733 75.9744 14.4H76.2944V14.12ZM81.1744 8.88V9.2V8.88ZM76.9344 21.24V20.88C76.801 20.88 76.721 20.8933 76.6944 20.92C76.6677 20.9467 76.6544 21.0533 76.6544 21.24H76.9344ZM75.3344 20.24V19.96V20.24ZM81.1744 9.2V9.6H81.4544C81.4544 9.54667 81.441 9.48 81.4144 9.4C81.3344 9.26666 81.2544 9.2 81.1744 9.2ZM75.3344 18.28V18.6V18.28ZM82.7344 22.8V23.2H83.0944C83.0944 23.1467 83.081 23.08 83.0544 23C82.9744 22.8667 82.8677 22.8 82.7344 22.8ZM78.5744 4.68C78.5744 4.62667 78.561 4.57333 78.5344 4.52C78.481 4.41333 78.3744 4.36 78.2144 4.36V4.68H78.5744ZM81.8144 19.96H81.4544C81.641 20.0933 81.7477 20.16 81.7744 20.16C81.801 20.16 81.8144 20.0933 81.8144 19.96ZM78.8944 3.08C79.0277 3.08 79.1077 3.06667 79.1344 3.04C79.161 3.01333 79.1744 2.90667 79.1744 2.72H78.8944V3.08ZM81.4544 14.4C81.321 14.4 81.241 14.36 81.2144 14.28C81.1877 14.2267 81.1744 14.1733 81.1744 14.12V14.4H81.4544ZM82.4544 23.8H82.1344H82.4544ZM81.1744 13.12V13.4V13.12ZM75.6544 27.36C75.4944 27.2 75.401 27.12 75.3744 27.12C75.3477 27.12 75.3344 27.2 75.3344 27.36H75.6544ZM84.0944 26.04H83.7744H84.0944ZM76.9344 16.64V16.36V16.64ZM82.7344 18.92H82.4544H82.7344ZM83.4144 20.56V20.24V20.56ZM74.9744 20.88V20.56V20.88ZM77.2544 21.84H76.9344H77.2544ZM81.1744 21.84V22.2V21.84ZM83.4144 23.52V23.2V23.52ZM83.0944 24.48H83.4144H83.0944ZM78.2144 4.68V4.96V4.68ZM95.6797 30.04H94.3997C93.733 29.8533 93.133 29.8133 92.5997 29.92C92.0664 30 91.4664 30.04 90.7997 30.04C90.6664 30.04 90.4664 29.9867 90.1997 29.88C89.933 29.7467 89.7064 29.68 89.5197 29.68C89.1997 29.52 88.973 29.3467 88.8397 29.16C88.7064 28.9733 88.7197 28.72 88.8797 28.4V25.2C88.8797 24.5333 88.8664 23.9067 88.8397 23.32C88.813 22.7067 88.7197 22.1333 88.5597 21.6C88.5597 21.28 88.613 20.96 88.7197 20.64C88.8264 20.32 88.8797 20.0133 88.8797 19.72C88.7197 19.1867 88.6664 18.6267 88.7197 18.04C88.773 17.4533 88.7197 16.92 88.5597 16.44V16.12C88.5597 16.04 88.5864 15.96 88.6397 15.88C88.7197 15.8 88.7864 15.72 88.8397 15.64C88.9197 15.56 88.9597 15.48 88.9597 15.4C88.9864 15.32 88.9597 15.24 88.8797 15.16C88.8797 15 88.8264 14.8533 88.7197 14.72C88.613 14.56 88.5597 14.3867 88.5597 14.2C88.7197 13.8 88.813 13.3867 88.8397 12.96C88.8664 12.5067 88.853 12.0667 88.7997 11.64C88.773 11.1867 88.7197 10.7467 88.6397 10.32C88.5864 9.86667 88.5597 9.44 88.5597 9.04C88.5597 8.53333 88.613 8.04 88.7197 7.56C88.8264 7.08 88.8797 6.6 88.8797 6.12V5.8C88.7197 5.16 88.6797 4.58667 88.7597 4.08C88.8397 3.57333 88.8797 3.06666 88.8797 2.56C88.8797 2.08 89.0664 1.69333 89.4397 1.4C89.8397 1.10667 90.1997 0.96 90.5197 0.96C91.1597 1.12 91.5864 1.32 91.7997 1.56C92.013 1.8 92.1197 2.24 92.1197 2.88C92.1197 3.38667 92.1597 3.88 92.2397 4.36C92.3197 4.84 92.2797 5.32 92.1197 5.8C92.2797 6.62667 92.3197 7.38667 92.2397 8.08C92.1597 8.77333 92.1197 9.52 92.1197 10.32C92.2797 10.64 92.3597 10.96 92.3597 11.28C92.3597 11.5733 92.2797 11.8 92.1197 11.96V12.24V14.84C92.1197 15.1867 92.1597 15.52 92.2397 15.84C92.3197 16.1333 92.2797 16.4533 92.1197 16.8C91.9597 16.8 91.9197 16.8667 91.9997 17C92.0797 17.1333 92.1197 17.2667 92.1197 17.4C92.1197 18.2267 92.133 19.0533 92.1597 19.88C92.1864 20.68 92.2797 21.48 92.4397 22.28C92.4397 22.6 92.3997 22.92 92.3197 23.24C92.2397 23.56 92.2797 23.88 92.4397 24.2C92.4397 24.7067 92.5997 25.1067 92.9197 25.4C93.2397 25.6933 93.733 25.84 94.3997 25.84H95.3197H96.9597C97.1197 25.84 97.333 25.8533 97.5997 25.88C97.8664 25.9067 98.0797 25.9867 98.2397 26.12H98.5597C98.7197 26.44 98.9064 26.7867 99.1197 27.16C99.3597 27.5067 99.3997 27.92 99.2397 28.4C98.893 29.04 98.5997 29.48 98.3597 29.72C98.1197 29.9333 97.7597 30.04 97.2797 30.04H95.6797ZM95.9597 28.4H95.6797C95.6797 28.24 95.693 28.1067 95.7197 28C95.773 27.8667 95.6397 27.8 95.3197 27.8C95.5064 27.8 95.613 27.8667 95.6397 28C95.6664 28.1067 95.6797 28.24 95.6797 28.4V28.72V28.4H95.9597ZM93.7197 28.4C93.7197 28.3467 93.7064 28.2933 93.6797 28.24C93.6264 28.1333 93.533 28.08 93.3997 28.08H93.7197V27.8V28.08H93.3997C93.533 28.08 93.6264 28.1333 93.6797 28.24C93.7064 28.2933 93.7197 28.3467 93.7197 28.4ZM92.7597 27.44H92.4397C92.4397 27.6267 92.453 27.72 92.4797 27.72C92.5064 27.72 92.5997 27.6267 92.7597 27.44ZM91.1597 27.44V27.12V27.44C91.1597 27.6 91.093 27.7067 90.9597 27.76C90.9064 27.7867 90.853 27.8 90.7997 27.8V28.08V27.8C90.853 27.8 90.9064 27.7867 90.9597 27.76C91.093 27.7067 91.1597 27.6 91.1597 27.44ZM94.3997 26.76V26.48V26.76ZM90.7997 21.96H91.1597H90.7997ZM91.1597 6.48H90.7997H91.1597ZM89.8797 10H89.5197H89.8797ZM90.1597 18.08H89.8797H90.1597ZM91.1597 10.96V10.64V10.96L91.4797 10.64H91.1597V10.96ZM90.7997 7.44C90.7997 7.25333 90.7864 7.14667 90.7597 7.12C90.733 7.09333 90.653 7.08 90.5197 7.08C90.653 7.08 90.733 7.09333 90.7597 7.12C90.7864 7.14667 90.7997 7.25333 90.7997 7.44ZM90.1597 7.72V8.04V7.72C90.1597 7.69333 90.1464 7.65333 90.1197 7.6C90.0664 7.49333 89.9864 7.44 89.8797 7.44C89.8797 7.57333 89.9197 7.65333 89.9997 7.68C90.053 7.70667 90.1064 7.72 90.1597 7.72ZM90.5197 9.04H90.7997H90.5197ZM90.1597 15.52V15.16C90.3464 15.16 90.453 15.1467 90.4797 15.12C90.5064 15.0933 90.5197 15 90.5197 14.84V14.56V14.2V14.56C90.3864 14.56 90.3464 14.6133 90.3997 14.72C90.4264 14.7733 90.4664 14.8133 90.5197 14.84C90.4397 14.84 90.373 14.8533 90.3197 14.88C90.213 14.9333 90.1597 15.0267 90.1597 15.16V15.52H90.5197C90.5197 15.3333 90.5064 15.2933 90.4797 15.4C90.453 15.48 90.3464 15.52 90.1597 15.52ZM91.1597 11.28H90.7997H91.1597ZM90.5197 6.12H90.7997H90.5197ZM89.8797 4.84H90.1597V5.16V4.84H89.8797ZM91.7997 28.4V28.72V28.4ZM94.3997 27.44V27.12H94.6797H94.3997V27.44ZM90.7997 2.56H91.1597H90.7997ZM90.5197 21.6V21.32V21.6ZM89.5197 18.68C89.7064 18.68 89.813 18.7333 89.8397 18.84C89.8664 18.92 89.8797 18.8667 89.8797 18.68H89.5197V19.04V18.68ZM90.1597 13.88C90.1597 13.6933 90.1464 13.5867 90.1197 13.56C90.093 13.5333 90.013 13.52 89.8797 13.52C89.8797 13.3867 89.9064 13.3067 89.9597 13.28C90.0397 13.2533 90.013 13.24 89.8797 13.24V13.52C90.013 13.52 90.093 13.5333 90.1197 13.56C90.1464 13.5867 90.1597 13.6933 90.1597 13.88ZM90.5197 3.88V4.52C90.333 4.52 90.2264 4.48 90.1997 4.4C90.173 4.29333 90.1597 4.33333 90.1597 4.52H90.5197V3.88ZM89.8797 27.8C90.013 27.8 90.093 27.7867 90.1197 27.76C90.1464 27.7333 90.1597 27.6267 90.1597 27.44V27.8H89.8797ZM90.7997 22.92V23.24V22.92ZM90.1597 25.2V25.48C90.1064 25.48 90.0664 25.4933 90.0397 25.52C89.9597 25.6 89.9997 25.7067 90.1597 25.84V25.48C90.3197 25.48 90.4264 25.44 90.4797 25.36C90.5064 25.3067 90.5197 25.2533 90.5197 25.2H90.1597ZM90.7997 12.6V12.88V12.6ZM90.7997 25.2V25.48H91.1597C91.0797 25.48 91.013 25.4667 90.9597 25.44C90.853 25.3867 90.7997 25.3067 90.7997 25.2ZM90.5197 16.8V17.12V16.8ZM91.1597 28.08H91.4797H91.1597ZM90.5197 20.68H90.7997V20.32C90.7464 20.32 90.693 20.3333 90.6397 20.36C90.5597 20.4133 90.5197 20.52 90.5197 20.68ZM93.0797 27.12H93.3997H93.7197H93.3997V26.76C93.2397 26.76 93.1864 26.8267 93.2397 26.96C93.293 27.0667 93.2397 27.12 93.0797 27.12V27.44C93.2397 27.44 93.2797 27.4267 93.1997 27.4C93.1197 27.3733 93.0797 27.28 93.0797 27.12ZM90.7997 22.28H90.5197H90.7997ZM91.1597 15.8C90.9997 15.8 90.893 15.8533 90.8397 15.96C90.813 16.0133 90.7997 16.0667 90.7997 16.12V16.44C90.933 16.44 90.973 16.3867 90.9197 16.28C90.893 16.2267 90.853 16.1733 90.7997 16.12C90.9864 16.12 91.093 16.1067 91.1197 16.08C91.1464 16.0533 91.1597 15.96 91.1597 15.8ZM90.5197 26.12C90.3597 26.12 90.3197 26.1867 90.3997 26.32C90.4264 26.3733 90.4664 26.4267 90.5197 26.48V26.76L90.7997 26.48C90.693 26.48 90.613 26.4267 90.5597 26.32C90.533 26.2667 90.5197 26.2 90.5197 26.12ZM90.5197 10C90.5197 10.16 90.533 10.2533 90.5597 10.28C90.5864 10.3067 90.6664 10.32 90.7997 10.32V10H90.5197C90.5197 9.84 90.5064 9.74667 90.4797 9.72C90.453 9.69333 90.3464 9.68 90.1597 9.68V10C90.293 10.16 90.3997 10.2 90.4797 10.12C90.5064 10.0933 90.5197 10.0533 90.5197 10ZM90.1597 11.28C90.0264 11.4667 89.9864 11.64 90.0397 11.8C90.1197 11.96 90.1597 12.1067 90.1597 12.24H90.5197C90.5197 12.1067 90.453 11.96 90.3197 11.8C90.213 11.64 90.1597 11.4667 90.1597 11.28V11.64V11.28ZM89.8797 20.32C90.013 20.32 90.093 20.3067 90.1197 20.28C90.1464 20.2533 90.1597 20.1733 90.1597 20.04H89.8797V20.32ZM90.1597 22.28C90.0264 22.12 89.973 22.0267 89.9997 22C90.053 21.9733 90.013 21.96 89.8797 21.96V22.28H90.1597ZM91.7997 27.44V27.12V27.44ZM90.7997 15.16H91.1597H90.7997ZM89.8797 9.04V9.36V9.04ZM93.0797 28.72V28.4L92.7597 28.72H93.0797ZM91.1597 10V9.68V10ZM91.4797 25.84H91.1597H91.4797ZM89.8797 3.56C90.013 3.4 90.053 3.29333 89.9997 3.24C89.973 3.21333 89.933 3.2 89.8797 3.2V3.56ZM90.7997 14.84V14.56V14.84ZM90.7997 23.56V23.88V23.56ZM91.1597 22.92V23.24V22.92ZM96.6397 26.76H96.3197H96.6397ZM90.1597 23.88V24.2V23.88ZM91.1597 26.48V26.12V26.48ZM97.2797 27.44V27.12V27.44ZM92.7597 28.08H92.4397H92.7597ZM103.484 23.6V21V19.08V17.44V16.8C103.644 16.64 103.724 16.5333 103.724 16.48C103.724 16.4267 103.644 16.32 103.484 16.16V13.88C103.484 13.5333 103.524 13.2 103.604 12.88C103.684 12.56 103.644 12.2533 103.484 11.96V8.36C103.324 7.72 103.284 7.08 103.364 6.44C103.444 5.77333 103.484 5.13333 103.484 4.52V3.2C103.324 2.72 103.311 2.37333 103.444 2.16C103.578 1.92 103.804 1.72 104.124 1.56C104.204 1.48 104.284 1.42666 104.364 1.4C104.471 1.34667 104.551 1.30667 104.604 1.28C104.684 1.25333 104.751 1.24 104.804 1.24C105.124 0.919999 105.444 0.919999 105.764 1.24C105.818 1.24 105.884 1.25333 105.964 1.28C106.124 1.33333 106.271 1.42667 106.404 1.56C106.591 1.72 106.738 1.90667 106.844 2.12C106.978 2.30666 107.044 2.56 107.044 2.88C106.911 3.2 106.871 3.58667 106.924 4.04C107.004 4.46667 107.044 4.82667 107.044 5.12C107.044 5.44 107.018 5.81333 106.964 6.24C106.911 6.64 106.724 6.92 106.404 7.08C106.404 7.24 106.418 7.33333 106.444 7.36C106.471 7.38667 106.578 7.4 106.764 7.4C106.898 7.56 106.978 7.77333 107.004 8.04C107.031 8.30667 107.044 8.52 107.044 8.68C107.044 9.02666 107.071 9.36 107.124 9.68C107.178 10 107.058 10.32 106.764 10.64V10.96C106.898 11.1467 106.978 11.3733 107.004 11.64C107.031 11.9067 107.044 12.1067 107.044 12.24C106.911 12.72 106.871 13.1467 106.924 13.52C107.004 13.8667 107.044 14.2 107.044 14.52C107.044 14.84 107.031 15.1067 107.004 15.32C106.978 15.5333 106.898 15.8133 106.764 16.16C106.764 16.64 106.778 17.0667 106.804 17.44C106.831 17.8133 106.911 18.2533 107.044 18.76C107.044 19.0533 107.031 19.36 107.004 19.68C106.978 20 106.898 20.3333 106.764 20.68C106.764 20.84 106.778 21.0667 106.804 21.36C106.831 21.6533 106.911 21.96 107.044 22.28V24.56C106.911 24.7467 106.844 24.9333 106.844 25.12C106.844 25.3067 106.911 25.56 107.044 25.88V28.44C106.911 28.76 106.804 29.0267 106.724 29.24C106.644 29.4267 106.431 29.6 106.084 29.76C105.924 29.76 105.764 29.8 105.604 29.88C105.444 29.9333 105.284 29.9733 105.124 30C104.964 30.0533 104.791 30.0667 104.604 30.04C104.444 30.0133 104.284 29.92 104.124 29.76C103.964 29.6 103.858 29.44 103.804 29.28C103.751 29.0933 103.644 28.92 103.484 28.76C103.324 28.28 103.284 27.7867 103.364 27.28C103.444 26.7467 103.484 26.1733 103.484 25.56V23.6ZM105.124 11.32V10.96L105.444 11.32V11.64V11.32C105.498 11.32 105.551 11.3333 105.604 11.36C105.711 11.4133 105.764 11.5067 105.764 11.64V11.32C105.764 11.1333 105.738 11.0267 105.684 11C105.631 10.9733 105.444 10.96 105.124 10.96V11.32ZM105.444 12.56H105.124V12.88V12.56H105.444ZM104.804 7.08H105.124H104.804V6.76V7.08ZM105.444 7.08V7.4V7.72V7.4C105.604 7.4 105.644 7.38667 105.564 7.36C105.484 7.33333 105.444 7.24 105.444 7.08ZM105.124 4.52H105.444H105.124ZM105.764 3.52C105.604 3.52 105.511 3.50666 105.484 3.48C105.458 3.45333 105.444 3.36 105.444 3.2V3.52H105.764ZM105.444 24.24H105.764V24.56V24.24H105.444ZM104.804 8.36V8.04C104.671 8.04 104.578 8.09333 104.524 8.2C104.498 8.25333 104.484 8.30667 104.484 8.36H104.804ZM105.764 26.8V27.16C105.898 27.16 105.938 27.1067 105.884 27C105.858 26.9467 105.818 26.88 105.764 26.8ZM105.124 9.36H104.804H105.124ZM105.764 23.6H105.124C105.284 23.76 105.391 23.84 105.444 23.84C105.498 23.84 105.604 23.76 105.764 23.6ZM105.444 9.68C105.444 9.73333 105.458 9.78667 105.484 9.84C105.538 9.94667 105.631 10 105.764 10C105.764 9.84 105.751 9.74667 105.724 9.72C105.698 9.69333 105.604 9.68 105.444 9.68ZM104.804 21V21.32C104.938 21.1867 104.978 21.0933 104.924 21.04C104.898 21.0133 104.858 21 104.804 21ZM105.444 16.16C105.284 16.16 105.191 16.1733 105.164 16.2C105.138 16.2267 105.124 16.32 105.124 16.48H105.444V16.16C105.311 16.0267 105.271 15.9333 105.324 15.88C105.351 15.8533 105.391 15.84 105.444 15.84C105.284 15.84 105.204 15.8533 105.204 15.88C105.204 15.9067 105.284 16 105.444 16.16ZM105.124 8.36V8.68L105.444 9.04V8.68L105.124 8.36ZM104.804 18.12V18.44V18.76C104.938 18.76 105.031 18.8133 105.084 18.92C105.111 18.9733 105.124 19.0267 105.124 19.08V18.76L104.804 18.44C104.964 18.44 105.098 18.4267 105.204 18.4C105.311 18.3733 105.284 18.28 105.124 18.12H104.804C104.964 18.12 105.058 18.1067 105.084 18.08C105.111 18.0533 105.124 17.9467 105.124 17.76C104.964 17.76 104.871 17.7733 104.844 17.8C104.818 17.8267 104.804 17.9333 104.804 18.12ZM104.804 17.44C104.964 17.44 105.111 17.4267 105.244 17.4C105.378 17.3733 105.444 17.28 105.444 17.12C105.284 17.12 105.191 17.1333 105.164 17.16C105.138 17.1867 105.124 17.28 105.124 17.44H104.804ZM105.124 20C105.284 20.1867 105.391 20.3333 105.444 20.44C105.498 20.5467 105.604 20.52 105.764 20.36C105.604 20.1733 105.498 20.0667 105.444 20.04C105.391 20.0133 105.284 20 105.124 20C105.124 19.84 105.098 19.6933 105.044 19.56C104.991 19.4267 104.804 19.36 104.484 19.36C104.804 19.68 104.964 19.88 104.964 19.96C104.964 20.04 104.804 20.1733 104.484 20.36C104.644 20.52 104.751 20.5467 104.804 20.44C104.858 20.3333 104.964 20.1867 105.124 20ZM104.804 26.8C104.804 26.9333 104.858 26.9733 104.964 26.92C105.018 26.8933 105.071 26.8533 105.124 26.8V26.52C105.124 26.5733 105.111 26.6267 105.084 26.68C105.031 26.76 104.938 26.8 104.804 26.8ZM105.444 25.56H105.124C105.124 25.6133 105.138 25.6667 105.164 25.72C105.218 25.8267 105.311 25.88 105.444 25.88V25.56ZM105.444 5.76H105.124C105.258 5.89333 105.351 5.93333 105.404 5.88C105.431 5.85333 105.444 5.81333 105.444 5.76ZM104.804 5.76C104.804 5.6 104.791 5.50666 104.764 5.48C104.738 5.45333 104.644 5.44 104.484 5.44V5.76H104.804ZM104.804 7.72V7.4V7.72ZM105.764 8.68H106.084H105.764ZM104.804 28.44H105.124H104.804ZM105.764 4.52H105.444H105.764ZM105.764 25.56V25.88V25.56ZM105.124 5.12H104.804H105.124ZM104.804 10.32V10.64V10.32ZM118.228 7.32V7.6C118.388 8.08 118.495 8.50667 118.548 8.88C118.601 9.25333 118.695 9.69333 118.828 10.2V11.52C119.015 12.4533 119.188 13.3467 119.348 14.2C119.508 15.0533 119.681 15.8667 119.868 16.64C120.028 17.6267 120.241 18.6667 120.508 19.76C120.775 20.8267 120.988 21.84 121.148 22.8C121.148 23.3067 121.215 23.76 121.348 24.16C121.481 24.5333 121.628 24.96 121.788 25.44V25.76C121.788 25.8933 121.801 26.1067 121.828 26.4C121.855 26.6667 121.961 26.88 122.148 27.04C122.281 27.5467 122.295 27.9733 122.188 28.32C122.108 28.6667 121.975 29 121.788 29.32C121.628 29.48 121.468 29.6267 121.308 29.76C121.148 29.8933 120.988 29.96 120.828 29.96C120.161 29.96 119.601 29.8 119.148 29.48C118.695 29.16 118.388 28.68 118.228 28.04C118.228 27.5333 118.215 27.04 118.188 26.56C118.161 26.0533 118.068 25.56 117.908 25.08C117.588 24.44 117.228 24.0267 116.828 23.84C116.455 23.6267 115.935 23.52 115.268 23.52C114.788 23.52 114.375 23.6133 114.028 23.8C113.708 23.96 113.375 24.28 113.028 24.76V25.08C113.028 25.2667 113.015 25.3867 112.988 25.44C112.961 25.4933 112.881 25.6 112.748 25.76C112.561 25.8933 112.508 26.12 112.588 26.44C112.695 26.7333 112.748 27.04 112.748 27.36C112.748 27.5467 112.681 27.72 112.548 27.88C112.441 28.04 112.388 28.1867 112.388 28.32C112.308 28.64 112.148 28.9067 111.908 29.12C111.695 29.3333 111.441 29.4933 111.148 29.6C110.881 29.7067 110.588 29.76 110.268 29.76C109.975 29.76 109.708 29.72 109.468 29.64C109.308 29.48 109.161 29.32 109.028 29.16C108.895 29 108.828 28.84 108.828 28.68C108.828 28.2 108.841 27.72 108.868 27.24C108.895 26.7333 108.988 26.24 109.148 25.76C109.148 25.4133 109.201 25.08 109.308 24.76C109.415 24.4133 109.468 24 109.468 23.52C109.628 23.1467 109.735 22.7333 109.788 22.28C109.841 21.8267 109.948 21.36 110.108 20.88C110.188 20.56 110.241 20.2133 110.268 19.84C110.295 19.44 110.308 19.04 110.308 18.64C110.335 18.2133 110.375 17.8133 110.428 17.44C110.481 17.04 110.588 16.68 110.748 16.36C110.908 15.88 111.055 15.3467 111.188 14.76C111.348 14.1733 111.428 13.6267 111.428 13.12V12.44C111.588 11.8 111.748 11.12 111.908 10.4C112.068 9.65333 112.228 8.94667 112.388 8.28C112.388 8.09333 112.401 7.88 112.428 7.64C112.455 7.37333 112.561 7.14667 112.748 6.96V6C112.748 5.68 112.761 5.30667 112.788 4.88C112.815 4.42667 112.895 4.04 113.028 3.72C113.161 3.72 113.255 3.66667 113.308 3.56C113.335 3.50667 113.348 3.45333 113.348 3.4C113.188 2.92 113.241 2.46667 113.508 2.04C113.801 1.61333 114.188 1.32 114.668 1.16C114.828 0.973332 114.961 0.879998 115.068 0.879998C115.201 0.879998 115.268 0.973332 115.268 1.16C115.641 1.16 115.921 1.17333 116.108 1.2C116.295 1.22667 116.455 1.32 116.588 1.48C116.775 1.48 116.895 1.54667 116.948 1.68C117.001 1.78667 117.108 1.93333 117.268 2.12C117.268 2.6 117.308 3.02667 117.388 3.4C117.495 3.77333 117.548 4.2 117.548 4.68C117.548 4.81333 117.561 5.02667 117.588 5.32C117.615 5.61333 117.721 5.84 117.908 6C118.068 6.16 118.161 6.33333 118.188 6.52C118.215 6.70667 118.228 6.97333 118.228 7.32ZM113.708 13.4H113.348H113.708ZM120.828 25.76V25.44C120.668 25.44 120.521 25.4 120.388 25.32C120.255 25.2133 120.188 25.2533 120.188 25.44C120.348 25.6 120.455 25.64 120.508 25.56C120.561 25.48 120.668 25.44 120.828 25.44V25.76ZM110.748 23.8V23.52C110.748 23.6533 110.735 23.7333 110.708 23.76C110.681 23.7867 110.601 23.8 110.468 23.8H110.748ZM111.428 23.2C111.348 23.2 111.281 23.1867 111.228 23.16C111.121 23.1067 111.068 22.9867 111.068 22.8V23.2H110.748C110.748 23.3333 110.801 23.3733 110.908 23.32C110.961 23.2933 111.015 23.2533 111.068 23.2H111.428ZM117.268 21.84V21.52V21.84H116.948V22.2V21.84H117.268ZM112.068 20.24H111.748H112.068ZM118.828 19.96C118.828 20.0933 118.815 20.1733 118.788 20.2C118.761 20.2267 118.681 20.24 118.548 20.24C118.548 20.1067 118.481 20.08 118.348 20.16C118.215 20.2133 118.068 20.24 117.908 20.24V20.56V20.24C118.068 20.24 118.175 20.2933 118.228 20.4C118.281 20.5067 118.388 20.56 118.548 20.56V20.88V20.56V20.24C118.575 20.24 118.615 20.2267 118.668 20.2C118.775 20.1467 118.828 20.0667 118.828 19.96ZM117.908 19.6V19.28V19.6V19.28V19.6ZM116.588 10.56H116.308V11.16C116.308 11.0267 116.348 10.9333 116.428 10.88C116.481 10.8533 116.535 10.84 116.588 10.84V10.56ZM113.348 11.84H113.028V11.52C113.028 11.68 113.041 11.7733 113.068 11.8C113.095 11.8267 113.188 11.84 113.348 11.84ZM116.588 7.92H116.308C116.308 7.76 116.295 7.68 116.268 7.68C116.241 7.68 116.148 7.76 115.988 7.92H116.588ZM113.028 10.2V10.56V10.2ZM117.268 10.2V10.56C117.108 10.56 117.068 10.6267 117.148 10.76C117.228 10.8667 117.268 11 117.268 11.16V10.84V10.56V10.2ZM118.228 15.4V15.08V14.76V15.08V15.4ZM114.308 8.56H114.668V8.28V8.56H114.308ZM113.348 14.12H113.028H113.348ZM116.948 11.84H116.588H116.948ZM116.308 9.88H115.988C115.775 9.88 115.655 9.85333 115.628 9.8C115.601 9.72 115.588 9.74667 115.588 9.88H115.988H116.308ZM115.988 8.56H115.588H115.988ZM113.708 7.6H114.028L113.708 7.32V7.6ZM114.668 6.64H114.988H114.668ZM110.468 27.36C110.415 27.36 110.375 27.3733 110.348 27.4C110.268 27.48 110.308 27.5867 110.468 27.72V27.36ZM119.868 26.72V27.04V26.72ZM118.228 22.48V22.8V22.48ZM116.308 20.56H115.988H116.308ZM117.548 19.6C117.415 19.7867 117.335 19.8533 117.308 19.8C117.281 19.72 117.268 19.7733 117.268 19.96V19.6H117.548ZM111.748 19.6H112.068C111.935 19.4667 111.841 19.4267 111.788 19.48C111.761 19.5067 111.748 19.5467 111.748 19.6ZM117.908 16.04V16.36V16.04ZM112.748 18.6V18.28V17.96H112.388C112.388 18.12 112.401 18.2133 112.428 18.24C112.455 18.2667 112.561 18.28 112.748 18.28C112.561 18.28 112.468 18.3333 112.468 18.44C112.468 18.5467 112.561 18.6 112.748 18.6C112.748 18.76 112.761 18.8 112.788 18.72C112.815 18.64 112.895 18.6 113.028 18.6H112.748ZM115.268 7.92H115.588H115.268ZM111.428 26.4H111.068H111.428ZM116.948 9.88C116.948 9.93333 116.961 9.97333 116.988 10C117.041 10.0533 117.135 10.0133 117.268 9.88H116.948ZM117.908 17.32V17.64V17.32H118.228H117.908ZM115.588 6.96V7.32V6.96ZM113.348 9.6C113.215 9.6 113.121 9.65333 113.068 9.76C113.041 9.81333 113.028 9.85333 113.028 9.88V9.6H113.348ZM114.308 6.96V7.32V6.96ZM118.828 18.6V18.28C118.775 18.28 118.735 18.2933 118.708 18.32C118.655 18.3733 118.695 18.4667 118.828 18.6ZM110.108 28.32V28.04V28.32ZM111.068 28.04H110.748H111.068ZM118.548 24.48H118.828C118.828 24.2933 118.815 24.2533 118.788 24.36C118.761 24.44 118.681 24.48 118.548 24.48ZM117.268 15.08V15.4C117.401 15.4 117.481 15.3867 117.508 15.36C117.535 15.3333 117.548 15.24 117.548 15.08H117.268ZM117.268 11.52H117.548V11.84C117.548 11.7867 117.535 11.7333 117.508 11.68C117.455 11.5733 117.375 11.52 117.268 11.52ZM118.228 15.68C118.335 15.68 118.428 15.7467 118.508 15.88C118.535 15.9333 118.548 15.9867 118.548 16.04C118.548 15.9867 118.535 15.9333 118.508 15.88C118.428 15.7467 118.335 15.68 118.228 15.68ZM117.908 12.8H117.548H117.908ZM115.988 21.24V21.52V21.24ZM120.508 27.36V27.72H120.828L120.508 27.36ZM110.748 24.48H111.068H110.748ZM119.868 23.2H120.188H119.868V22.8V22.48C119.708 22.5867 119.668 22.68 119.748 22.76C119.775 22.7867 119.815 22.8 119.868 22.8V23.2ZM117.548 16.64H117.908V17V16.64H117.548ZM114.668 7.6C114.668 7.65333 114.681 7.70667 114.708 7.76C114.761 7.86666 114.855 7.92 114.988 7.92V7.6H114.668ZM112.388 17H112.748V16.64L112.388 17ZM112.748 12.12C112.561 12.12 112.455 12.1333 112.428 12.16C112.401 12.1867 112.388 12.28 112.388 12.44H112.748V12.12ZM120.188 24.76C120.188 24.7067 120.175 24.6667 120.148 24.64C120.121 24.6133 120.028 24.6533 119.868 24.76H120.188ZM115.588 3.4V3.08V3.4H115.268H115.588ZM115.588 4H115.988H115.588C115.588 3.86667 115.575 3.78667 115.548 3.76C115.521 3.73333 115.428 3.72 115.268 3.72V4C115.375 4.16 115.468 4.2 115.548 4.12C115.575 4.09333 115.588 4.05333 115.588 4ZM116.948 12.44H117.268C117.268 12.28 117.255 12.1867 117.228 12.16C117.201 12.1333 117.108 12.12 116.948 12.12V12.44ZM116.308 4.68V5.36C116.415 5.17333 116.495 5.01333 116.548 4.88C116.575 4.8 116.588 4.73333 116.588 4.68H116.308ZM115.268 22.48C115.268 22.3467 115.255 22.2133 115.228 22.08C115.201 21.92 115.121 21.84 114.988 21.84C114.988 22.0267 115.028 22.1333 115.108 22.16C115.161 22.1867 115.215 22.2 115.268 22.2V22.48ZM114.308 3.08V3.72C114.468 3.72 114.575 3.66667 114.628 3.56C114.655 3.50667 114.668 3.45333 114.668 3.4C114.668 3.29333 114.601 3.2 114.468 3.12C114.415 3.09333 114.361 3.08 114.308 3.08ZM116.588 6.64C116.455 6.64 116.375 6.70666 116.348 6.84C116.321 6.97333 116.308 7.13333 116.308 7.32C116.441 7.32 116.521 7.25333 116.548 7.12C116.575 6.96 116.588 6.8 116.588 6.64ZM114.308 21.84C114.175 22 114.201 22.1067 114.388 22.16C114.468 22.1867 114.561 22.2 114.668 22.2C114.668 22.0133 114.655 21.8667 114.628 21.76C114.601 21.6533 114.495 21.68 114.308 21.84ZM112.748 23.52C112.881 23.52 112.961 23.5067 112.988 23.48C113.015 23.4533 113.028 23.36 113.028 23.2H112.748V23.52C112.748 23.36 112.735 23.2 112.708 23.04C112.681 22.88 112.575 22.8 112.388 22.8C112.228 22.8 112.188 22.8667 112.268 23C112.295 23.08 112.335 23.1467 112.388 23.2H112.068H111.748V23.52C111.908 23.52 112.001 23.5067 112.028 23.48C112.055 23.4533 112.068 23.36 112.068 23.2C112.068 23.3333 112.121 23.4267 112.228 23.48C112.281 23.5067 112.335 23.52 112.388 23.52V23.8C112.548 23.8 112.655 23.76 112.708 23.68C112.735 23.6267 112.748 23.5733 112.748 23.52ZM116.308 14.76V14.4C116.148 13.8933 115.988 13.3467 115.828 12.76C115.668 12.1733 115.588 11.64 115.588 11.16H115.268H114.988V13.4C114.828 14.0933 114.655 14.8267 114.468 15.6C114.308 16.3733 114.161 17.16 114.028 17.96C114.028 18.28 114.055 18.5333 114.108 18.72C114.161 18.9067 114.348 19.0933 114.668 19.28C114.828 19.6267 115.028 19.8133 115.268 19.84C115.535 19.8667 115.775 19.7867 115.988 19.6C116.281 19.44 116.508 19.2667 116.668 19.08C116.855 18.8667 116.948 18.6 116.948 18.28C116.761 17.96 116.655 17.6533 116.628 17.36C116.601 17.0667 116.588 16.8267 116.588 16.64C116.455 16.3467 116.375 16.04 116.348 15.72C116.321 15.4 116.308 15.08 116.308 14.76ZM114.308 20.88C114.175 20.72 114.081 20.6267 114.028 20.6C113.975 20.5733 113.868 20.56 113.708 20.56H113.348H113.708C113.868 20.72 113.975 20.8133 114.028 20.84C114.081 20.8667 114.175 20.88 114.308 20.88ZM115.588 6.32V5.68H115.268C115.428 5.68 115.521 5.74667 115.548 5.88C115.575 6.01333 115.588 6.16 115.588 6.32ZM113.028 10.84C112.921 10.84 112.841 10.8933 112.788 11C112.761 11.0533 112.748 11.1067 112.748 11.16C112.748 11.2133 112.761 11.2533 112.788 11.28C112.815 11.3067 112.841 11.32 112.868 11.32C112.895 11.32 112.948 11.2667 113.028 11.16V10.84ZM116.588 9.2H116.308H116.588ZM111.748 17.32V17.64H112.068C112.068 17.48 112.055 17.3867 112.028 17.36C112.001 17.3333 111.908 17.32 111.748 17.32ZM113.028 12.8V12.44L112.748 12.8H113.028ZM118.828 19.6V19.28V19.6ZM113.348 10.84V11.16C113.508 11.16 113.615 11.1067 113.668 11C113.695 10.9467 113.708 10.8933 113.708 10.84H113.348ZM112.748 20.24C112.748 20.16 112.681 20.08 112.548 20C112.495 19.9733 112.441 19.96 112.388 19.96V20.24H112.748ZM112.388 14.12C112.255 14.12 112.161 14.1733 112.108 14.28C112.081 14.3333 112.068 14.3733 112.068 14.4H112.388V14.12ZM117.268 8.88V9.2V8.88ZM113.028 21.24V20.88C112.895 20.88 112.815 20.8933 112.788 20.92C112.761 20.9467 112.748 21.0533 112.748 21.24H113.028ZM111.428 20.24V19.96V20.24ZM117.268 9.2V9.6H117.548C117.548 9.54667 117.535 9.48 117.508 9.4C117.428 9.26666 117.348 9.2 117.268 9.2ZM111.428 18.28V18.6V18.28ZM118.828 22.8V23.2H119.188C119.188 23.1467 119.175 23.08 119.148 23C119.068 22.8667 118.961 22.8 118.828 22.8ZM114.668 4.68C114.668 4.62667 114.655 4.57333 114.628 4.52C114.575 4.41333 114.468 4.36 114.308 4.36V4.68H114.668ZM117.908 19.96H117.548C117.735 20.0933 117.841 20.16 117.868 20.16C117.895 20.16 117.908 20.0933 117.908 19.96ZM114.988 3.08C115.121 3.08 115.201 3.06667 115.228 3.04C115.255 3.01333 115.268 2.90667 115.268 2.72H114.988V3.08ZM117.548 14.4C117.415 14.4 117.335 14.36 117.308 14.28C117.281 14.2267 117.268 14.1733 117.268 14.12V14.4H117.548ZM118.548 23.8H118.228H118.548ZM117.268 13.12V13.4V13.12ZM111.748 27.36C111.588 27.2 111.495 27.12 111.468 27.12C111.441 27.12 111.428 27.2 111.428 27.36H111.748ZM120.188 26.04H119.868H120.188ZM113.028 16.64V16.36V16.64ZM118.828 18.92H118.548H118.828ZM119.508 20.56V20.24V20.56ZM111.068 20.88V20.56V20.88ZM113.348 21.84H113.028H113.348ZM117.268 21.84V22.2V21.84ZM119.508 23.52V23.2V23.52ZM119.188 24.48H119.508H119.188ZM114.308 4.68V4.96V4.68Z" fill="#8E3200"/>
</svg>
