<svg width="186" height="47" viewBox="0 0 186 47" fill="none" xmlns="http://www.w3.org/2000/svg">
<path d="M28.512 41.232C28.576 41.52 28.608 41.792 28.608 42.048C28.608 42.304 28.56 42.496 28.464 42.624C28.304 42.848 28.16 43.008 28.032 43.104C27.936 43.232 27.84 43.376 27.744 43.536C27.584 43.696 27.376 43.888 27.12 44.112C26.896 44.368 26.64 44.512 26.352 44.544C26.032 44.992 25.6 45.328 25.056 45.552C24.512 45.776 24 45.952 23.52 46.08H23.424H23.28C23.152 46.144 23.008 46.176 22.848 46.176C22.72 46.208 22.576 46.24 22.416 46.272C21.744 46.336 21.152 46.336 20.64 46.272C20.128 46.24 19.616 46.16 19.104 46.032C18.368 45.808 17.664 45.456 16.992 44.976C16.352 44.528 15.824 44.032 15.408 43.488C15.28 43.296 15.168 43.104 15.072 42.912C15.008 42.72 14.928 42.544 14.832 42.384C14.704 42.288 14.576 42.16 14.448 42C14.32 41.84 14.192 41.648 14.064 41.424C13.936 41.2 13.792 40.896 13.632 40.512C13.28 39.648 12.96 38.752 12.672 37.824C12.416 36.928 12.16 36.016 11.904 35.088C11.872 34.96 11.84 34.848 11.808 34.752C11.776 34.624 11.744 34.464 11.712 34.272C11.648 33.44 11.536 32.656 11.376 31.92C11.216 31.152 11.088 30.576 10.992 30.192C10.544 29.392 10.08 28.864 9.6 28.608C9.152 28.352 8.544 28.224 7.776 28.224C7.232 28.224 6.736 28.336 6.288 28.56C5.872 28.784 5.456 29.2 5.04 29.808V30.192C5.04 30.352 5.024 30.464 4.992 30.528C4.992 30.592 4.912 30.752 4.752 31.008C4.496 31.168 4.432 31.424 4.56 31.776C4.688 32.096 4.752 32.432 4.752 32.784C4.752 33.04 4.672 33.264 4.512 33.456C4.352 33.648 4.272 33.824 4.272 33.984C4.208 34.368 4.032 34.704 3.744 34.992C3.488 35.248 3.184 35.44 2.832 35.568C2.512 35.696 2.16 35.76 1.776 35.76C1.424 35.76 1.104 35.696 0.816 35.568C0.624 35.408 0.432 35.232 0.24 35.04C0.08 34.816 0 34.608 0 34.416C0 33.84 0.016 33.264 0.048 32.688C0.08 32.112 0.208 31.552 0.432 31.008C0.432 30.592 0.496 30.16 0.624 29.712C0.752 29.264 0.816 28.768 0.816 28.224C1.04 27.872 1.184 27.424 1.248 26.88C1.312 26.304 1.424 25.712 1.584 25.104C1.68 24.72 1.728 24.304 1.728 23.856C1.76 23.376 1.792 22.896 1.824 22.416C1.856 21.904 1.904 21.424 1.968 20.976C2.032 20.496 2.16 20.064 2.352 19.68C2.544 19.072 2.72 18.416 2.88 17.712C3.072 17.008 3.168 16.336 3.168 15.696V14.976C3.328 14.208 3.504 13.392 3.696 12.528C3.92 11.632 4.112 10.784 4.272 9.984C4.272 9.76 4.288 9.504 4.32 9.216C4.352 8.896 4.496 8.656 4.752 8.496V7.2C4.752 6.816 4.752 6.384 4.752 5.904C4.784 5.424 4.88 4.96 5.04 4.512C5.168 4.512 5.264 4.464 5.328 4.368C5.36 4.304 5.376 4.24 5.376 4.176C5.216 3.536 5.296 2.976 5.616 2.496C5.968 1.984 6.416 1.616 6.96 1.392C7.504 1.008 7.776 1.008 7.776 1.392C8.192 1.392 8.512 1.408 8.736 1.44C8.96 1.472 9.152 1.6 9.312 1.824C9.536 1.824 9.68 1.904 9.744 2.064C9.808 2.192 9.936 2.384 10.128 2.64C10.128 3.152 10.192 3.648 10.32 4.128C10.448 4.576 10.512 5.072 10.512 5.616C10.512 5.84 10.528 6.128 10.56 6.48C10.592 6.8 10.736 7.04 10.992 7.2C11.152 7.424 11.232 7.664 11.232 7.92C11.264 8.144 11.28 8.432 11.28 8.784V9.168C11.44 9.744 11.552 10.272 11.616 10.752C11.68 11.2 11.824 11.712 12.048 12.288V13.872C12.272 15.024 12.48 16.096 12.672 17.088C12.864 18.08 13.056 19.072 13.248 20.064C13.44 21.28 13.68 22.528 13.968 23.808C14.288 25.056 14.544 26.288 14.736 27.504C14.736 28.048 14.816 28.544 14.976 28.992C15.136 29.408 15.344 29.92 15.6 30.528V31.008C15.6 31.072 15.616 31.28 15.648 31.632C15.68 31.984 15.728 32.368 15.792 32.784C15.888 33.2 15.968 33.6 16.032 33.984C16.128 34.336 16.224 34.56 16.32 34.656C16.48 35.104 16.608 35.472 16.704 35.76C16.832 36.048 16.864 36.368 16.8 36.72C16.96 37.168 17.12 37.632 17.28 38.112C17.472 38.624 17.696 39.12 17.952 39.6C17.952 39.6 17.968 39.616 18 39.648C18.352 40.224 18.656 40.64 18.912 40.896C19.168 41.184 19.328 41.344 19.392 41.376C20.192 41.952 21.104 42.24 22.128 42.24C22.224 42.208 22.336 42.192 22.464 42.192C22.688 42.16 23.008 42.032 23.424 41.808C23.84 41.616 24.128 41.488 24.288 41.424L24.576 41.088C24.64 40.704 24.8 40.448 25.056 40.32C25.344 40.192 25.696 40.016 26.112 39.792C26.144 39.76 26.192 39.728 26.256 39.696C26.352 39.632 26.496 39.648 26.688 39.744C27.008 40.032 27.344 40.256 27.696 40.416C28.048 40.576 28.32 40.848 28.512 41.232ZM14.496 34.992C14.496 35.056 14.512 35.12 14.544 35.184C14.576 35.248 14.608 35.312 14.64 35.376C14.672 35.408 14.752 35.44 14.88 35.472C14.88 35.248 14.816 35.104 14.688 35.04C14.624 35.008 14.56 34.992 14.496 34.992ZM14.352 30.528C14.16 30.528 13.984 30.496 13.824 30.432C13.696 30.336 13.632 30.368 13.632 30.528C13.792 30.784 13.904 30.848 13.968 30.72C14.032 30.592 14.16 30.528 14.352 30.528ZM14.016 33.12C13.824 33.184 13.776 33.216 13.872 33.216C13.968 33.216 14.048 33.312 14.112 33.504C14.016 33.568 13.968 33.616 13.968 33.648C14.064 33.648 14.112 33.664 14.112 33.696C14.144 33.728 14.144 33.664 14.112 33.504L14.016 33.12ZM13.632 29.808C13.632 29.712 13.616 29.648 13.584 29.616C13.52 29.552 13.408 29.616 13.248 29.808H13.632ZM12.048 21.984C11.984 21.984 11.936 22 11.904 22.032C11.808 22.128 11.856 22.272 12.048 22.464V21.984ZM10.512 17.328C10.32 17.328 10.208 17.28 10.176 17.184C10.144 17.12 10.128 17.056 10.128 16.992V17.328H10.512ZM10.32 18.096H10.128V18.48C10.32 18.48 10.432 18.464 10.464 18.432C10.496 18.4 10.512 18.288 10.512 18.096H10.32ZM10.128 13.872C10.256 13.872 10.368 13.952 10.464 14.112C10.496 14.176 10.512 14.24 10.512 14.304V13.872H10.128ZM10.128 12.72C9.936 12.72 9.888 12.8 9.984 12.96C10.08 13.088 10.128 13.248 10.128 13.44V12.72ZM10.128 11.568H10.512C10.512 11.504 10.496 11.44 10.464 11.376C10.368 11.216 10.256 11.136 10.128 11.136V11.568ZM9.744 11.952C9.744 12.016 9.76 12.064 9.792 12.096C9.856 12.16 9.968 12.112 10.128 11.952H9.744ZM8.976 12.72V13.44C8.976 13.28 9.024 13.168 9.12 13.104C9.184 13.072 9.248 13.056 9.312 13.056V12.72H8.976ZM8.976 6.432C9.104 6.24 9.2 6.064 9.264 5.904C9.296 5.808 9.312 5.712 9.312 5.616H8.976V6.432ZM9.312 8.064C9.152 8.064 9.056 8.144 9.024 8.304C8.992 8.464 8.976 8.624 8.976 8.784C9.136 8.784 9.232 8.72 9.264 8.592C9.296 8.464 9.312 8.288 9.312 8.064ZM8.976 9.552C8.976 9.36 8.96 9.264 8.928 9.264C8.896 9.264 8.784 9.36 8.592 9.552H8.976ZM7.776 6.864C7.936 6.864 8.032 6.944 8.064 7.104C8.096 7.232 8.112 7.408 8.112 7.632V6.864H7.776ZM8.592 11.952C8.336 11.952 8.192 11.904 8.16 11.808C8.128 11.712 8.112 11.76 8.112 11.952H8.592ZM8.112 4.992C8.112 4.736 8.096 4.592 8.064 4.56C8.032 4.528 7.936 4.512 7.776 4.512V4.992C7.904 5.152 8 5.2 8.064 5.136C8.096 5.104 8.112 5.056 8.112 4.992ZM7.488 3.648C7.648 3.648 7.728 3.648 7.728 3.648C7.76 3.616 7.776 3.52 7.776 3.36H7.488V3.648ZM6.96 9.168C6.96 9.232 6.976 9.296 7.008 9.36C7.072 9.488 7.232 9.552 7.488 9.552V9.168H6.96ZM6.672 4.512C6.768 4.512 6.848 4.464 6.912 4.368C6.944 4.304 6.96 4.24 6.96 4.176C6.96 3.952 6.912 3.792 6.816 3.696C6.752 3.664 6.704 3.648 6.672 3.648V4.512ZM6.672 5.616H6.96C6.96 5.584 6.944 5.552 6.912 5.52C6.816 5.424 6.736 5.376 6.672 5.376V5.616ZM5.856 9.168H6.192L5.856 8.784V9.168ZM5.376 13.056V13.44C5.6 13.44 5.744 13.376 5.808 13.248C5.84 13.184 5.856 13.12 5.856 13.056H5.376ZM4.272 21.696C4.272 21.856 4.288 21.952 4.32 21.984C4.352 21.984 4.496 21.984 4.752 21.984C4.496 21.984 4.368 22.064 4.368 22.224C4.368 22.384 4.496 22.464 4.752 22.464C4.752 22.624 4.752 22.672 4.752 22.608C4.784 22.512 4.88 22.464 5.04 22.464H4.752V21.984V21.696H4.272ZM4.752 20.448V20.064L4.272 20.448H4.752ZM5.04 15.36V14.976L4.752 15.36H5.04ZM4.752 24.384C4.752 24.256 4.672 24.144 4.512 24.048C4.416 24.016 4.336 24 4.272 24V24.384H4.752ZM5.04 25.104C4.88 25.104 4.784 25.12 4.752 25.152C4.752 25.184 4.752 25.28 4.752 25.44H5.04V25.104ZM5.04 11.952C5.04 11.888 5.056 11.824 5.088 11.76C5.152 11.632 5.248 11.568 5.376 11.568H5.04V11.952ZM5.376 14.304C5.216 14.304 5.12 14.288 5.088 14.256C5.056 14.224 5.04 14.096 5.04 13.872V14.304H5.376ZM5.04 13.056C4.944 13.056 4.864 13.12 4.8 13.248C4.768 13.312 4.752 13.376 4.752 13.44C4.752 13.504 4.768 13.552 4.8 13.584C4.832 13.616 4.864 13.632 4.896 13.632C4.928 13.632 4.976 13.568 5.04 13.44V13.056ZM4.752 14.64C4.496 14.64 4.352 14.656 4.32 14.688C4.288 14.72 4.272 14.816 4.272 14.976H4.752V14.64ZM4.272 16.992C4.176 16.992 4.096 17.056 4.032 17.184C4 17.248 3.984 17.296 3.984 17.328H4.272V16.992ZM3.504 21.216H3.984C3.984 21.024 3.968 20.912 3.936 20.88C3.904 20.848 3.76 20.832 3.504 20.832V21.216ZM3.984 23.568C3.76 23.408 3.616 23.36 3.552 23.424C3.52 23.456 3.504 23.504 3.504 23.568H3.984ZM2.352 27.84C2.352 28.032 2.432 28.08 2.592 27.984C2.752 27.888 2.944 27.84 3.168 27.84C3.072 27.84 2.992 27.824 2.928 27.792C2.8 27.728 2.736 27.632 2.736 27.504V27.84H2.352ZM2.352 28.224C2.352 28.416 2.336 28.528 2.304 28.56C2.272 28.592 2.16 28.608 1.968 28.608H2.352V28.224ZM4.752 28.224C4.912 28.224 4.992 28.208 4.992 28.176C5.024 28.144 5.04 28.032 5.04 27.84H4.752V28.224C4.752 28.032 4.736 27.872 4.704 27.744C4.672 27.584 4.528 27.504 4.272 27.504C4.144 27.504 4.112 27.568 4.176 27.696C4.208 27.76 4.24 27.808 4.272 27.84H3.984H3.504V28.224C3.76 28.224 3.904 28.208 3.936 28.176C3.968 28.144 3.984 28.032 3.984 27.84C3.984 28.032 4.032 28.144 4.128 28.176C4.16 28.208 4.208 28.224 4.272 28.224V28.608C4.496 28.608 4.64 28.544 4.704 28.416C4.736 28.352 4.752 28.288 4.752 28.224ZM6.672 25.104C6.416 24.944 6.256 24.848 6.192 24.816C6.128 24.784 6.016 24.768 5.856 24.768C6.016 24.928 6.128 25.024 6.192 25.056C6.256 25.088 6.416 25.104 6.672 25.104ZM6.672 26.304C6.48 26.496 6.464 26.624 6.624 26.688C6.72 26.72 6.832 26.736 6.96 26.736C6.96 26.512 6.944 26.32 6.912 26.16C6.912 26 6.832 26.048 6.672 26.304ZM7.488 26.304C7.488 26.464 7.52 26.576 7.584 26.64L7.68 26.736C7.68 26.448 7.616 26.304 7.488 26.304ZM8.592 23.568C8.944 23.376 9.216 23.168 9.408 22.944C9.632 22.72 9.744 22.4 9.744 21.984C9.52 21.6 9.392 21.232 9.36 20.88C9.328 20.528 9.312 20.256 9.312 20.064C9.152 19.648 9.056 19.248 9.024 18.864C8.992 18.48 8.976 18.112 8.976 17.76V17.328C8.784 16.752 8.592 16.112 8.4 15.408C8.208 14.704 8.112 14.048 8.112 13.44H7.776H7.488V16.176C7.232 16.976 7.008 17.84 6.816 18.768C6.656 19.696 6.448 20.672 6.192 21.696C6.192 22.08 6.224 22.384 6.288 22.608C6.352 22.8 6.576 22.992 6.96 23.184C7.216 23.6 7.488 23.824 7.776 23.856C8.064 23.888 8.336 23.792 8.592 23.568ZM9.744 14.976H10.128C10.128 14.816 10.112 14.72 10.08 14.688C10.048 14.656 9.936 14.64 9.744 14.64V14.976ZM10.128 24C10.128 23.776 10.144 23.712 10.176 23.808C10.208 23.872 10.32 23.792 10.512 23.568H10.128V24ZM10.512 24C10.768 24.192 10.912 24.288 10.944 24.288C10.976 24.288 10.992 24.192 10.992 24H10.512ZM10.992 24.384C11.152 24.384 11.248 24.448 11.28 24.576C11.344 24.704 11.456 24.768 11.616 24.768V24.384C11.616 24.192 11.552 24.144 11.424 24.24C11.296 24.336 11.152 24.384 10.992 24.384ZM12.048 29.328C12.048 29.168 12.032 29.136 12 29.232C11.968 29.296 11.84 29.328 11.616 29.328H12.048ZM12.048 27.84H12.48C12.48 27.808 12.464 27.76 12.432 27.696C12.368 27.568 12.24 27.504 12.048 27.504V27.84ZM13.248 27.024C13.088 27.248 13.04 27.392 13.104 27.456C13.136 27.488 13.184 27.504 13.248 27.504V27.024ZM13.344 33.36C13.184 33.52 13.104 33.648 13.104 33.744C13.104 33.808 13.232 33.856 13.488 33.888C13.456 33.792 13.44 33.728 13.44 33.696C13.44 33.632 13.408 33.52 13.344 33.36ZM13.248 32.928C13.504 32.864 13.632 32.736 13.632 32.544C13.632 32.576 13.616 32.592 13.584 32.592H13.488C13.456 32.656 13.408 32.72 13.344 32.784C13.312 32.816 13.28 32.864 13.248 32.928ZM13.968 34.416L13.872 33.984L13.632 34.512L13.968 34.416ZM13.968 36.144C13.968 35.984 14.048 35.872 14.208 35.808C14.272 35.776 14.352 35.76 14.448 35.76H13.968L14.016 35.376L13.728 34.944C13.728 35.168 13.728 35.296 13.728 35.328C13.76 35.36 13.856 35.376 14.016 35.376C13.984 35.376 13.936 35.392 13.872 35.424C13.744 35.488 13.664 35.6 13.632 35.76H13.968V36.144ZM14.448 35.76C14.416 35.856 14.416 35.936 14.448 36C14.512 36.16 14.64 36.24 14.832 36.24V35.856L14.448 35.76ZM14.64 36.816C14.64 36.976 14.656 37.072 14.688 37.104C14.72 37.136 14.832 37.152 15.024 37.152C14.832 37.152 14.72 37.104 14.688 37.008C14.656 36.944 14.64 36.88 14.64 36.816ZM15.744 40.32C15.744 40.224 15.68 40.144 15.552 40.08C15.488 40.048 15.424 40.032 15.36 40.032H15.216C15.152 40.096 15.2 40.192 15.36 40.32H15.408H15.744ZM15.744 38.88C15.872 38.688 15.92 38.576 15.888 38.544C15.856 38.512 15.808 38.48 15.744 38.448C15.744 38.32 15.664 38.208 15.504 38.112C15.44 38.08 15.376 38.064 15.312 38.064V38.448L15.744 38.88ZM17.328 43.056L17.088 42.624L16.944 43.2L17.328 43.056ZM18.096 43.488L17.664 43.632L17.952 43.872L18.096 43.488ZM17.568 42.816C17.632 42.912 17.744 42.96 17.904 42.96C17.968 42.96 18.032 42.944 18.096 42.912L17.808 42.576L17.568 42.816ZM18.576 44.208C18.736 44.08 18.816 44 18.816 43.968C18.816 43.936 18.768 43.888 18.672 43.824C18.512 43.888 18.432 43.936 18.432 43.968C18.432 44 18.48 44.08 18.576 44.208ZM19.584 43.152C19.488 43.024 19.456 42.928 19.488 42.864C19.552 42.8 19.52 42.816 19.392 42.912L19.584 43.152ZM23.232 44.4C23.136 44.24 23.072 44.16 23.04 44.16C23.008 44.16 22.912 44.224 22.752 44.352C22.72 44.384 22.672 44.4 22.608 44.4C22.48 44.4 22.384 44.336 22.32 44.208C22.512 44.496 22.624 44.656 22.656 44.688C22.72 44.72 22.832 44.688 22.992 44.592L23.232 44.4ZM24.816 42.96L24.672 42.816C24.64 42.816 24.624 42.8 24.624 42.768C24.592 42.736 24.576 42.688 24.576 42.624L24.48 43.104V43.152L24.144 43.392C24.304 43.264 24.4 43.2 24.432 43.2C24.496 43.2 24.576 43.264 24.672 43.392L24.48 43.152L24.816 42.96ZM26.304 41.568C26.368 41.504 26.384 41.44 26.352 41.376C26.352 41.344 26.32 41.328 26.256 41.328H26.016L26.304 41.568ZM26.736 42.816C26.64 42.976 26.544 43.056 26.448 43.056L26.592 43.104L26.736 42.816ZM36.5408 6.816V8.016V10.464C36.3487 10.624 36.2527 10.896 36.2527 11.28C36.2527 11.632 36.3487 12 36.5408 12.384V15.264V18V21.648V22.896C36.5408 24.08 36.5248 25.328 36.4928 26.64C36.4608 27.92 36.3488 29.04 36.1568 30V30.864C35.7408 31.344 35.3728 31.824 35.0528 32.304C34.7327 32.784 34.3967 33.232 34.0447 33.648C33.6927 34.032 33.3088 34.368 32.8927 34.656C32.4767 34.912 31.9647 35.088 31.3567 35.184C30.5567 35.632 29.7567 35.84 28.9567 35.808C28.1567 35.776 27.3567 35.456 26.5567 34.848C26.3327 34.656 26.1247 34.48 25.9327 34.32C25.7407 34.128 25.5327 34.032 25.3087 34.032C24.5087 33.424 23.9647 32.752 23.6767 32.016C23.4207 31.248 23.1647 30.464 22.9087 29.664C22.7167 29.024 22.6207 28.352 22.6207 27.648C22.6207 26.912 22.7167 26.24 22.9087 25.632V24.816C22.4927 24.464 22.4927 24.064 22.9087 23.616V23.232C22.7167 22.816 22.6207 22.48 22.6207 22.224C22.6207 21.968 22.7167 21.616 22.9087 21.168C23.0047 21.136 23.0687 21.072 23.1007 20.976C23.1647 20.784 23.1007 20.608 22.9087 20.448C22.9087 20.224 22.8447 20.016 22.7167 19.824C22.5887 19.6 22.5247 19.408 22.5247 19.248C22.5247 18.608 22.5407 18 22.5727 17.424C22.6047 16.848 22.7167 16.256 22.9087 15.648V14.784C22.9087 14.432 22.8927 14.032 22.8607 13.584C22.8287 13.136 22.7167 12.624 22.5247 12.048V11.616C22.7167 10.816 22.7647 10.096 22.6687 9.456C22.5727 8.784 22.5247 8.016 22.5247 7.152C22.5247 7.024 22.5887 6.928 22.7167 6.864C22.7807 6.832 22.8447 6.816 22.9087 6.816C22.7167 6.4 22.6687 5.856 22.7647 5.184C22.8607 4.48 22.9087 3.824 22.9087 3.216C22.9087 2.416 23.0847 1.888 23.4367 1.632C23.8207 1.376 24.3327 1.248 24.9727 1.248H25.7407C26.1567 1.44 26.4447 1.648 26.6047 1.872C26.7967 2.064 26.8927 2.384 26.8927 2.832V5.232C26.8927 5.616 26.9087 6 26.9407 6.384C26.9727 6.736 27.1007 6.992 27.3247 7.152C27.3247 7.6 27.2447 8.032 27.0847 8.448C26.9567 8.864 26.8927 9.248 26.8927 9.6C27.1167 10.432 27.1647 11.152 27.0367 11.76C26.9407 12.368 26.8927 12.992 26.8927 13.632C26.8927 14.464 26.9407 15.28 27.0367 16.08C27.1647 16.848 27.1167 17.632 26.8927 18.432V19.248C27.1167 19.856 27.1647 20.544 27.0367 21.312C26.9407 22.048 26.8927 22.816 26.8927 23.616V27.216C26.8927 27.664 26.9567 28.08 27.0847 28.464C27.2447 28.816 27.3247 29.216 27.3247 29.664L27.7087 30C27.9327 30 28.2207 30.096 28.5727 30.288C28.9247 30.448 29.3247 30.64 29.7727 30.864H30.1567C30.3167 30.64 30.4927 30.448 30.6847 30.288C30.9087 30.096 31.1327 30 31.3567 30C31.4207 30 31.4847 29.984 31.5487 29.952C31.6767 29.888 31.7407 29.792 31.7407 29.664C31.9647 29.024 32.0927 28.352 32.1247 27.648C32.1567 26.912 32.1727 26.24 32.1727 25.632V24.816V9.6C32.1727 9.408 32.2047 9.232 32.2687 9.072C32.3647 8.88 32.3328 8.656 32.1727 8.4V7.152V3.216C32.1727 2.416 32.4767 1.824 33.0848 1.44C33.7247 1.056 34.3487 0.991998 34.9568 1.248C35.1487 1.44 35.3247 1.568 35.4847 1.632C35.6767 1.696 35.9008 1.808 36.1568 1.968L36.3487 2.256C36.4767 2.448 36.5408 2.64 36.5408 2.832V5.568V6.816ZM32.1727 33.6V33.264V32.832C32.1727 33.056 32.1087 33.184 31.9808 33.216C31.8847 33.248 31.9487 33.264 32.1727 33.264V33.6ZM27.3247 32.448V32.016V32.448V32.832H27.7087C27.2927 33.632 27.6927 34.032 28.9087 34.032V33.6C29.1007 33.824 29.3087 33.952 29.5327 33.984C29.7567 34.016 29.9647 34.032 30.1567 34.032C30.1567 33.968 30.1407 33.904 30.1087 33.84C30.0127 33.68 29.9007 33.6 29.7727 33.6H30.1567H29.7727C29.7727 33.824 29.6767 33.888 29.4847 33.792C29.2927 33.664 29.1007 33.6 28.9087 33.6C28.7487 33.6 28.5087 33.568 28.1887 33.504C27.8687 33.44 27.7087 33.216 27.7087 32.832C27.6447 32.768 27.5807 32.72 27.5167 32.688C27.3887 32.624 27.3247 32.672 27.3247 32.832V32.448ZM34.0928 15.984H34.5248H34.0928ZM25.7407 31.68V32.016H26.1247C26.1247 31.856 26.1087 31.824 26.0767 31.92C26.0447 31.984 25.9327 32.016 25.7407 32.016V31.68ZM25.7407 4.8V5.232V4.8ZM34.5248 30.432H34.0928V30H34.5248H34.0928C34.0928 30.096 34.1087 30.176 34.1407 30.24C34.2047 30.368 34.3327 30.432 34.5248 30.432ZM34.0928 28.8V28.416C34.3168 28.416 34.4447 28.4 34.4767 28.368C34.5087 28.336 34.5248 28.24 34.5248 28.08H34.0928H34.5248V28.416L34.0928 28.8C33.9647 28.8 33.8687 28.736 33.8047 28.608C33.7727 28.544 33.7568 28.48 33.7568 28.416C33.7568 28.608 33.7727 28.72 33.8047 28.752C33.8368 28.784 33.9328 28.8 34.0928 28.8ZM25.3087 26.832H24.9727H25.3087ZM33.3247 12.816V13.2V12.816ZM34.5248 23.232V22.896V23.232ZM34.5248 19.248C34.5248 19.312 34.5408 19.376 34.5727 19.44C34.6048 19.536 34.7328 19.584 34.9568 19.584H34.5248V19.248ZM25.3087 19.248H24.9727H25.3087ZM34.0928 8.88L33.7568 9.216H34.0928C34.0287 9.216 33.9647 9.2 33.9007 9.168C33.8047 9.136 33.7568 9.04 33.7568 8.88H34.0928ZM34.9568 18.432L34.5248 18.816C34.5248 18.656 34.5888 18.544 34.7168 18.48C34.7807 18.448 34.8607 18.432 34.9568 18.432V18V18.432H34.5248L34.9568 18.816V19.248V18.816V18.432ZM24.5407 18V18.432V18ZM34.0928 3.216C33.9328 3.216 33.8368 3.232 33.8047 3.264C33.7727 3.296 33.7568 3.424 33.7568 3.648H34.0928V3.216ZM24.9727 20.016C24.7487 19.792 24.6047 19.664 24.5407 19.632C24.4767 19.6 24.3327 19.584 24.1087 19.584C24.3327 19.584 24.4767 19.664 24.5407 19.824C24.6047 19.952 24.7487 20.016 24.9727 20.016ZM34.0928 13.632V13.2V12.816C34.0287 12.816 33.9808 12.832 33.9488 12.864C33.8848 12.928 33.9328 13.04 34.0928 13.2V13.632ZM34.5248 11.232C34.5888 11.232 34.6368 11.216 34.6687 11.184C34.7327 11.12 34.6848 10.992 34.5248 10.8V11.232H34.0928C34.1568 11.168 34.2048 11.104 34.2367 11.04C34.3007 10.88 34.2527 10.8 34.0928 10.8C34.0928 11.024 34.1087 11.152 34.1407 11.184C34.1727 11.216 34.3008 11.232 34.5248 11.232ZM32.5088 32.448C32.7328 32.448 32.7808 32.4 32.6528 32.304C32.5568 32.176 32.5088 32.224 32.5088 32.448ZM32.1727 30.864H32.5088V30.432V30.864H32.1727ZM24.9727 30H24.5407H24.9727ZM24.1087 28.416H24.5407V28.08V28.416H24.1087ZM34.5248 24.816C34.7488 24.816 34.8767 24.8 34.9087 24.768C34.9408 24.736 34.9568 24.64 34.9568 24.48L34.5248 24.816ZM25.7407 30C25.5167 30 25.3887 30.016 25.3567 30.048C25.3247 30.08 25.3087 30.208 25.3087 30.432C25.3087 30.368 25.3247 30.304 25.3567 30.24C25.4207 30.08 25.5487 30 25.7407 30ZM33.7568 23.232V22.896V23.232ZM24.1087 24.048H24.5407H24.9727H24.5407H24.1087ZM31.7407 32.016V31.68V32.016ZM24.9727 21.168C24.9727 21.136 24.9567 21.088 24.9247 21.024C24.8607 20.896 24.7327 20.832 24.5407 20.832C24.5407 20.992 24.5567 21.088 24.5887 21.12C24.6207 21.152 24.7487 21.168 24.9727 21.168ZM25.3087 13.2V12.816V13.2ZM34.0928 27.216H34.5248H34.9568V27.648C35.1168 27.648 35.1648 27.584 35.1007 27.456C35.0688 27.392 35.0208 27.312 34.9568 27.216C34.9568 27.024 34.8768 26.896 34.7168 26.832C34.5888 26.768 34.5248 26.624 34.5248 26.4V26.832C34.3008 26.832 34.1727 26.848 34.1407 26.88C34.1087 26.912 34.0928 27.024 34.0928 27.216ZM25.3087 28.08V28.416C25.3727 28.416 25.4207 28.4 25.4527 28.368C25.4847 28.336 25.4367 28.24 25.3087 28.08ZM34.0928 11.616V12.048H34.5248V11.616H34.0928ZM34.5248 20.448H34.9568V20.016C34.7328 20.016 34.6048 20.032 34.5727 20.064C34.5408 20.096 34.5248 20.224 34.5248 20.448H34.0928H34.5248ZM34.5248 21.648C34.5248 21.84 34.5087 21.952 34.4767 21.984C34.4447 22.016 34.3168 22.032 34.0928 22.032C34.0928 22.096 34.1087 22.16 34.1407 22.224C34.2047 22.352 34.3327 22.416 34.5248 22.416H34.0928C34.0928 22.256 34.1568 22.144 34.2848 22.08C34.3487 22.048 34.4287 22.032 34.5248 22.032V21.648V22.032V21.648ZM34.5248 7.632C34.5888 7.568 34.6368 7.488 34.6687 7.392C34.7327 7.232 34.6848 7.152 34.5248 7.152V7.632ZM33.7568 25.632H34.0928H33.7568ZM25.7407 20.448H25.3087H25.7407ZM24.9727 27.648V27.216H24.5407C24.5407 27.44 24.5567 27.568 24.5887 27.6C24.6207 27.632 24.7487 27.648 24.9727 27.648ZM24.1087 17.664H24.5407V17.232C24.3487 17.232 24.2207 17.312 24.1567 17.472C24.1247 17.536 24.1087 17.6 24.1087 17.664ZM34.0928 6.432C33.9328 6.432 33.8208 6.384 33.7568 6.288C33.6927 6.16 33.5487 6.208 33.3247 6.432L33.7568 6.816C33.7568 6.624 33.7727 6.512 33.8047 6.48C33.8368 6.448 33.9328 6.432 34.0928 6.432ZM34.9568 30H35.3407L34.9568 29.664C34.8607 29.6 34.7807 29.552 34.7168 29.52C34.5888 29.456 34.5248 29.504 34.5248 29.664C34.7167 29.664 34.8447 29.728 34.9087 29.856C34.9408 29.92 34.9568 29.968 34.9568 30ZM24.5407 11.232H24.1087V11.616C24.3327 11.616 24.4607 11.6 24.4927 11.568C24.5247 11.536 24.5407 11.424 24.5407 11.232ZM34.5248 3.984C34.7488 3.984 34.8767 4 34.9087 4.032C34.9408 4.064 34.9568 4.192 34.9568 4.416C34.9568 4.192 34.9408 4.064 34.9087 4.032C34.8767 4 34.7488 3.984 34.5248 3.984C34.7488 3.824 34.8608 3.728 34.8608 3.696C34.8608 3.664 34.7488 3.648 34.5248 3.648V3.984ZM33.7568 8.016C33.9167 7.824 34.0127 7.696 34.0447 7.632C34.0767 7.568 34.0928 7.408 34.0928 7.152H33.7568V8.016C33.7887 8.016 33.8367 8.032 33.9007 8.064C34.0287 8.128 34.0928 8.24 34.0928 8.4C34.0287 8.336 33.9647 8.288 33.9007 8.256C33.8047 8.224 33.7568 8.272 33.7568 8.4H34.0928H34.5248C34.7488 8.4 34.8608 8.336 34.8608 8.208C34.8608 8.08 34.7488 8.016 34.5248 8.016H34.0928H33.7568ZM33.3247 31.68C33.5168 31.68 33.6448 31.616 33.7087 31.488C33.7407 31.424 33.7568 31.344 33.7568 31.248C33.6608 31.248 33.5808 31.264 33.5168 31.296C33.3888 31.36 33.3247 31.488 33.3247 31.68ZM34.0928 24.48H33.7568C33.7568 24.64 33.8047 24.752 33.9007 24.816C34.0287 24.88 34.0928 25.024 34.0928 25.248V24.48ZM30.4927 32.832V33.264V32.832ZM25.3087 3.984H24.9727V4.416C25.1327 4.416 25.2287 4.4 25.2607 4.368C25.2927 4.336 25.3087 4.208 25.3087 3.984ZM25.3087 3.648H24.9727H25.3087ZM30.4927 33.6H30.9248V33.264C30.7007 33.264 30.5727 33.28 30.5408 33.312C30.5087 33.344 30.4927 33.44 30.4927 33.6ZM24.5407 26.4V26.064C24.3167 26.064 24.2047 26.128 24.2047 26.256C24.2047 26.352 24.3167 26.4 24.5407 26.4ZM24.5407 16.848H24.9727V16.416C24.9727 16.64 24.9567 16.768 24.9247 16.8C24.8927 16.832 24.7647 16.848 24.5407 16.848ZM24.1087 5.568H24.5407H24.1087ZM31.3567 32.016C31.1327 32.016 31.0047 31.968 30.9727 31.872C30.9407 31.808 30.9248 31.744 30.9248 31.68V32.016H31.3567ZM30.4927 31.68V32.016V31.68ZM25.3087 30V29.664C25.1487 29.664 25.0527 29.68 25.0207 29.712C24.9887 29.744 24.9727 29.84 24.9727 30H25.3087ZM33.7568 22.032H33.3247H33.7568ZM24.9727 10.464V10.032V10.464ZM24.1087 10.8H23.7247H24.1087ZM29.2927 33.264V32.832V33.264ZM30.9248 31.68V31.248C30.7007 31.248 30.5727 31.264 30.5408 31.296C30.5087 31.328 30.4927 31.456 30.4927 31.68H30.9248ZM26.8927 30.864H26.5567L26.8927 31.248V30.864ZM24.5407 7.632H24.9727H24.5407ZM32.1727 31.68H32.5088H32.1727ZM25.3087 31.68V32.016V31.68ZM26.8927 32.448H26.5567H26.8927ZM24.9727 6.432H24.5407H24.9727ZM24.5407 8.4H24.9727H24.5407ZM34.5248 12.384H34.9568H34.5248ZM34.0928 14.064V14.4V14.064ZM33.7568 18.432H34.0928H33.7568ZM24.5407 25.248V25.632V25.248ZM25.3087 15.984V16.416V15.984ZM50.6805 9.696C50.6805 10.112 50.7605 10.512 50.9205 10.896C51.1125 11.28 51.3045 11.68 51.4965 12.096C51.6885 12.48 51.8805 12.816 52.0725 13.104C52.2965 13.36 52.5045 13.664 52.6965 14.016C52.8565 14.24 53.0325 14.512 53.2245 14.832C53.4485 15.152 53.6565 15.424 53.8485 15.648C54.4565 16 54.8885 16.4 55.1445 16.848C55.4325 17.264 55.7845 17.776 56.2005 18.384C56.6165 18.608 56.9525 18.88 57.2085 19.2C57.4645 19.488 57.7845 19.744 58.1685 19.968C58.5845 20.736 58.9045 21.456 59.1285 22.128C59.3525 22.768 59.5605 23.472 59.7525 24.24C60.1685 25.264 60.3445 26.256 60.2805 27.216C60.2165 28.144 60.1845 28.992 60.1845 29.76C60.1845 30.784 59.9925 31.696 59.6085 32.496C59.2565 33.264 58.7765 33.952 58.1685 34.56C57.7845 34.912 57.3205 35.136 56.7765 35.232C56.2645 35.328 55.8005 35.488 55.3845 35.712H54.2325C53.8485 36.096 53.4485 36.096 53.0325 35.712H52.3125H51.4965C51.3045 35.488 51.1765 35.36 51.1125 35.328C51.0485 35.296 50.9045 35.28 50.6805 35.28H49.9605C48.7445 34.576 47.9285 33.664 47.5125 32.544C47.3525 32.16 47.1285 31.76 46.8405 31.344C46.5845 30.896 46.5685 30.368 46.7925 29.76C46.5685 29.568 46.4405 29.392 46.4085 29.232C46.3765 29.04 46.3605 28.832 46.3605 28.608C46.3605 28.416 46.3125 28.16 46.2165 27.84C46.1205 27.488 46.1685 27.216 46.3605 27.024C46.5845 27.024 46.7125 27.008 46.7445 26.976C46.7765 26.944 46.7925 26.848 46.7925 26.688C46.7925 26.272 46.9205 26.016 47.1765 25.92C47.4645 25.824 47.7205 25.68 47.9445 25.488C48.3285 25.488 48.6965 25.504 49.0485 25.536C49.4325 25.568 49.7365 25.68 49.9605 25.872C50.0885 26.032 50.1845 26.224 50.2485 26.448C50.2805 26.544 50.2965 26.624 50.2965 26.688C50.2965 27.264 50.4245 27.856 50.6805 28.464C50.9685 29.04 51.1125 29.616 51.1125 30.192V30.576C51.4965 30.768 51.8805 31.008 52.2645 31.296C52.6805 31.552 53.0805 31.584 53.4645 31.392H54.2325C54.4565 31.168 54.6645 30.96 54.8565 30.768C55.0485 30.576 55.2245 30.384 55.3845 30.192C55.6085 29.968 55.8005 29.728 55.9605 29.472C56.1205 29.216 56.2005 28.8 56.2005 28.224C56.0085 27.232 55.7685 26.256 55.4805 25.296C55.2245 24.336 54.8085 23.472 54.2325 22.704C54.0405 22.416 53.8325 22.176 53.6085 21.984C53.3845 21.76 53.1605 21.552 52.9365 21.36C52.7125 21.168 52.5045 20.96 52.3125 20.736C52.1205 20.512 51.9765 20.256 51.8805 19.968C51.4965 19.968 51.1925 19.824 50.9685 19.536C50.7765 19.216 50.6805 18.976 50.6805 18.816C50.3285 18.592 50.1045 18.368 50.0085 18.144C49.9125 17.92 49.7525 17.6 49.5285 17.184C48.9205 16.768 48.4725 16.288 48.1845 15.744C47.8965 15.2 47.5605 14.624 47.1765 14.016C46.9845 13.664 46.8725 13.232 46.8405 12.72C46.8085 12.176 46.7925 11.696 46.7925 11.28C46.7925 10.896 46.7765 10.496 46.7445 10.08C46.7125 9.632 46.5845 9.104 46.3605 8.496V8.112C46.5845 7.728 46.7285 7.28 46.7925 6.768C46.8565 6.224 46.9845 5.776 47.1765 5.424C47.1765 4.816 47.3365 4.304 47.6565 3.888C47.9765 3.44 48.3285 3.008 48.7125 2.592C49.3525 2.016 50.0405 1.616 50.7765 1.392C51.5125 1.168 52.2645 1.056 53.0325 1.056H54.2325C54.2325 1.248 54.2485 1.36 54.2805 1.392C54.3125 1.424 54.4405 1.44 54.6645 1.44C55.2405 1.248 55.8005 1.232 56.3445 1.392C56.9205 1.552 57.4165 1.84 57.8325 2.256C58.4085 2.832 58.8725 3.44 59.2245 4.08C59.5765 4.688 59.7525 5.376 59.7525 6.144C59.9765 6.368 60.1045 6.64 60.1365 6.96C60.1685 7.28 60.1845 7.552 60.1845 7.776V8.928C60.1845 9.12 60.0885 9.312 59.8965 9.504C59.7365 9.696 59.5605 9.904 59.3685 10.128C58.9525 10.32 58.5525 10.368 58.1685 10.272C57.8165 10.176 57.4325 10.128 57.0165 10.128C56.8245 10.128 56.6965 10.064 56.6325 9.936C56.6005 9.872 56.5845 9.792 56.5845 9.696C56.3925 9.312 56.2325 8.992 56.1045 8.736C55.9765 8.448 56.0085 8.128 56.2005 7.776V7.344C56.0085 7.152 55.7845 6.896 55.5285 6.576C55.3045 6.224 55.0165 5.952 54.6645 5.76C54.6645 5.664 54.5845 5.568 54.4245 5.472C54.3605 5.44 54.2965 5.424 54.2325 5.424C53.8485 5.424 53.5445 5.392 53.3205 5.328C53.1285 5.264 53.0325 5.024 53.0325 4.608C52.9685 4.608 52.9205 4.624 52.8885 4.656C52.8245 4.72 52.8725 4.832 53.0325 4.992C53.0325 5.216 53.0165 5.36 52.9845 5.424C52.9525 5.488 52.8565 5.6 52.6965 5.76C51.8965 6.176 51.3685 6.672 51.1125 7.248C50.8885 7.792 50.8885 8.352 51.1125 8.928V9.312C51.1125 9.472 51.0325 9.584 50.8725 9.648C50.8085 9.68 50.7445 9.696 50.6805 9.696ZM51.1125 34.128V33.744V34.128ZM49.9605 15.984H50.2965V15.648V15.984H49.9605ZM50.2965 31.776V32.112V31.776ZM47.9445 30.576H48.3285H47.9445ZM50.2965 5.424V5.76H50.6805V5.424H50.2965ZM48.3285 27.024V27.408V27.024ZM57.0165 6.144V6.576V6.144ZM55.8165 22.704V23.088V22.704ZM48.3285 8.112V8.496V8.112ZM56.5845 20.736H56.2005H56.5845ZM54.2325 19.968H53.8485V19.536H54.2325H53.8485V19.152C53.9125 19.088 53.9605 19.008 53.9925 18.912C54.0565 18.752 54.0085 18.576 53.8485 18.384V18H54.2325H53.8485V18.384L53.4645 18.816V18.384V18.816V19.152H53.8485C53.8485 19.344 53.8325 19.472 53.8005 19.536C53.7685 19.6 53.6565 19.744 53.4645 19.968H53.8485H54.2325ZM51.4965 3.792H51.8805V3.408V2.976C51.7205 2.976 51.6085 3.056 51.5445 3.216C51.5125 3.28 51.4965 3.344 51.4965 3.408V3.792V4.224V3.792ZM57.0165 3.408C57.2085 3.408 57.2565 3.424 57.1605 3.456C57.0645 3.488 57.0165 3.6 57.0165 3.792V3.408ZM56.2005 3.792L55.8165 3.408V3.792V3.408C55.8805 3.408 55.9445 3.424 56.0085 3.456C56.1365 3.52 56.2005 3.632 56.2005 3.792ZM54.2325 2.976H54.6645L55.0485 2.592H54.6645V2.976H54.2325C54.2965 3.072 54.3445 3.152 54.3765 3.216C54.4405 3.344 54.3925 3.408 54.2325 3.408H54.6645H54.2325V2.976ZM53.0325 2.592V2.256H52.6965H53.0325V2.592H52.6965H52.3125C52.4725 2.752 52.5845 2.8 52.6485 2.736C52.6805 2.704 52.6965 2.656 52.6965 2.592H53.0325ZM53.4645 16.8C53.4645 16.64 53.3845 16.592 53.2245 16.656C53.1605 16.688 53.0965 16.736 53.0325 16.8C53.0325 16.608 52.9685 16.48 52.8405 16.416C52.7765 16.384 52.7285 16.368 52.6965 16.368H52.3125C52.3125 16.56 52.3765 16.688 52.5045 16.752C52.5685 16.784 52.6325 16.8 52.6965 16.8H53.0325H53.4645ZM50.6805 15.984C50.9045 15.984 51.0165 15.968 51.0165 15.936C51.0165 15.904 50.9045 15.808 50.6805 15.648V15.216V15.648V15.984ZM49.5285 12.864H49.9605H49.5285ZM58.9845 7.344V7.776C58.9845 7.616 58.9045 7.488 58.7445 7.392C58.6805 7.36 58.6165 7.344 58.5525 7.344H58.9845ZM53.8485 33.36H53.4645H53.8485ZM53.8485 3.408L54.2325 3.792L53.8485 3.408ZM48.3285 8.928H47.9445H48.3285ZM56.5845 23.904V24.24C56.7445 24.112 56.7925 24.016 56.7285 23.952C56.6965 23.92 56.6485 23.904 56.5845 23.904ZM57.8325 7.776V7.344V7.776ZM55.8165 20.352L55.3845 20.736C55.4485 20.736 55.5125 20.752 55.5765 20.784C55.7365 20.88 55.8165 21.008 55.8165 21.168L55.3845 20.736C55.4485 20.736 55.5125 20.72 55.5765 20.688C55.7365 20.624 55.8165 20.512 55.8165 20.352ZM50.2965 4.992V4.608V4.992ZM57.4005 8.496C57.4645 8.56 57.5285 8.608 57.5925 8.64C57.7525 8.736 57.8325 8.688 57.8325 8.496H57.4005ZM49.1445 8.496V8.112V8.496ZM58.5525 25.488C58.3605 25.488 58.2485 25.44 58.2165 25.344C58.1845 25.216 58.1685 25.264 58.1685 25.488H58.5525ZM49.9605 32.928H49.5285H49.9605ZM49.1445 3.792C49.2725 3.792 49.3845 3.872 49.4805 4.032C49.5125 4.096 49.5285 4.16 49.5285 4.224V3.792H49.1445ZM50.6805 13.632C50.7445 13.696 50.8085 13.744 50.8725 13.776C51.0325 13.872 51.1125 13.824 51.1125 13.632H50.6805ZM49.9605 3.792H50.2965H49.9605V4.224V3.792ZM48.3285 7.776V7.344C48.3285 7.152 48.4085 7.024 48.5685 6.96C48.7285 6.896 48.9205 6.768 49.1445 6.576C49.3365 6.576 49.4485 6.624 49.4805 6.72C49.5125 6.816 49.5285 6.768 49.5285 6.576L49.1445 6.144C48.9525 6.336 48.8245 6.384 48.7605 6.288C48.7285 6.256 48.7125 6.208 48.7125 6.144C48.5205 6.144 48.4085 6.096 48.3765 6C48.3445 5.904 48.3285 5.952 48.3285 6.144H48.7125V6.576C48.5205 6.768 48.4085 6.896 48.3765 6.96C48.3445 7.024 48.3285 7.152 48.3285 7.344H47.9445C47.9445 7.536 48.0085 7.664 48.1365 7.728C48.2005 7.76 48.2645 7.776 48.3285 7.776ZM54.6645 34.128H54.2325H54.6645ZM57.4005 21.504H57.0165V21.888H57.4005V21.504ZM49.1445 30.192H48.7125V30.576C48.9365 30.576 49.0805 30.624 49.1445 30.72C49.2085 30.816 49.3365 30.768 49.5285 30.576C49.3685 30.576 49.2565 30.512 49.1925 30.384C49.1605 30.32 49.1445 30.256 49.1445 30.192ZM51.8805 17.568V17.184C51.7205 17.184 51.6085 17.248 51.5445 17.376C51.5125 17.44 51.4965 17.504 51.4965 17.568H51.8805ZM52.6965 18V17.568C52.5045 17.568 52.4085 17.648 52.4085 17.808C52.4085 17.936 52.5045 18 52.6965 18ZM49.1445 10.128V10.512V10.128ZM55.8165 4.608V4.992V4.608ZM50.2965 14.448V14.832V14.448ZM49.9605 14.448H49.5285C49.6885 14.64 49.8165 14.688 49.9125 14.592C49.9445 14.56 49.9605 14.512 49.9605 14.448ZM50.2965 12.48V12.864V12.48ZM58.1685 30.96V31.392V30.96ZM57.8325 27.024H58.1685C58.1685 26.864 58.1525 26.768 58.1205 26.736C58.0885 26.704 57.9925 26.688 57.8325 26.688V27.024ZM55.0485 32.928V32.544H54.6645V32.928H55.0485ZM49.1445 14.016H48.7125H49.1445ZM54.2325 2.592H53.8485V2.976L54.2325 2.592ZM52.6965 3.408H52.3125H52.6965ZM49.1445 28.608V29.04V28.608ZM57.4005 4.224V3.792V4.224ZM58.9845 27.408H58.5525C58.5525 27.504 58.5685 27.584 58.6005 27.648C58.6645 27.776 58.7925 27.84 58.9845 27.84V27.408ZM57.4005 6.576V6.144V6.576ZM57.4005 25.056C57.6245 25.056 57.7525 25.04 57.7845 25.008C57.8165 24.976 57.8325 24.864 57.8325 24.672H57.4005V25.056ZM51.8805 14.832H51.4965C51.4965 15.024 51.5605 15.12 51.6885 15.12C51.8165 15.12 51.8805 15.024 51.8805 14.832ZM56.5845 22.32H56.2005H56.5845ZM58.1685 6.576V6.96V6.576ZM54.2325 18.384H54.6645H54.2325ZM55.0485 19.536V19.152V19.536ZM71.7829 1.056C72.1669 1.248 72.5509 1.312 72.9349 1.248C73.3189 1.184 73.7029 1.248 74.0869 1.44C74.3109 1.44 74.5029 1.376 74.6629 1.248C74.8549 1.12 75.0629 1.056 75.2869 1.056C75.6709 1.056 75.9589 1.12 76.1509 1.248C76.3749 1.376 76.5989 1.44 76.8229 1.44C77.0149 1.44 77.2709 1.376 77.5909 1.248C77.9429 1.12 78.2149 1.056 78.4069 1.056C78.7909 1.056 79.1749 1.12 79.5589 1.248C79.9429 1.376 80.3269 1.44 80.7109 1.44C80.9349 1.632 81.1109 1.76 81.2389 1.824C81.3989 1.888 81.4789 2.032 81.4789 2.256C81.7029 2.448 81.8309 2.656 81.8629 2.88C81.8949 3.104 81.9109 3.424 81.9109 3.84C81.9109 4.032 81.8949 4.224 81.8629 4.416C81.8309 4.608 81.7029 4.8 81.4789 4.992C81.3189 5.184 81.1109 5.36 80.8549 5.52C80.6309 5.68 80.3269 5.76 79.9429 5.76C79.5589 5.76 79.2389 5.824 78.9829 5.952C78.7589 6.08 78.4389 6.144 78.0229 6.144C77.7989 6.336 77.5909 6.544 77.3989 6.768C77.2069 6.992 77.0149 7.312 76.8229 7.728V10.032V16.272V19.728V26.784V32.64C76.8229 33.024 76.8069 33.488 76.7749 34.032C76.7429 34.544 76.6149 34.992 76.3909 35.376C76.0069 35.76 75.4949 35.952 74.8549 35.952C74.2149 35.952 73.7029 35.76 73.3189 35.376C72.9349 34.992 72.7749 34.592 72.8389 34.176C72.9349 33.76 72.9829 33.248 72.9829 32.64C72.7589 32.064 72.6789 31.392 72.7429 30.624C72.8389 29.856 72.7749 29.088 72.5509 28.32C72.5509 27.936 72.5669 27.536 72.5989 27.12C72.6309 26.704 72.7589 26.192 72.9829 25.584C72.9829 25.392 72.9669 25.264 72.9349 25.2C72.9029 25.136 72.7749 24.992 72.5509 24.768C72.3269 24.224 72.2789 23.744 72.4069 23.328C72.5669 22.912 72.7589 22.512 72.9829 22.128V21.696C72.7589 21.504 72.6309 21.312 72.5989 21.12C72.5989 20.928 72.6149 20.72 72.6469 20.496C72.7109 20.272 72.7749 20.032 72.8389 19.776C72.9349 19.52 72.9829 19.248 72.9829 18.96C72.7589 18.8 72.6309 18.544 72.5989 18.192C72.5669 17.84 72.5509 17.472 72.5509 17.088C72.7749 16.288 72.8229 15.568 72.6949 14.928C72.5989 14.288 72.5509 13.584 72.5509 12.816C72.5509 12.592 72.6149 12.368 72.7429 12.144C72.9029 11.92 72.9829 11.616 72.9829 11.232C72.7589 10.624 72.6309 10.032 72.5989 9.456C72.5669 8.88 72.5509 8.304 72.5509 7.728C72.5509 7.12 72.3749 6.704 72.0229 6.48C71.6709 6.256 71.1749 6.144 70.5349 6.144C70.1509 6.144 69.8309 6.08 69.5749 5.952C69.3509 5.824 69.0469 5.76 68.6629 5.76C68.4389 5.568 68.2469 5.376 68.0869 5.184C67.9589 4.992 67.8949 4.8 67.8949 4.608C67.6709 4 67.6389 3.472 67.7989 3.024C67.9909 2.576 68.2789 2.048 68.6629 1.44C68.8229 1.248 68.9989 1.136 69.1909 1.104C69.4149 1.072 69.6069 1.056 69.7669 1.056H71.7829ZM71.7829 4.224V4.608V4.992V4.608V4.224ZM72.5509 4.992V4.608V4.224C72.3909 4.224 72.3429 4.288 72.4069 4.416C72.4389 4.48 72.4869 4.544 72.5509 4.608V4.992ZM74.8549 27.216H75.2869H74.8549V26.784V26.4C74.7269 26.4 74.6309 26.464 74.5669 26.592C74.5349 26.656 74.5189 26.72 74.5189 26.784C74.5189 27.008 74.5349 27.136 74.5669 27.168C74.5989 27.2 74.6949 27.216 74.8549 27.216ZM74.8549 15.12V14.736V15.12ZM74.8549 8.112C74.7909 8.112 74.7269 8.128 74.6629 8.16C74.5669 8.224 74.5189 8.336 74.5189 8.496C74.4229 8.432 74.3429 8.384 74.2789 8.352C74.1509 8.288 74.0869 8.336 74.0869 8.496C73.9269 8.496 73.8629 8.48 73.8949 8.448C73.9589 8.416 73.9109 8.304 73.7509 8.112V8.496V8.88V9.264V8.88C73.9109 8.88 74.0549 8.864 74.1829 8.832C74.3429 8.8 74.3109 8.688 74.0869 8.496H74.5189C74.5189 8.336 74.5669 8.224 74.6629 8.16C74.7269 8.128 74.7909 8.112 74.8549 8.112ZM73.7509 14.736H74.0869H73.7509ZM75.2869 10.032H74.8549V10.416V10.032H75.2869V9.648V10.032ZM75.2869 18.24V18.624H75.6229H75.2869V18.24ZM75.2869 3.84V3.408C75.4469 3.408 75.5429 3.392 75.5749 3.36C75.6069 3.328 75.6229 3.216 75.6229 3.024C75.4949 3.024 75.3989 3.088 75.3349 3.216C75.3029 3.28 75.2869 3.344 75.2869 3.408C75.2869 3.632 75.2069 3.712 75.0469 3.648C74.9189 3.552 74.8549 3.616 74.8549 3.84C74.9189 3.84 74.9829 3.824 75.0469 3.792C75.2069 3.728 75.2869 3.6 75.2869 3.408V3.84ZM74.5189 3.408V3.84V4.224V3.84V3.408ZM72.9829 2.64H72.5509H72.9829ZM74.8549 21.696H75.2869C75.2869 21.792 75.3029 21.872 75.3349 21.936C75.3989 22.064 75.4949 22.128 75.6229 22.128C75.6229 21.936 75.5589 21.808 75.4309 21.744C75.3669 21.712 75.3189 21.696 75.2869 21.696H74.8549ZM74.0869 18.96H74.5189H74.0869ZM69.4309 3.408V3.84C69.4309 3.904 69.4469 3.952 69.4789 3.984C69.5109 4.048 69.6069 4 69.7669 3.84H69.4309V3.408ZM75.2869 22.896H74.8549H75.2869V23.232L75.6229 23.664V23.232C75.6229 23.072 75.6069 22.976 75.5749 22.944C75.5429 22.912 75.4469 22.896 75.2869 22.896ZM78.0229 4.608H78.4069H78.0229ZM75.2869 4.992H75.6229C75.6229 5.152 75.6869 5.264 75.8149 5.328C75.8789 5.36 75.9589 5.376 76.0549 5.376C76.1189 5.312 76.1669 5.248 76.1989 5.184C76.2629 5.056 76.2149 4.992 76.0549 4.992H75.6229C75.6229 4.928 75.6069 4.864 75.5749 4.8C75.5109 4.672 75.4149 4.608 75.2869 4.608V4.992ZM73.7509 25.2H74.0869H73.7509ZM73.7509 13.968C73.9109 14.16 74.0069 14.256 74.0389 14.256C74.0709 14.256 74.0869 14.16 74.0869 13.968H73.7509ZM74.5189 15.504C74.4229 15.504 74.3429 15.52 74.2789 15.552C74.1509 15.616 74.0869 15.728 74.0869 15.888C74.0869 15.728 74.1509 15.616 74.2789 15.552C74.3429 15.52 74.4229 15.504 74.5189 15.504ZM75.2869 20.928V21.312H75.6229C75.6229 21.152 75.5589 21.04 75.4309 20.976C75.3669 20.944 75.3189 20.928 75.2869 20.928ZM75.2869 31.824H75.6229C75.6229 31.696 75.5589 31.6 75.4309 31.536C75.3669 31.504 75.3189 31.488 75.2869 31.488V31.824ZM70.9669 4.608V4.224H70.5349C70.5989 4.224 70.6629 4.24 70.7269 4.272C70.8869 4.368 70.9669 4.48 70.9669 4.608H71.3509H70.9669ZM74.8549 17.088V16.656H74.5189C74.6149 16.656 74.7109 16.736 74.8069 16.896C74.8389 16.96 74.8549 17.024 74.8549 17.088ZM73.7509 28.32H74.5189C74.5189 28.288 74.5029 28.24 74.4709 28.176C74.4069 28.048 74.2789 27.984 74.0869 27.984C74.3109 27.984 74.4389 27.968 74.4709 27.936C74.5029 27.904 74.5189 27.776 74.5189 27.552C74.5189 27.648 74.5029 27.728 74.4709 27.792C74.4069 27.92 74.2789 27.984 74.0869 27.984C74.0869 28.048 74.0709 28.112 74.0389 28.176C73.9749 28.272 73.8789 28.32 73.7509 28.32V28.752V28.32ZM78.4069 4.224H78.8389V3.84C78.6469 3.84 78.5189 3.904 78.4549 4.032C78.4229 4.096 78.4069 4.16 78.4069 4.224ZM79.1749 4.608H79.6069V4.224C79.6069 4.288 79.5909 4.352 79.5589 4.416C79.4949 4.544 79.3669 4.608 79.1749 4.608ZM72.5509 3.84C72.7749 4.032 72.9029 4.128 72.9349 4.128C72.9669 4.128 72.9829 4.032 72.9829 3.84C72.7589 3.616 72.6309 3.504 72.5989 3.504C72.5669 3.504 72.5509 3.616 72.5509 3.84ZM75.6229 29.52V29.088H75.2869C75.0629 29.312 74.9989 29.456 75.0949 29.52C75.2229 29.584 75.2869 29.696 75.2869 29.856H74.5189C74.2949 30.08 74.2149 30.288 74.2789 30.48C74.3749 30.64 74.3109 30.832 74.0869 31.056H74.5189C74.6789 31.056 74.7109 30.976 74.6149 30.816C74.5509 30.624 74.5189 30.448 74.5189 30.288H74.8549C75.0469 30.288 75.1749 30.224 75.2389 30.096C75.2709 30.032 75.2869 29.952 75.2869 29.856H75.6229V29.52ZM74.5189 26.016H74.0869V26.4C74.0869 26.24 74.1509 26.128 74.2789 26.064C74.3429 26.032 74.4229 26.016 74.5189 26.016C74.6789 26.016 74.7749 26 74.8069 25.968C74.8389 25.936 74.8549 25.808 74.8549 25.584L74.5189 26.016ZM74.0869 6.144C73.9269 5.952 73.8309 5.856 73.7989 5.856C73.7669 5.856 73.7509 5.952 73.7509 6.144H74.0869ZM73.3189 3.84H73.7509C73.7509 3.744 73.7189 3.648 73.6549 3.552C73.6229 3.424 73.5749 3.328 73.5109 3.264C73.4469 3.168 73.3829 3.088 73.3189 3.024V3.84ZM77.2069 4.608C77.0149 4.608 76.9029 4.688 76.8709 4.848C76.8389 5.008 76.8229 5.184 76.8229 5.376C76.8229 5.184 76.9349 5.056 77.1589 4.992C77.3829 4.928 77.3989 4.8 77.2069 4.608H77.5909C77.5909 4.544 77.5749 4.48 77.5429 4.416C77.4789 4.288 77.3669 4.224 77.2069 4.224V4.608ZM73.3189 4.608V5.376H73.7509H73.3189C73.3829 5.312 73.4309 5.232 73.4629 5.136C73.5269 4.944 73.4789 4.768 73.3189 4.608H72.9829H73.3189ZM74.5189 22.896V22.464H74.0869C74.0869 22.688 74.0709 22.832 74.0389 22.896C74.0069 22.96 73.9109 23.072 73.7509 23.232H74.0869L74.5189 22.896ZM74.8549 9.264H75.2869V8.88C75.0629 9.072 74.8709 9.136 74.7109 9.072C74.5829 9.008 74.5189 9.072 74.5189 9.264H74.8549ZM72.5509 3.024C72.3269 3.024 72.1989 3.04 72.1669 3.072C72.1349 3.104 72.1189 3.216 72.1189 3.408C72.3429 3.408 72.4709 3.392 72.5029 3.36C72.5349 3.328 72.5509 3.216 72.5509 3.024ZM70.5349 3.024C70.5349 2.832 70.5189 2.72 70.4869 2.688C70.4549 2.656 70.3589 2.64 70.1989 2.64V3.024H70.5349ZM74.0869 3.024H73.7509V3.408C73.9109 3.408 74.0069 3.392 74.0389 3.36C74.0709 3.328 74.0869 3.216 74.0869 3.024ZM74.0869 17.424V17.856V17.424ZM78.0229 3.84V3.408V3.84ZM74.5189 6.144C74.5189 5.984 74.5669 5.872 74.6629 5.808C74.7269 5.776 74.7909 5.76 74.8549 5.76H74.5189V6.144ZM73.7509 7.296V6.912V7.296ZM79.1749 3.024V2.64C79.0149 2.64 78.9189 2.656 78.8869 2.688C78.8549 2.72 78.8389 2.832 78.8389 3.024H79.1749ZM74.5189 10.8H74.8549H74.5189ZM74.0869 9.648H73.7509H74.0869ZM74.0869 24.432H73.7509H74.0869ZM75.6229 4.224H76.0549H75.6229ZM75.2869 13.968H74.8549H75.2869ZM74.8549 24.432V24V24.432ZM74.8549 33.072H74.5189H74.8549ZM75.2869 5.76H75.6229H75.2869ZM89.6591 30.432V27.744V24.96V20.64V16.368V13.248V7.344V5.376C89.8191 5.184 89.8511 4.912 89.7551 4.56C89.6911 4.208 89.6591 3.84 89.6591 3.456C89.6591 3.232 89.6751 2.96 89.7071 2.64C89.7391 2.32 89.8351 2.064 89.9951 1.872C90.4431 1.648 90.7631 1.472 90.9551 1.344C91.1791 1.184 91.4031 1.104 91.6271 1.104H95.8991C96.8911 1.104 97.7871 1.216 98.5871 1.44C99.4191 1.632 100.235 2.032 101.035 2.64C101.579 3.056 102.043 3.488 102.427 3.936C102.843 4.384 103.147 4.992 103.339 5.76C103.531 6.176 103.659 6.672 103.723 7.248C103.787 7.792 103.931 8.352 104.155 8.928V10.464C103.931 10.688 103.803 10.832 103.771 10.896C103.739 10.96 103.723 11.072 103.723 11.232C104.139 11.648 104.139 12.048 103.723 12.432V13.248V13.584C103.531 14.192 103.339 14.88 103.147 15.648C102.955 16.384 102.763 17.152 102.571 17.952H102.139C101.755 18.112 101.515 18.368 101.419 18.72C101.323 19.072 101.195 19.456 101.035 19.872C100.811 19.872 100.699 19.952 100.699 20.112C100.699 20.272 100.811 20.448 101.035 20.64C101.195 21.632 101.387 22.624 101.611 23.616C101.867 24.608 102.187 25.584 102.571 26.544C102.571 27.152 102.651 27.76 102.811 28.368C102.971 28.976 103.147 29.664 103.339 30.432C103.531 31.04 103.723 31.632 103.915 32.208C104.139 32.784 104.331 33.376 104.491 33.984C104.715 34.368 104.683 34.752 104.395 35.136C104.107 35.488 103.755 35.744 103.339 35.904C102.731 35.904 102.107 35.792 101.467 35.568C100.827 35.312 100.411 34.784 100.219 33.984C100.027 33.76 99.9151 33.488 99.8831 33.168C99.8511 32.848 99.8351 32.608 99.8351 32.448C99.8351 32.224 99.8191 32.032 99.7871 31.872C99.7551 31.712 99.6431 31.632 99.4511 31.632C99.2271 31.632 99.0991 31.552 99.0671 31.392C99.0351 31.232 99.0191 31.056 99.0191 30.864C99.0191 30.48 98.9551 30.112 98.8271 29.76C98.7311 29.376 98.6831 29.088 98.6831 28.896C98.4591 28.32 98.3151 27.824 98.2511 27.408C98.1871 26.96 98.0591 26.544 97.8671 26.16C97.6751 25.936 97.5631 25.744 97.5311 25.584C97.4991 25.392 97.4831 25.184 97.4831 24.96C97.4831 24.352 97.3871 23.776 97.1951 23.232C97.0031 22.688 96.7151 22.224 96.3311 21.84C96.3311 21.328 95.9311 21.072 95.1311 21.072C94.7151 21.072 94.4591 21.168 94.3631 21.36C94.2671 21.52 94.1391 21.824 93.9791 22.272C93.9791 22.656 93.9151 22.976 93.7871 23.232C93.6911 23.488 93.7551 23.808 93.9791 24.192C93.9791 24.576 93.8991 24.896 93.7391 25.152C93.6111 25.376 93.5471 25.568 93.5471 25.728C93.5471 26.528 93.6111 27.264 93.7391 27.936C93.8991 28.576 93.9791 29.296 93.9791 30.096V31.248C93.7551 31.44 93.6431 31.728 93.6431 32.112C93.6431 32.464 93.7551 32.832 93.9791 33.216V33.984C93.7551 34.784 93.4191 35.344 92.9711 35.664C92.5231 35.984 91.8191 35.952 90.8591 35.568C90.6351 35.568 90.3791 35.408 90.0911 35.088C89.8031 34.736 89.6591 34.368 89.6591 33.984V30.432ZM91.6271 33.216H91.1951C91.1951 32.992 91.1791 32.864 91.1471 32.832C91.1151 32.8 91.0191 32.784 90.8591 32.784V33.216H91.1951H91.6271ZM101.035 32.448H101.371C101.371 32.608 101.387 32.704 101.419 32.736C101.451 32.768 101.579 32.784 101.803 32.784H101.371H101.803C101.579 32.784 101.451 32.736 101.419 32.64C101.387 32.576 101.371 32.512 101.371 32.448H101.803H101.371H101.035ZM92.7791 11.232V10.896V11.232ZM100.219 4.56H99.8351H100.219V4.992L100.603 4.56H100.219ZM91.6271 31.248V30.864C91.6271 30.704 91.5471 30.656 91.3871 30.72C91.3231 30.752 91.2591 30.8 91.1951 30.864V30.096H90.8591H91.1951V30.864H91.6271V31.248ZM101.803 30.864V30.432V30.864V31.248C101.963 31.248 102.059 31.232 102.091 31.2C102.123 31.168 102.139 31.056 102.139 30.864H101.803ZM91.6271 27.312H91.1951H91.6271ZM100.219 26.928H99.8351L100.219 26.544L100.603 26.928V26.544L100.219 26.16H99.8351L99.4511 25.728V26.16C99.4511 26.288 99.4671 26.416 99.4991 26.544C99.5631 26.8 99.6751 26.928 99.8351 26.928C99.8351 27.12 99.8511 27.216 99.8831 27.216C99.9151 27.216 100.027 27.12 100.219 26.928ZM102.571 11.664V11.232V11.664ZM99.8351 25.392C99.6431 25.392 99.5311 25.376 99.4991 25.344C99.4671 25.312 99.4511 25.184 99.4511 24.96C99.4511 25.184 99.4671 25.312 99.4991 25.344C99.5311 25.376 99.6431 25.392 99.8351 25.392ZM91.1951 7.344V6.912V7.344ZM91.6271 11.664H91.1951H91.6271V12.048H92.0111H91.6271V11.664ZM91.6271 12.816C91.6271 13.008 91.6911 13.136 91.8191 13.2C91.8831 13.232 91.9471 13.248 92.0111 13.248V12.816H91.6271H91.1951H91.6271ZM91.1951 21.072C91.1951 21.232 91.2111 21.424 91.2431 21.648C91.2751 21.84 91.4031 22.048 91.6271 22.272H91.1951C91.4191 22.272 91.6111 22.288 91.7711 22.32C91.9311 22.352 92.0111 22.448 92.0111 22.608H92.3471V22.272C92.1871 22.048 92.0111 21.84 91.8191 21.648C91.6271 21.424 91.4191 21.232 91.1951 21.072ZM96.3311 19.488V19.872C96.4911 19.872 96.6031 19.952 96.6671 20.112C96.7311 20.272 96.8751 20.448 97.0991 20.64H97.4831C97.6751 20.864 97.8031 20.96 97.8671 20.928C97.9311 20.896 98.0591 20.672 98.2511 20.256L98.6831 20.64V20.256V19.872H99.0191H98.6831V20.256H98.2511H97.8671C97.8671 20.064 97.9151 19.952 98.0111 19.92C98.1071 19.888 98.0591 19.872 97.8671 19.872H97.4831C97.4831 20.064 97.4991 20.112 97.5311 20.016C97.5631 19.92 97.6751 19.872 97.8671 19.872C97.8671 20.032 97.9311 20.144 98.0591 20.208C98.1231 20.24 98.1871 20.256 98.2511 20.256V20.64H97.4831H97.0991C97.0991 20.448 97.0031 20.272 96.8111 20.112C96.6511 19.952 96.4911 19.872 96.3311 19.872V19.488ZM92.0111 19.056H92.3471V19.488C92.3471 19.296 92.4111 19.168 92.5391 19.104C92.6031 19.072 92.6831 19.056 92.7791 19.056C92.7791 19.152 92.7951 19.232 92.8271 19.296C92.8911 19.424 93.0191 19.488 93.2111 19.488H92.7791H93.2111V19.056V18.72C93.2111 18.56 93.1311 18.432 92.9711 18.336C92.9071 18.304 92.8431 18.288 92.7791 18.288C92.7791 18.384 92.7951 18.464 92.8271 18.528C92.8911 18.656 93.0191 18.72 93.2111 18.72V19.056H92.7791H92.3471V18.72L92.0111 18.288C92.0111 18.512 92.0271 18.64 92.0591 18.672C92.0911 18.704 92.1871 18.72 92.3471 18.72C92.2831 18.72 92.2191 18.736 92.1551 18.768C92.0591 18.832 92.0111 18.928 92.0111 19.056ZM94.7471 18.72V18.288H94.3151C94.3151 18.512 94.3311 18.64 94.3631 18.672C94.3951 18.704 94.5231 18.72 94.7471 18.72ZM101.035 9.696H101.371H101.035ZM98.6831 18.288V18.72C98.4911 18.72 98.3631 18.784 98.2991 18.912C98.2671 18.976 98.2511 19.024 98.2511 19.056H98.6831V18.72H99.0191C99.0191 18.528 98.9551 18.4 98.8271 18.336C98.7631 18.304 98.7151 18.288 98.6831 18.288ZM97.4831 17.952C97.4831 18.016 97.4671 18.08 97.4351 18.144C97.3711 18.24 97.2591 18.288 97.0991 18.288C97.2591 18.288 97.3711 18.24 97.4351 18.144C97.4671 18.08 97.4831 18.016 97.4831 17.952ZM92.0111 17.952C92.1391 17.952 92.2351 17.888 92.2991 17.76C92.3311 17.696 92.3471 17.616 92.3471 17.52V17.952H92.0111ZM99.0191 17.136H99.4511V17.52V17.952V18.288C99.5791 18.48 99.6911 18.528 99.7871 18.432C99.8191 18.4 99.8351 18.352 99.8351 18.288C99.8351 18.128 99.8191 18.016 99.7871 17.952C99.7551 17.888 99.6431 17.744 99.4511 17.52V17.136H99.0191V17.52H98.6831H99.0191V17.136ZM93.2111 16.752V16.368V16.752ZM97.8671 3.792H97.4831V3.456C97.2911 3.456 97.1951 3.52 97.1951 3.648C97.1951 3.744 97.2911 3.792 97.4831 3.792H97.8671ZM93.5471 3.456V3.024V2.64L93.9791 3.024C94.1071 2.832 94.1551 2.72 94.1231 2.688C94.0911 2.656 94.0431 2.64 93.9791 2.64C93.9791 2.512 93.8991 2.4 93.7391 2.304C93.6751 2.272 93.6111 2.256 93.5471 2.256V2.64V3.024V3.456H93.2111C92.9871 3.232 92.8431 3.12 92.7791 3.12C92.7151 3.12 92.5711 3.232 92.3471 3.456H92.7791H93.2111H93.5471ZM91.6271 21.072H92.0111H91.6271ZM102.139 11.232V10.896H101.803C101.803 11.056 101.851 11.136 101.947 11.136C102.075 11.136 102.139 11.056 102.139 10.896V11.232ZM92.3471 9.696H92.0111C92.1711 9.696 92.2671 9.76 92.2991 9.888C92.3311 9.984 92.3471 9.92 92.3471 9.696ZM93.2111 5.376C93.2111 5.184 93.2271 5.072 93.2591 5.04C93.2911 5.008 93.3871 4.992 93.5471 4.992C93.3871 4.992 93.2911 5.008 93.2591 5.04C93.2271 5.072 93.2111 5.184 93.2111 5.376ZM95.5151 3.456L95.1311 3.024C95.1311 3.12 95.1471 3.2 95.1791 3.264C95.2431 3.392 95.3551 3.456 95.5151 3.456ZM101.803 29.28V29.664V29.28ZM91.6271 25.392H92.0111L91.6271 25.728V25.392ZM91.1951 23.76H91.6271C91.6271 23.984 91.6431 24.112 91.6751 24.144C91.7071 24.176 91.8191 24.192 92.0111 24.192V23.76H91.6271H91.1951ZM98.6831 22.272V21.84V22.272H99.0191H98.6831ZM92.7791 30.864V31.248C92.7791 31.056 92.7631 30.944 92.7311 30.912C92.6991 30.88 92.5711 30.864 92.3471 30.864C92.3471 31.056 92.3631 31.104 92.3951 31.008C92.4271 30.912 92.5551 30.864 92.7791 30.864ZM92.0111 14.4H92.3471H92.0111ZM91.6271 32.016H92.0111H91.6271ZM91.1951 4.224V3.792H91.6271H91.1951C91.0351 3.792 90.9551 3.872 90.9551 4.032C90.9551 4.16 91.0351 4.224 91.1951 4.224ZM92.0111 13.584V14.016H92.3471L92.0111 13.584ZM102.571 12.816H102.139H102.571ZM91.1951 26.544C91.1951 26.352 91.2431 26.24 91.3391 26.208C91.4671 26.176 91.4191 26.16 91.1951 26.16V26.544H91.6271C91.6271 26.352 91.6111 26.304 91.5791 26.4C91.5471 26.496 91.4191 26.544 91.1951 26.544ZM100.603 30.096C100.603 30.032 100.587 29.984 100.555 29.952C100.491 29.888 100.379 29.936 100.219 30.096H100.603ZM101.035 14.4H101.371V14.784V14.4H101.035ZM97.0991 4.224V3.792H96.6671C96.6671 3.984 96.7311 4.112 96.8591 4.176C96.9231 4.208 97.0031 4.224 97.0991 4.224ZM92.0111 29.664H91.6271C91.8191 29.888 91.9471 30.016 92.0111 30.048C92.0751 30.08 92.1871 30.096 92.3471 30.096L92.0111 30.432H92.3471L92.0111 30.096V29.664H92.3471H92.0111ZM100.603 5.76H101.035V5.376C100.843 5.376 100.715 5.44 100.651 5.568C100.619 5.632 100.603 5.696 100.603 5.76H100.219H100.603ZM92.3471 20.256H92.0111H92.3471V19.872V20.256ZM91.6271 5.376H91.1951C91.1951 5.184 91.2431 5.072 91.3391 5.04C91.4671 5.008 91.4191 4.992 91.1951 4.992V4.56V5.376C91.1951 5.44 91.2111 5.504 91.2431 5.568C91.3071 5.696 91.4351 5.76 91.6271 5.76C91.7871 5.76 91.8351 5.696 91.7711 5.568C91.7391 5.504 91.6911 5.44 91.6271 5.376H92.0111H91.6271ZM100.219 28.512V28.896C100.027 28.896 99.9791 28.912 100.075 28.944C100.171 28.976 100.219 29.088 100.219 29.28C100.219 29.088 100.267 28.96 100.363 28.896C100.459 28.832 100.411 28.704 100.219 28.512ZM91.6271 15.6V15.936C91.6911 15.936 91.7551 15.92 91.8191 15.888C91.9471 15.824 92.0111 15.728 92.0111 15.6C92.1711 15.6 92.2191 15.536 92.1551 15.408C92.1231 15.344 92.0751 15.264 92.0111 15.168C91.8511 15.168 91.7391 15.248 91.6751 15.408C91.6431 15.472 91.6271 15.536 91.6271 15.6ZM99.8351 10.896C99.8351 10.512 99.7711 10.064 99.6431 9.552C99.5151 9.008 99.4511 8.528 99.4511 8.112C99.3551 7.536 99.1471 7.072 98.8271 6.72C98.5071 6.368 98.1391 6.128 97.7231 6C97.3071 5.84 96.8591 5.776 96.3791 5.808C95.9311 5.84 95.5151 5.952 95.1311 6.144H94.7471C94.5231 6.528 94.2831 6.864 94.0271 7.152C93.7711 7.408 93.7551 7.728 93.9791 8.112V9.264C93.9791 9.488 93.9151 9.696 93.7871 9.888C93.6911 10.048 93.7551 10.128 93.9791 10.128C94.1391 10.896 94.1711 11.584 94.0751 12.192C94.0111 12.8 93.9791 13.408 93.9791 14.016V15.168C94.1391 15.552 94.3151 15.792 94.5071 15.888C94.7311 15.984 94.9391 16.144 95.1311 16.368C95.5151 16.56 95.9791 16.64 96.5231 16.608C97.0991 16.576 97.6751 16.352 98.2511 15.936C98.6351 15.776 98.9391 15.52 99.1631 15.168C99.4191 14.784 99.6431 14.4 99.8351 14.016V10.896ZM92.7791 6.576C92.5551 6.576 92.2991 6.656 92.0111 6.816C91.7551 6.944 91.6271 7.12 91.6271 7.344C91.6911 7.408 91.7551 7.456 91.8191 7.488C91.9471 7.552 92.0111 7.504 92.0111 7.344C92.1711 7.12 92.3311 6.976 92.4911 6.912C92.6831 6.848 92.7791 6.736 92.7791 6.576ZM91.1951 10.896H91.6271C91.6271 10.672 91.6111 10.544 91.5791 10.512C91.5471 10.48 91.4191 10.464 91.1951 10.464V10.896ZM102.571 8.496V8.112C102.347 8.112 102.155 8.128 101.995 8.16C101.867 8.192 101.803 8.304 101.803 8.496H102.571ZM101.371 28.512C101.211 28.512 101.115 28.528 101.083 28.56C101.051 28.592 101.035 28.704 101.035 28.896C101.067 28.896 101.115 28.88 101.179 28.848C101.307 28.784 101.371 28.672 101.371 28.512ZM102.571 32.784V33.216V32.784ZM99.8351 5.376C99.8351 5.216 99.7711 5.104 99.6431 5.04C99.5791 5.008 99.5151 4.992 99.4511 4.992C99.3871 4.992 99.3391 5.008 99.3071 5.04C99.2111 5.136 99.2591 5.248 99.4511 5.376H99.8351ZM101.035 28.08C100.811 28.08 100.731 28.032 100.795 27.936C100.891 27.808 100.827 27.744 100.603 27.744V28.08H101.035ZM101.371 6.576H101.035H101.371ZM92.0111 12.432H91.6271H92.0111ZM99.0191 23.04V23.424H99.4511C99.4511 23.296 99.3711 23.184 99.2111 23.088C99.1471 23.056 99.0831 23.04 99.0191 23.04ZM93.5471 17.136H93.9791H93.5471ZM95.5151 2.256V2.64V2.256ZM95.1311 3.792V4.224V3.792ZM91.6271 6.144C91.6271 6.336 91.5471 6.464 91.3871 6.528C91.3231 6.56 91.2591 6.576 91.1951 6.576H91.6271V6.144ZM91.1951 15.6V15.936V15.6ZM92.0111 29.28V28.896C91.8511 28.896 91.7391 28.96 91.6751 29.088C91.6431 29.152 91.6271 29.216 91.6271 29.28H92.0111ZM99.0191 25.392H98.6831H99.0191ZM99.8351 24.624V24.96V24.624ZM101.035 30.864H101.371H101.035ZM100.219 27.744V28.08V27.744ZM95.1311 18.72V19.056V18.72ZM90.8591 11.232V11.664V11.232ZM101.371 12.048V11.664V12.048ZM99.0191 24.192H98.6831V24.624L99.0191 24.192ZM92.3471 2.64H92.0111H92.3471ZM91.1951 23.04H90.8591H91.1951ZM93.2111 6.144V5.76H92.7791C92.7791 5.92 92.8431 6.032 92.9711 6.096C93.0351 6.128 93.1151 6.144 93.2111 6.144ZM91.1951 15.168H90.8591H91.1951ZM101.035 15.936H100.603H101.035ZM122.561 8.784V9.12C122.753 9.696 122.881 10.208 122.945 10.656C123.009 11.104 123.121 11.632 123.281 12.24V13.824C123.505 14.944 123.713 16.016 123.905 17.04C124.097 18.064 124.305 19.04 124.529 19.968C124.721 21.152 124.977 22.4 125.297 23.712C125.617 24.992 125.873 26.208 126.065 27.36C126.065 27.968 126.145 28.512 126.305 28.992C126.465 29.44 126.641 29.952 126.833 30.528V30.912C126.833 31.072 126.849 31.328 126.881 31.68C126.913 32 127.041 32.256 127.265 32.448C127.425 33.056 127.441 33.568 127.313 33.984C127.217 34.4 127.057 34.8 126.833 35.184C126.641 35.376 126.449 35.552 126.257 35.712C126.065 35.872 125.873 35.952 125.681 35.952C124.881 35.952 124.209 35.76 123.665 35.376C123.121 34.992 122.753 34.416 122.561 33.648C122.561 33.04 122.545 32.448 122.513 31.872C122.481 31.264 122.369 30.672 122.177 30.096C121.793 29.328 121.361 28.832 120.881 28.608C120.433 28.352 119.809 28.224 119.009 28.224C118.433 28.224 117.937 28.336 117.521 28.56C117.137 28.752 116.737 29.136 116.321 29.712V30.096C116.321 30.32 116.305 30.464 116.273 30.528C116.241 30.592 116.145 30.72 115.985 30.912C115.761 31.072 115.697 31.344 115.793 31.728C115.921 32.08 115.985 32.448 115.985 32.832C115.985 33.056 115.905 33.264 115.745 33.456C115.617 33.648 115.553 33.824 115.553 33.984C115.457 34.368 115.265 34.688 114.977 34.944C114.721 35.2 114.417 35.392 114.065 35.52C113.745 35.648 113.393 35.712 113.009 35.712C112.657 35.712 112.337 35.664 112.049 35.568C111.857 35.376 111.681 35.184 111.521 34.992C111.361 34.8 111.281 34.608 111.281 34.416C111.281 33.84 111.297 33.264 111.329 32.688C111.361 32.08 111.473 31.488 111.665 30.912C111.665 30.496 111.729 30.096 111.857 29.712C111.985 29.296 112.049 28.8 112.049 28.224C112.241 27.776 112.369 27.28 112.433 26.736C112.497 26.192 112.625 25.632 112.817 25.056C112.913 24.672 112.977 24.256 113.009 23.808C113.041 23.328 113.057 22.848 113.057 22.368C113.089 21.856 113.137 21.376 113.201 20.928C113.265 20.448 113.393 20.016 113.585 19.632C113.777 19.056 113.953 18.416 114.113 17.712C114.305 17.008 114.401 16.352 114.401 15.744V14.928C114.593 14.16 114.785 13.344 114.977 12.48C115.169 11.584 115.361 10.736 115.553 9.936C115.553 9.712 115.569 9.456 115.601 9.168C115.633 8.848 115.761 8.576 115.985 8.352V7.2C115.985 6.816 116.001 6.368 116.033 5.856C116.065 5.312 116.161 4.848 116.321 4.464C116.481 4.464 116.593 4.4 116.657 4.272C116.689 4.208 116.705 4.144 116.705 4.08C116.513 3.504 116.577 2.96 116.897 2.448C117.249 1.936 117.713 1.584 118.289 1.392C118.481 1.168 118.641 1.056 118.769 1.056C118.929 1.056 119.009 1.168 119.009 1.392C119.457 1.392 119.793 1.408 120.017 1.44C120.241 1.472 120.433 1.584 120.593 1.776C120.817 1.776 120.961 1.856 121.025 2.016C121.089 2.144 121.217 2.32 121.409 2.544C121.409 3.12 121.457 3.632 121.553 4.08C121.681 4.528 121.745 5.04 121.745 5.616C121.745 5.776 121.761 6.032 121.793 6.384C121.825 6.736 121.953 7.008 122.177 7.2C122.369 7.392 122.481 7.6 122.513 7.824C122.545 8.048 122.561 8.368 122.561 8.784ZM117.137 16.08H116.705H117.137ZM125.681 30.912V30.528C125.489 30.528 125.313 30.48 125.153 30.384C124.993 30.256 124.913 30.304 124.913 30.528C125.105 30.72 125.233 30.768 125.297 30.672C125.361 30.576 125.489 30.528 125.681 30.528V30.912ZM113.585 28.56V28.224C113.585 28.384 113.569 28.48 113.537 28.512C113.505 28.544 113.409 28.56 113.249 28.56H113.585ZM114.401 27.84C114.305 27.84 114.225 27.824 114.161 27.792C114.033 27.728 113.969 27.584 113.969 27.36V27.84H113.585C113.585 28 113.649 28.048 113.777 27.984C113.841 27.952 113.905 27.904 113.969 27.84H114.401ZM121.409 26.208V25.824V26.208H121.025V26.64V26.208H121.409ZM115.169 24.288H114.785H115.169ZM123.281 23.952C123.281 24.112 123.265 24.208 123.233 24.24C123.201 24.272 123.105 24.288 122.945 24.288C122.945 24.128 122.865 24.096 122.705 24.192C122.545 24.256 122.369 24.288 122.177 24.288V24.672V24.288C122.369 24.288 122.497 24.352 122.561 24.48C122.625 24.608 122.753 24.672 122.945 24.672V25.056V24.672V24.288C122.977 24.288 123.025 24.272 123.089 24.24C123.217 24.176 123.281 24.08 123.281 23.952ZM122.177 23.52V23.136V23.52V23.136V23.52ZM120.593 12.672H120.257V13.392C120.257 13.232 120.305 13.12 120.401 13.056C120.465 13.024 120.529 13.008 120.593 13.008V12.672ZM116.705 14.208H116.321V13.824C116.321 14.016 116.337 14.128 116.369 14.16C116.401 14.192 116.513 14.208 116.705 14.208ZM120.593 9.504H120.257C120.257 9.312 120.241 9.216 120.209 9.216C120.177 9.216 120.065 9.312 119.873 9.504H120.593ZM116.321 12.24V12.672V12.24ZM121.409 12.24V12.672C121.217 12.672 121.169 12.752 121.265 12.912C121.361 13.04 121.409 13.2 121.409 13.392V13.008V12.672V12.24ZM122.561 18.48V18.096V17.712V18.096V18.48ZM117.857 10.272H118.289V9.936V10.272H117.857ZM116.705 16.944H116.321H116.705ZM121.025 14.208H120.593H121.025ZM120.257 11.856H119.873C119.617 11.856 119.473 11.824 119.441 11.76C119.409 11.664 119.393 11.696 119.393 11.856H119.873H120.257ZM119.873 10.272H119.393H119.873ZM117.137 9.12H117.521L117.137 8.784V9.12ZM118.289 7.968H118.673H118.289ZM113.249 32.832C113.185 32.832 113.137 32.848 113.105 32.88C113.009 32.976 113.057 33.104 113.249 33.264V32.832ZM124.529 32.064V32.448V32.064ZM122.561 26.976V27.36V26.976ZM120.257 24.672H119.873H120.257ZM121.745 23.52C121.585 23.744 121.489 23.824 121.457 23.76C121.425 23.664 121.409 23.728 121.409 23.952V23.52H121.745ZM114.785 23.52H115.169C115.009 23.36 114.897 23.312 114.833 23.376C114.801 23.408 114.785 23.456 114.785 23.52ZM122.177 19.248V19.632V19.248ZM115.985 22.32V21.936V21.552H115.553C115.553 21.744 115.569 21.856 115.601 21.888C115.633 21.92 115.761 21.936 115.985 21.936C115.761 21.936 115.649 22 115.649 22.128C115.649 22.256 115.761 22.32 115.985 22.32C115.985 22.512 116.001 22.56 116.033 22.464C116.065 22.368 116.161 22.32 116.321 22.32H115.985ZM119.009 9.504H119.393H119.009ZM114.401 31.68H113.969H114.401ZM121.025 11.856C121.025 11.92 121.041 11.968 121.073 12C121.137 12.064 121.249 12.016 121.409 11.856H121.025ZM122.177 20.784V21.168V20.784H122.561H122.177ZM119.393 8.352V8.784V8.352ZM116.705 11.52C116.545 11.52 116.433 11.584 116.369 11.712C116.337 11.776 116.321 11.824 116.321 11.856V11.52H116.705ZM117.857 8.352V8.784V8.352ZM123.281 22.32V21.936C123.217 21.936 123.169 21.952 123.137 21.984C123.073 22.048 123.121 22.16 123.281 22.32ZM112.817 33.984V33.648V33.984ZM113.969 33.648H113.585H113.969ZM122.945 29.376H123.281C123.281 29.152 123.265 29.104 123.233 29.232C123.201 29.328 123.105 29.376 122.945 29.376ZM121.409 18.096V18.48C121.569 18.48 121.665 18.464 121.697 18.432C121.729 18.4 121.745 18.288 121.745 18.096H121.409ZM121.409 13.824H121.745V14.208C121.745 14.144 121.729 14.08 121.697 14.016C121.633 13.888 121.537 13.824 121.409 13.824ZM122.561 18.816C122.689 18.816 122.801 18.896 122.897 19.056C122.929 19.12 122.945 19.184 122.945 19.248C122.945 19.184 122.929 19.12 122.897 19.056C122.801 18.896 122.689 18.816 122.561 18.816ZM122.177 15.36H121.745H122.177ZM119.873 25.488V25.824V25.488ZM125.297 32.832V33.264H125.681L125.297 32.832ZM113.585 29.376H113.969H113.585ZM124.529 27.84H124.913H124.529V27.36V26.976C124.337 27.104 124.289 27.216 124.385 27.312C124.417 27.344 124.465 27.36 124.529 27.36V27.84ZM121.745 19.968H122.177V20.4V19.968H121.745ZM118.289 9.12C118.289 9.184 118.305 9.248 118.337 9.312C118.401 9.44 118.513 9.504 118.673 9.504V9.12H118.289ZM115.553 20.4H115.985V19.968L115.553 20.4ZM115.985 14.544C115.761 14.544 115.633 14.56 115.601 14.592C115.569 14.624 115.553 14.736 115.553 14.928H115.985V14.544ZM124.913 29.712C124.913 29.648 124.897 29.6 124.865 29.568C124.833 29.536 124.721 29.584 124.529 29.712H124.913ZM119.393 4.08V3.696V4.08H119.009H119.393ZM119.393 4.8H119.873H119.393C119.393 4.64 119.377 4.544 119.345 4.512C119.313 4.48 119.201 4.464 119.009 4.464V4.8C119.137 4.992 119.249 5.04 119.345 4.944C119.377 4.912 119.393 4.864 119.393 4.8ZM121.025 14.928H121.409C121.409 14.736 121.393 14.624 121.361 14.592C121.329 14.56 121.217 14.544 121.025 14.544V14.928ZM120.257 5.616V6.432C120.385 6.208 120.481 6.016 120.545 5.856C120.577 5.76 120.593 5.68 120.593 5.616H120.257ZM119.009 26.976C119.009 26.816 118.993 26.656 118.961 26.496C118.929 26.304 118.833 26.208 118.673 26.208C118.673 26.432 118.721 26.56 118.817 26.592C118.881 26.624 118.945 26.64 119.009 26.64V26.976ZM117.857 3.696V4.464C118.049 4.464 118.177 4.4 118.241 4.272C118.273 4.208 118.289 4.144 118.289 4.08C118.289 3.952 118.209 3.84 118.049 3.744C117.985 3.712 117.921 3.696 117.857 3.696ZM120.593 7.968C120.433 7.968 120.337 8.048 120.305 8.208C120.273 8.368 120.257 8.56 120.257 8.784C120.417 8.784 120.513 8.704 120.545 8.544C120.577 8.352 120.593 8.16 120.593 7.968ZM117.857 26.208C117.697 26.4 117.729 26.528 117.953 26.592C118.049 26.624 118.161 26.64 118.289 26.64C118.289 26.416 118.273 26.24 118.241 26.112C118.209 25.984 118.081 26.016 117.857 26.208ZM115.985 28.224C116.145 28.224 116.241 28.208 116.273 28.176C116.305 28.144 116.321 28.032 116.321 27.84H115.985V28.224C115.985 28.032 115.969 27.84 115.937 27.648C115.905 27.456 115.777 27.36 115.553 27.36C115.361 27.36 115.313 27.44 115.409 27.6C115.441 27.696 115.489 27.776 115.553 27.84H115.169H114.785V28.224C114.977 28.224 115.089 28.208 115.121 28.176C115.153 28.144 115.169 28.032 115.169 27.84C115.169 28 115.233 28.112 115.361 28.176C115.425 28.208 115.489 28.224 115.553 28.224V28.56C115.745 28.56 115.873 28.512 115.937 28.416C115.969 28.352 115.985 28.288 115.985 28.224ZM120.257 17.712V17.28C120.065 16.672 119.873 16.016 119.681 15.312C119.489 14.608 119.393 13.968 119.393 13.392H119.009H118.673V16.08C118.481 16.912 118.273 17.792 118.049 18.72C117.857 19.648 117.681 20.592 117.521 21.552C117.521 21.936 117.553 22.24 117.617 22.464C117.681 22.688 117.905 22.912 118.289 23.136C118.481 23.552 118.721 23.776 119.009 23.808C119.329 23.84 119.617 23.744 119.873 23.52C120.225 23.328 120.497 23.12 120.689 22.896C120.913 22.64 121.025 22.32 121.025 21.936C120.801 21.552 120.673 21.184 120.641 20.832C120.609 20.48 120.593 20.192 120.593 19.968C120.433 19.616 120.337 19.248 120.305 18.864C120.273 18.48 120.257 18.096 120.257 17.712ZM117.857 25.056C117.697 24.864 117.585 24.752 117.521 24.72C117.457 24.688 117.329 24.672 117.137 24.672H116.705H117.137C117.329 24.864 117.457 24.976 117.521 25.008C117.585 25.04 117.697 25.056 117.857 25.056ZM119.393 7.584V6.816H119.009C119.201 6.816 119.313 6.896 119.345 7.056C119.377 7.216 119.393 7.392 119.393 7.584ZM116.321 13.008C116.193 13.008 116.097 13.072 116.033 13.2C116.001 13.264 115.985 13.328 115.985 13.392C115.985 13.456 116.001 13.504 116.033 13.536C116.065 13.568 116.097 13.584 116.129 13.584C116.161 13.584 116.225 13.52 116.321 13.392V13.008ZM120.593 11.04H120.257H120.593ZM114.785 20.784V21.168H115.169C115.169 20.976 115.153 20.864 115.121 20.832C115.089 20.8 114.977 20.784 114.785 20.784ZM116.321 15.36V14.928L115.985 15.36H116.321ZM123.281 23.52V23.136V23.52ZM116.705 13.008V13.392C116.897 13.392 117.025 13.328 117.089 13.2C117.121 13.136 117.137 13.072 117.137 13.008H116.705ZM115.985 24.288C115.985 24.192 115.905 24.096 115.745 24C115.681 23.968 115.617 23.952 115.553 23.952V24.288H115.985ZM115.553 16.944C115.393 16.944 115.281 17.008 115.217 17.136C115.185 17.2 115.169 17.248 115.169 17.28H115.553V16.944ZM121.409 10.656V11.04V10.656ZM116.321 25.488V25.056C116.161 25.056 116.065 25.072 116.033 25.104C116.001 25.136 115.985 25.264 115.985 25.488H116.321ZM114.401 24.288V23.952V24.288ZM121.409 11.04V11.52H121.745C121.745 11.456 121.729 11.376 121.697 11.28C121.601 11.12 121.505 11.04 121.409 11.04ZM114.401 21.936V22.32V21.936ZM123.281 27.36V27.84H123.713C123.713 27.776 123.697 27.696 123.665 27.6C123.569 27.44 123.441 27.36 123.281 27.36ZM118.289 5.616C118.289 5.552 118.273 5.488 118.241 5.424C118.177 5.296 118.049 5.232 117.857 5.232V5.616H118.289ZM122.177 23.952H121.745C121.969 24.112 122.097 24.192 122.129 24.192C122.161 24.192 122.177 24.112 122.177 23.952ZM118.673 3.696C118.833 3.696 118.929 3.68 118.961 3.648C118.993 3.616 119.009 3.488 119.009 3.264H118.673V3.696ZM121.745 17.28C121.585 17.28 121.489 17.232 121.457 17.136C121.425 17.072 121.409 17.008 121.409 16.944V17.28H121.745ZM122.945 28.56H122.561H122.945ZM121.409 15.744V16.08V15.744ZM114.785 32.832C114.593 32.64 114.481 32.544 114.449 32.544C114.417 32.544 114.401 32.64 114.401 32.832H114.785ZM124.913 31.248H124.529H124.913ZM116.321 19.968V19.632V19.968ZM123.281 22.704H122.945H123.281ZM124.097 24.672V24.288V24.672ZM113.969 25.056V24.672V25.056ZM116.705 26.208H116.321H116.705ZM121.409 26.208V26.64V26.208ZM124.097 28.224V27.84V28.224ZM123.713 29.376H124.097H123.713ZM117.857 5.616V5.952V5.616ZM143.616 36.048H142.08C141.28 35.824 140.56 35.776 139.92 35.904C139.28 36 138.56 36.048 137.76 36.048C137.6 36.048 137.36 35.984 137.04 35.856C136.72 35.696 136.448 35.616 136.224 35.616C135.84 35.424 135.568 35.216 135.408 34.992C135.248 34.768 135.264 34.464 135.456 34.08V30.24C135.456 29.44 135.44 28.688 135.408 27.984C135.376 27.248 135.264 26.56 135.072 25.92C135.072 25.536 135.136 25.152 135.264 24.768C135.392 24.384 135.456 24.016 135.456 23.664C135.264 23.024 135.2 22.352 135.264 21.648C135.328 20.944 135.264 20.304 135.072 19.728V19.344C135.072 19.248 135.104 19.152 135.168 19.056C135.264 18.96 135.344 18.864 135.408 18.768C135.504 18.672 135.552 18.576 135.552 18.48C135.584 18.384 135.552 18.288 135.456 18.192C135.456 18 135.392 17.824 135.264 17.664C135.136 17.472 135.072 17.264 135.072 17.04C135.264 16.56 135.376 16.064 135.408 15.552C135.44 15.008 135.424 14.48 135.36 13.968C135.328 13.424 135.264 12.896 135.168 12.384C135.104 11.84 135.072 11.328 135.072 10.848C135.072 10.24 135.136 9.648 135.264 9.072C135.392 8.496 135.456 7.92 135.456 7.344V6.96C135.264 6.192 135.216 5.504 135.312 4.896C135.408 4.288 135.456 3.68 135.456 3.072C135.456 2.496 135.68 2.032 136.128 1.68C136.608 1.328 137.04 1.152 137.424 1.152C138.192 1.344 138.704 1.584 138.96 1.872C139.216 2.16 139.344 2.688 139.344 3.456C139.344 4.064 139.392 4.656 139.488 5.232C139.584 5.808 139.536 6.384 139.344 6.96C139.536 7.952 139.584 8.864 139.488 9.696C139.392 10.528 139.344 11.424 139.344 12.384C139.536 12.768 139.632 13.152 139.632 13.536C139.632 13.888 139.536 14.16 139.344 14.352V14.688V17.808C139.344 18.224 139.392 18.624 139.488 19.008C139.584 19.36 139.536 19.744 139.344 20.16C139.152 20.16 139.104 20.24 139.2 20.4C139.296 20.56 139.344 20.72 139.344 20.88C139.344 21.872 139.36 22.864 139.392 23.856C139.424 24.816 139.536 25.776 139.728 26.736C139.728 27.12 139.68 27.504 139.584 27.888C139.488 28.272 139.536 28.656 139.728 29.04C139.728 29.648 139.92 30.128 140.304 30.48C140.688 30.832 141.28 31.008 142.08 31.008H143.184H145.152C145.344 31.008 145.6 31.024 145.92 31.056C146.24 31.088 146.496 31.184 146.688 31.344H147.072C147.264 31.728 147.488 32.144 147.744 32.592C148.032 33.008 148.08 33.504 147.888 34.08C147.472 34.848 147.12 35.376 146.832 35.664C146.544 35.92 146.112 36.048 145.536 36.048H143.616ZM143.952 34.08H143.616C143.616 33.888 143.632 33.728 143.664 33.6C143.728 33.44 143.568 33.36 143.184 33.36C143.408 33.36 143.536 33.44 143.568 33.6C143.6 33.728 143.616 33.888 143.616 34.08V34.464V34.08H143.952ZM141.264 34.08C141.264 34.016 141.248 33.952 141.216 33.888C141.152 33.76 141.04 33.696 140.88 33.696H141.264V33.36V33.696H140.88C141.04 33.696 141.152 33.76 141.216 33.888C141.248 33.952 141.264 34.016 141.264 34.08ZM140.112 32.928H139.728C139.728 33.152 139.744 33.264 139.776 33.264C139.808 33.264 139.92 33.152 140.112 32.928ZM138.192 32.928V32.544V32.928C138.192 33.12 138.112 33.248 137.952 33.312C137.888 33.344 137.824 33.36 137.76 33.36V33.696V33.36C137.824 33.36 137.888 33.344 137.952 33.312C138.112 33.248 138.192 33.12 138.192 32.928ZM142.08 32.112V31.776V32.112ZM137.76 26.352H138.192H137.76ZM138.192 7.776H137.76H138.192ZM136.656 12H136.224H136.656ZM136.992 21.696H136.656H136.992ZM138.192 13.152V12.768V13.152L138.576 12.768H138.192V13.152ZM137.76 8.928C137.76 8.704 137.744 8.576 137.712 8.544C137.68 8.512 137.584 8.496 137.424 8.496C137.584 8.496 137.68 8.512 137.712 8.544C137.744 8.576 137.76 8.704 137.76 8.928ZM136.992 9.264V9.648V9.264C136.992 9.232 136.976 9.184 136.944 9.12C136.88 8.992 136.784 8.928 136.656 8.928C136.656 9.088 136.704 9.184 136.8 9.216C136.864 9.248 136.928 9.264 136.992 9.264ZM137.424 10.848H137.76H137.424ZM136.992 18.624V18.192C137.216 18.192 137.344 18.176 137.376 18.144C137.408 18.112 137.424 18 137.424 17.808V17.472V17.04V17.472C137.264 17.472 137.216 17.536 137.28 17.664C137.312 17.728 137.36 17.776 137.424 17.808C137.328 17.808 137.248 17.824 137.184 17.856C137.056 17.92 136.992 18.032 136.992 18.192V18.624H137.424C137.424 18.4 137.408 18.352 137.376 18.48C137.344 18.576 137.216 18.624 136.992 18.624ZM138.192 13.536H137.76H138.192ZM137.424 7.344H137.76H137.424ZM136.656 5.808H136.992V6.192V5.808H136.656ZM138.96 34.08V34.464V34.08ZM142.08 32.928V32.544H142.416H142.08V32.928ZM137.76 3.072H138.192H137.76ZM137.424 25.92V25.584V25.92ZM136.224 22.416C136.448 22.416 136.576 22.48 136.608 22.608C136.64 22.704 136.656 22.64 136.656 22.416H136.224V22.848V22.416ZM136.992 16.656C136.992 16.432 136.976 16.304 136.944 16.272C136.912 16.24 136.816 16.224 136.656 16.224C136.656 16.064 136.688 15.968 136.752 15.936C136.848 15.904 136.816 15.888 136.656 15.888V16.224C136.816 16.224 136.912 16.24 136.944 16.272C136.976 16.304 136.992 16.432 136.992 16.656ZM137.424 4.656V5.424C137.2 5.424 137.072 5.376 137.04 5.28C137.008 5.152 136.992 5.2 136.992 5.424H137.424V4.656ZM136.656 33.36C136.816 33.36 136.912 33.344 136.944 33.312C136.976 33.28 136.992 33.152 136.992 32.928V33.36H136.656ZM137.76 27.504V27.888V27.504ZM136.992 30.24V30.576C136.928 30.576 136.88 30.592 136.848 30.624C136.752 30.72 136.8 30.848 136.992 31.008V30.576C137.184 30.576 137.312 30.528 137.376 30.432C137.408 30.368 137.424 30.304 137.424 30.24H136.992ZM137.76 15.12V15.456V15.12ZM137.76 30.24V30.576H138.192C138.096 30.576 138.016 30.56 137.952 30.528C137.824 30.464 137.76 30.368 137.76 30.24ZM137.424 20.16V20.544V20.16ZM138.192 33.696H138.576H138.192ZM137.424 24.816H137.76V24.384C137.696 24.384 137.632 24.4 137.568 24.432C137.472 24.496 137.424 24.624 137.424 24.816ZM140.496 32.544H140.88H141.264H140.88V32.112C140.688 32.112 140.624 32.192 140.688 32.352C140.752 32.48 140.688 32.544 140.496 32.544V32.928C140.688 32.928 140.736 32.912 140.64 32.88C140.544 32.848 140.496 32.736 140.496 32.544ZM137.76 26.736H137.424H137.76ZM138.192 18.96C138 18.96 137.872 19.024 137.808 19.152C137.776 19.216 137.76 19.28 137.76 19.344V19.728C137.92 19.728 137.968 19.664 137.904 19.536C137.872 19.472 137.824 19.408 137.76 19.344C137.984 19.344 138.112 19.328 138.144 19.296C138.176 19.264 138.192 19.152 138.192 18.96ZM137.424 31.344C137.232 31.344 137.184 31.424 137.28 31.584C137.312 31.648 137.36 31.712 137.424 31.776V32.112L137.76 31.776C137.632 31.776 137.536 31.712 137.472 31.584C137.44 31.52 137.424 31.44 137.424 31.344ZM137.424 12C137.424 12.192 137.44 12.304 137.472 12.336C137.504 12.368 137.6 12.384 137.76 12.384V12H137.424C137.424 11.808 137.408 11.696 137.376 11.664C137.344 11.632 137.216 11.616 136.992 11.616V12C137.152 12.192 137.28 12.24 137.376 12.144C137.408 12.112 137.424 12.064 137.424 12ZM136.992 13.536C136.832 13.76 136.784 13.968 136.848 14.16C136.944 14.352 136.992 14.528 136.992 14.688H137.424C137.424 14.528 137.344 14.352 137.184 14.16C137.056 13.968 136.992 13.76 136.992 13.536V13.968V13.536ZM136.656 24.384C136.816 24.384 136.912 24.368 136.944 24.336C136.976 24.304 136.992 24.208 136.992 24.048H136.656V24.384ZM136.992 26.736C136.832 26.544 136.768 26.432 136.8 26.4C136.864 26.368 136.816 26.352 136.656 26.352V26.736H136.992ZM138.96 32.928V32.544V32.928ZM137.76 18.192H138.192H137.76ZM136.656 10.848V11.232V10.848ZM140.496 34.464V34.08L140.112 34.464H140.496ZM138.192 12V11.616V12ZM138.576 31.008H138.192H138.576ZM136.656 4.272C136.816 4.08 136.864 3.952 136.8 3.888C136.768 3.856 136.72 3.84 136.656 3.84V4.272ZM137.76 17.808V17.472V17.808ZM137.76 28.272V28.656V28.272ZM138.192 27.504V27.888V27.504ZM144.768 32.112H144.384H144.768ZM136.992 28.656V29.04V28.656ZM138.192 31.776V31.344V31.776ZM145.536 32.928V32.544V32.928ZM140.112 33.696H139.728H140.112ZM157.781 28.32V25.2V22.896V20.928V20.16C157.973 19.968 158.069 19.84 158.069 19.776C158.069 19.712 157.973 19.584 157.781 19.392V16.656C157.781 16.24 157.829 15.84 157.925 15.456C158.021 15.072 157.973 14.704 157.781 14.352V10.032C157.589 9.264 157.541 8.496 157.637 7.728C157.733 6.928 157.781 6.16 157.781 5.424V3.84C157.589 3.264 157.573 2.848 157.733 2.592C157.893 2.304 158.165 2.064 158.549 1.872C158.645 1.776 158.741 1.712 158.837 1.68C158.965 1.616 159.061 1.568 159.125 1.536C159.221 1.504 159.301 1.488 159.365 1.488C159.749 1.104 160.133 1.104 160.517 1.488C160.581 1.488 160.661 1.504 160.757 1.536C160.949 1.6 161.125 1.712 161.285 1.872C161.509 2.064 161.685 2.288 161.813 2.544C161.973 2.768 162.053 3.072 162.053 3.456C161.893 3.84 161.845 4.304 161.909 4.848C162.005 5.36 162.053 5.792 162.053 6.144C162.053 6.528 162.021 6.976 161.957 7.488C161.893 7.968 161.669 8.304 161.285 8.496C161.285 8.688 161.301 8.8 161.333 8.832C161.365 8.864 161.493 8.88 161.717 8.88C161.877 9.072 161.973 9.328 162.005 9.648C162.037 9.968 162.053 10.224 162.053 10.416C162.053 10.832 162.085 11.232 162.149 11.616C162.213 12 162.069 12.384 161.717 12.768V13.152C161.877 13.376 161.973 13.648 162.005 13.968C162.037 14.288 162.053 14.528 162.053 14.688C161.893 15.264 161.845 15.776 161.909 16.224C162.005 16.64 162.053 17.04 162.053 17.424C162.053 17.808 162.037 18.128 162.005 18.384C161.973 18.64 161.877 18.976 161.717 19.392C161.717 19.968 161.733 20.48 161.765 20.928C161.797 21.376 161.893 21.904 162.053 22.512C162.053 22.864 162.037 23.232 162.005 23.616C161.973 24 161.877 24.4 161.717 24.816C161.717 25.008 161.733 25.28 161.765 25.632C161.797 25.984 161.893 26.352 162.053 26.736V29.472C161.893 29.696 161.813 29.92 161.813 30.144C161.813 30.368 161.893 30.672 162.053 31.056V34.128C161.893 34.512 161.765 34.832 161.669 35.088C161.573 35.312 161.317 35.52 160.901 35.712C160.709 35.712 160.517 35.76 160.325 35.856C160.133 35.92 159.941 35.968 159.749 36C159.557 36.064 159.349 36.08 159.125 36.048C158.933 36.016 158.741 35.904 158.549 35.712C158.357 35.52 158.229 35.328 158.165 35.136C158.101 34.912 157.973 34.704 157.781 34.512C157.589 33.936 157.541 33.344 157.637 32.736C157.733 32.096 157.781 31.408 157.781 30.672V28.32ZM159.749 13.584V13.152L160.133 13.584V13.968V13.584C160.197 13.584 160.261 13.6 160.325 13.632C160.453 13.696 160.517 13.808 160.517 13.968V13.584C160.517 13.36 160.485 13.232 160.421 13.2C160.357 13.168 160.133 13.152 159.749 13.152V13.584ZM160.133 15.072H159.749V15.456V15.072H160.133ZM159.365 8.496H159.749H159.365V8.112V8.496ZM160.133 8.496V8.88V9.264V8.88C160.325 8.88 160.373 8.864 160.277 8.832C160.181 8.8 160.133 8.688 160.133 8.496ZM159.749 5.424H160.133H159.749ZM160.517 4.224C160.325 4.224 160.213 4.208 160.181 4.176C160.149 4.144 160.133 4.032 160.133 3.84V4.224H160.517ZM160.133 29.088H160.517V29.472V29.088H160.133ZM159.365 10.032V9.648C159.205 9.648 159.093 9.712 159.029 9.84C158.997 9.904 158.981 9.968 158.981 10.032H159.365ZM160.517 32.16V32.592C160.677 32.592 160.725 32.528 160.661 32.4C160.629 32.336 160.581 32.256 160.517 32.16ZM159.749 11.232H159.365H159.749ZM160.517 28.32H159.749C159.941 28.512 160.069 28.608 160.133 28.608C160.197 28.608 160.325 28.512 160.517 28.32ZM160.133 11.616C160.133 11.68 160.149 11.744 160.181 11.808C160.245 11.936 160.357 12 160.517 12C160.517 11.808 160.501 11.696 160.469 11.664C160.437 11.632 160.325 11.616 160.133 11.616ZM159.365 25.2V25.584C159.525 25.424 159.573 25.312 159.509 25.248C159.477 25.216 159.429 25.2 159.365 25.2ZM160.133 19.392C159.941 19.392 159.829 19.408 159.797 19.44C159.765 19.472 159.749 19.584 159.749 19.776H160.133V19.392C159.973 19.232 159.925 19.12 159.989 19.056C160.021 19.024 160.069 19.008 160.133 19.008C159.941 19.008 159.845 19.024 159.845 19.056C159.845 19.088 159.941 19.2 160.133 19.392ZM159.749 10.032V10.416L160.133 10.848V10.416L159.749 10.032ZM159.365 21.744V22.128V22.512C159.525 22.512 159.637 22.576 159.701 22.704C159.733 22.768 159.749 22.832 159.749 22.896V22.512L159.365 22.128C159.557 22.128 159.717 22.112 159.845 22.08C159.973 22.048 159.941 21.936 159.749 21.744H159.365C159.557 21.744 159.669 21.728 159.701 21.696C159.733 21.664 159.749 21.536 159.749 21.312C159.557 21.312 159.445 21.328 159.413 21.36C159.381 21.392 159.365 21.52 159.365 21.744ZM159.365 20.928C159.557 20.928 159.733 20.912 159.893 20.88C160.053 20.848 160.133 20.736 160.133 20.544C159.941 20.544 159.829 20.56 159.797 20.592C159.765 20.624 159.749 20.736 159.749 20.928H159.365ZM159.749 24C159.941 24.224 160.069 24.4 160.133 24.528C160.197 24.656 160.325 24.624 160.517 24.432C160.325 24.208 160.197 24.08 160.133 24.048C160.069 24.016 159.941 24 159.749 24C159.749 23.808 159.717 23.632 159.653 23.472C159.589 23.312 159.365 23.232 158.981 23.232C159.365 23.616 159.557 23.856 159.557 23.952C159.557 24.048 159.365 24.208 158.981 24.432C159.173 24.624 159.301 24.656 159.365 24.528C159.429 24.4 159.557 24.224 159.749 24ZM159.365 32.16C159.365 32.32 159.429 32.368 159.557 32.304C159.621 32.272 159.685 32.224 159.749 32.16V31.824C159.749 31.888 159.733 31.952 159.701 32.016C159.637 32.112 159.525 32.16 159.365 32.16ZM160.133 30.672H159.749C159.749 30.736 159.765 30.8 159.797 30.864C159.861 30.992 159.973 31.056 160.133 31.056V30.672ZM160.133 6.912H159.749C159.909 7.072 160.021 7.12 160.085 7.056C160.117 7.024 160.133 6.976 160.133 6.912ZM159.365 6.912C159.365 6.72 159.349 6.608 159.317 6.576C159.285 6.544 159.173 6.528 158.981 6.528V6.912H159.365ZM159.365 9.264V8.88V9.264ZM160.517 10.416H160.901H160.517ZM159.365 34.128H159.749H159.365ZM160.517 5.424H160.133H160.517ZM160.517 30.672V31.056V30.672ZM159.749 6.144H159.365H159.749ZM159.365 12.384V12.768V12.384ZM180.274 8.784V9.12C180.466 9.696 180.594 10.208 180.658 10.656C180.722 11.104 180.834 11.632 180.994 12.24V13.824C181.218 14.944 181.426 16.016 181.618 17.04C181.81 18.064 182.018 19.04 182.242 19.968C182.434 21.152 182.69 22.4 183.01 23.712C183.33 24.992 183.586 26.208 183.778 27.36C183.778 27.968 183.858 28.512 184.018 28.992C184.178 29.44 184.354 29.952 184.546 30.528V30.912C184.546 31.072 184.562 31.328 184.594 31.68C184.626 32 184.754 32.256 184.978 32.448C185.138 33.056 185.154 33.568 185.026 33.984C184.93 34.4 184.77 34.8 184.546 35.184C184.354 35.376 184.162 35.552 183.97 35.712C183.778 35.872 183.586 35.952 183.394 35.952C182.594 35.952 181.922 35.76 181.378 35.376C180.834 34.992 180.466 34.416 180.274 33.648C180.274 33.04 180.258 32.448 180.226 31.872C180.194 31.264 180.082 30.672 179.89 30.096C179.506 29.328 179.074 28.832 178.594 28.608C178.146 28.352 177.522 28.224 176.722 28.224C176.146 28.224 175.65 28.336 175.234 28.56C174.85 28.752 174.45 29.136 174.034 29.712V30.096C174.034 30.32 174.018 30.464 173.986 30.528C173.954 30.592 173.858 30.72 173.698 30.912C173.474 31.072 173.41 31.344 173.506 31.728C173.634 32.08 173.698 32.448 173.698 32.832C173.698 33.056 173.618 33.264 173.458 33.456C173.33 33.648 173.266 33.824 173.266 33.984C173.17 34.368 172.978 34.688 172.69 34.944C172.434 35.2 172.13 35.392 171.778 35.52C171.458 35.648 171.106 35.712 170.722 35.712C170.37 35.712 170.05 35.664 169.762 35.568C169.57 35.376 169.394 35.184 169.234 34.992C169.074 34.8 168.994 34.608 168.994 34.416C168.994 33.84 169.01 33.264 169.042 32.688C169.074 32.08 169.186 31.488 169.378 30.912C169.378 30.496 169.442 30.096 169.57 29.712C169.698 29.296 169.762 28.8 169.762 28.224C169.954 27.776 170.082 27.28 170.146 26.736C170.21 26.192 170.338 25.632 170.53 25.056C170.626 24.672 170.69 24.256 170.722 23.808C170.754 23.328 170.77 22.848 170.77 22.368C170.802 21.856 170.85 21.376 170.914 20.928C170.978 20.448 171.106 20.016 171.298 19.632C171.49 19.056 171.666 18.416 171.826 17.712C172.018 17.008 172.114 16.352 172.114 15.744V14.928C172.306 14.16 172.498 13.344 172.69 12.48C172.882 11.584 173.074 10.736 173.266 9.936C173.266 9.712 173.282 9.456 173.314 9.168C173.346 8.848 173.474 8.576 173.698 8.352V7.2C173.698 6.816 173.714 6.368 173.746 5.856C173.778 5.312 173.874 4.848 174.034 4.464C174.194 4.464 174.306 4.4 174.37 4.272C174.402 4.208 174.418 4.144 174.418 4.08C174.226 3.504 174.29 2.96 174.61 2.448C174.962 1.936 175.426 1.584 176.002 1.392C176.194 1.168 176.354 1.056 176.482 1.056C176.642 1.056 176.722 1.168 176.722 1.392C177.17 1.392 177.506 1.408 177.73 1.44C177.954 1.472 178.146 1.584 178.306 1.776C178.53 1.776 178.674 1.856 178.738 2.016C178.802 2.144 178.93 2.32 179.122 2.544C179.122 3.12 179.17 3.632 179.266 4.08C179.394 4.528 179.458 5.04 179.458 5.616C179.458 5.776 179.474 6.032 179.506 6.384C179.538 6.736 179.666 7.008 179.89 7.2C180.082 7.392 180.194 7.6 180.226 7.824C180.258 8.048 180.274 8.368 180.274 8.784ZM174.85 16.08H174.418H174.85ZM183.394 30.912V30.528C183.202 30.528 183.026 30.48 182.866 30.384C182.706 30.256 182.626 30.304 182.626 30.528C182.818 30.72 182.946 30.768 183.01 30.672C183.074 30.576 183.202 30.528 183.394 30.528V30.912ZM171.298 28.56V28.224C171.298 28.384 171.282 28.48 171.25 28.512C171.218 28.544 171.122 28.56 170.962 28.56H171.298ZM172.114 27.84C172.018 27.84 171.938 27.824 171.874 27.792C171.746 27.728 171.682 27.584 171.682 27.36V27.84H171.298C171.298 28 171.362 28.048 171.49 27.984C171.554 27.952 171.618 27.904 171.682 27.84H172.114ZM179.122 26.208V25.824V26.208H178.738V26.64V26.208H179.122ZM172.882 24.288H172.498H172.882ZM180.994 23.952C180.994 24.112 180.978 24.208 180.946 24.24C180.914 24.272 180.818 24.288 180.658 24.288C180.658 24.128 180.578 24.096 180.418 24.192C180.258 24.256 180.082 24.288 179.89 24.288V24.672V24.288C180.082 24.288 180.21 24.352 180.274 24.48C180.338 24.608 180.466 24.672 180.658 24.672V25.056V24.672V24.288C180.69 24.288 180.738 24.272 180.802 24.24C180.93 24.176 180.994 24.08 180.994 23.952ZM179.89 23.52V23.136V23.52V23.136V23.52ZM178.306 12.672H177.97V13.392C177.97 13.232 178.018 13.12 178.114 13.056C178.178 13.024 178.242 13.008 178.306 13.008V12.672ZM174.418 14.208H174.034V13.824C174.034 14.016 174.05 14.128 174.082 14.16C174.114 14.192 174.226 14.208 174.418 14.208ZM178.306 9.504H177.97C177.97 9.312 177.954 9.216 177.922 9.216C177.89 9.216 177.778 9.312 177.586 9.504H178.306ZM174.034 12.24V12.672V12.24ZM179.122 12.24V12.672C178.93 12.672 178.882 12.752 178.978 12.912C179.074 13.04 179.122 13.2 179.122 13.392V13.008V12.672V12.24ZM180.274 18.48V18.096V17.712V18.096V18.48ZM175.57 10.272H176.002V9.936V10.272H175.57ZM174.418 16.944H174.034H174.418ZM178.738 14.208H178.306H178.738ZM177.97 11.856H177.586C177.33 11.856 177.186 11.824 177.154 11.76C177.122 11.664 177.106 11.696 177.106 11.856H177.586H177.97ZM177.586 10.272H177.106H177.586ZM174.85 9.12H175.234L174.85 8.784V9.12ZM176.002 7.968H176.386H176.002ZM170.962 32.832C170.898 32.832 170.85 32.848 170.818 32.88C170.722 32.976 170.77 33.104 170.962 33.264V32.832ZM182.242 32.064V32.448V32.064ZM180.274 26.976V27.36V26.976ZM177.97 24.672H177.586H177.97ZM179.458 23.52C179.298 23.744 179.202 23.824 179.17 23.76C179.138 23.664 179.122 23.728 179.122 23.952V23.52H179.458ZM172.498 23.52H172.882C172.722 23.36 172.61 23.312 172.546 23.376C172.514 23.408 172.498 23.456 172.498 23.52ZM179.89 19.248V19.632V19.248ZM173.698 22.32V21.936V21.552H173.266C173.266 21.744 173.282 21.856 173.314 21.888C173.346 21.92 173.474 21.936 173.698 21.936C173.474 21.936 173.362 22 173.362 22.128C173.362 22.256 173.474 22.32 173.698 22.32C173.698 22.512 173.714 22.56 173.746 22.464C173.778 22.368 173.874 22.32 174.034 22.32H173.698ZM176.722 9.504H177.106H176.722ZM172.114 31.68H171.682H172.114ZM178.738 11.856C178.738 11.92 178.754 11.968 178.786 12C178.85 12.064 178.962 12.016 179.122 11.856H178.738ZM179.89 20.784V21.168V20.784H180.274H179.89ZM177.106 8.352V8.784V8.352ZM174.418 11.52C174.258 11.52 174.146 11.584 174.082 11.712C174.05 11.776 174.034 11.824 174.034 11.856V11.52H174.418ZM175.57 8.352V8.784V8.352ZM180.994 22.32V21.936C180.93 21.936 180.882 21.952 180.85 21.984C180.786 22.048 180.834 22.16 180.994 22.32ZM170.53 33.984V33.648V33.984ZM171.682 33.648H171.298H171.682ZM180.658 29.376H180.994C180.994 29.152 180.978 29.104 180.946 29.232C180.914 29.328 180.818 29.376 180.658 29.376ZM179.122 18.096V18.48C179.282 18.48 179.378 18.464 179.41 18.432C179.442 18.4 179.458 18.288 179.458 18.096H179.122ZM179.122 13.824H179.458V14.208C179.458 14.144 179.442 14.08 179.41 14.016C179.346 13.888 179.25 13.824 179.122 13.824ZM180.274 18.816C180.402 18.816 180.514 18.896 180.61 19.056C180.642 19.12 180.658 19.184 180.658 19.248C180.658 19.184 180.642 19.12 180.61 19.056C180.514 18.896 180.402 18.816 180.274 18.816ZM179.89 15.36H179.458H179.89ZM177.586 25.488V25.824V25.488ZM183.01 32.832V33.264H183.394L183.01 32.832ZM171.298 29.376H171.682H171.298ZM182.242 27.84H182.626H182.242V27.36V26.976C182.05 27.104 182.002 27.216 182.098 27.312C182.13 27.344 182.178 27.36 182.242 27.36V27.84ZM179.458 19.968H179.89V20.4V19.968H179.458ZM176.002 9.12C176.002 9.184 176.018 9.248 176.05 9.312C176.114 9.44 176.226 9.504 176.386 9.504V9.12H176.002ZM173.266 20.4H173.698V19.968L173.266 20.4ZM173.698 14.544C173.474 14.544 173.346 14.56 173.314 14.592C173.282 14.624 173.266 14.736 173.266 14.928H173.698V14.544ZM182.626 29.712C182.626 29.648 182.61 29.6 182.578 29.568C182.546 29.536 182.434 29.584 182.242 29.712H182.626ZM177.106 4.08V3.696V4.08H176.722H177.106ZM177.106 4.8H177.586H177.106C177.106 4.64 177.09 4.544 177.058 4.512C177.026 4.48 176.914 4.464 176.722 4.464V4.8C176.85 4.992 176.962 5.04 177.058 4.944C177.09 4.912 177.106 4.864 177.106 4.8ZM178.738 14.928H179.122C179.122 14.736 179.106 14.624 179.074 14.592C179.042 14.56 178.93 14.544 178.738 14.544V14.928ZM177.97 5.616V6.432C178.098 6.208 178.194 6.016 178.258 5.856C178.29 5.76 178.306 5.68 178.306 5.616H177.97ZM176.722 26.976C176.722 26.816 176.706 26.656 176.674 26.496C176.642 26.304 176.546 26.208 176.386 26.208C176.386 26.432 176.434 26.56 176.53 26.592C176.594 26.624 176.658 26.64 176.722 26.64V26.976ZM175.57 3.696V4.464C175.762 4.464 175.89 4.4 175.954 4.272C175.986 4.208 176.002 4.144 176.002 4.08C176.002 3.952 175.922 3.84 175.762 3.744C175.698 3.712 175.634 3.696 175.57 3.696ZM178.306 7.968C178.146 7.968 178.05 8.048 178.018 8.208C177.986 8.368 177.97 8.56 177.97 8.784C178.13 8.784 178.226 8.704 178.258 8.544C178.29 8.352 178.306 8.16 178.306 7.968ZM175.57 26.208C175.41 26.4 175.442 26.528 175.666 26.592C175.762 26.624 175.874 26.64 176.002 26.64C176.002 26.416 175.986 26.24 175.954 26.112C175.922 25.984 175.794 26.016 175.57 26.208ZM173.698 28.224C173.858 28.224 173.954 28.208 173.986 28.176C174.018 28.144 174.034 28.032 174.034 27.84H173.698V28.224C173.698 28.032 173.682 27.84 173.65 27.648C173.618 27.456 173.49 27.36 173.266 27.36C173.074 27.36 173.026 27.44 173.122 27.6C173.154 27.696 173.202 27.776 173.266 27.84H172.882H172.498V28.224C172.69 28.224 172.802 28.208 172.834 28.176C172.866 28.144 172.882 28.032 172.882 27.84C172.882 28 172.946 28.112 173.074 28.176C173.138 28.208 173.202 28.224 173.266 28.224V28.56C173.458 28.56 173.586 28.512 173.65 28.416C173.682 28.352 173.698 28.288 173.698 28.224ZM177.97 17.712V17.28C177.778 16.672 177.586 16.016 177.394 15.312C177.202 14.608 177.106 13.968 177.106 13.392H176.722H176.386V16.08C176.194 16.912 175.986 17.792 175.762 18.72C175.57 19.648 175.394 20.592 175.234 21.552C175.234 21.936 175.266 22.24 175.33 22.464C175.394 22.688 175.618 22.912 176.002 23.136C176.194 23.552 176.434 23.776 176.722 23.808C177.042 23.84 177.33 23.744 177.586 23.52C177.938 23.328 178.21 23.12 178.402 22.896C178.626 22.64 178.738 22.32 178.738 21.936C178.514 21.552 178.386 21.184 178.354 20.832C178.322 20.48 178.306 20.192 178.306 19.968C178.146 19.616 178.05 19.248 178.018 18.864C177.986 18.48 177.97 18.096 177.97 17.712ZM175.57 25.056C175.41 24.864 175.298 24.752 175.234 24.72C175.17 24.688 175.042 24.672 174.85 24.672H174.418H174.85C175.042 24.864 175.17 24.976 175.234 25.008C175.298 25.04 175.41 25.056 175.57 25.056ZM177.106 7.584V6.816H176.722C176.914 6.816 177.026 6.896 177.058 7.056C177.09 7.216 177.106 7.392 177.106 7.584ZM174.034 13.008C173.906 13.008 173.81 13.072 173.746 13.2C173.714 13.264 173.698 13.328 173.698 13.392C173.698 13.456 173.714 13.504 173.746 13.536C173.778 13.568 173.81 13.584 173.842 13.584C173.874 13.584 173.938 13.52 174.034 13.392V13.008ZM178.306 11.04H177.97H178.306ZM172.498 20.784V21.168H172.882C172.882 20.976 172.866 20.864 172.834 20.832C172.802 20.8 172.69 20.784 172.498 20.784ZM174.034 15.36V14.928L173.698 15.36H174.034ZM180.994 23.52V23.136V23.52ZM174.418 13.008V13.392C174.61 13.392 174.738 13.328 174.802 13.2C174.834 13.136 174.85 13.072 174.85 13.008H174.418ZM173.698 24.288C173.698 24.192 173.618 24.096 173.458 24C173.394 23.968 173.33 23.952 173.266 23.952V24.288H173.698ZM173.266 16.944C173.106 16.944 172.994 17.008 172.93 17.136C172.898 17.2 172.882 17.248 172.882 17.28H173.266V16.944ZM179.122 10.656V11.04V10.656ZM174.034 25.488V25.056C173.874 25.056 173.778 25.072 173.746 25.104C173.714 25.136 173.698 25.264 173.698 25.488H174.034ZM172.114 24.288V23.952V24.288ZM179.122 11.04V11.52H179.458C179.458 11.456 179.442 11.376 179.41 11.28C179.314 11.12 179.218 11.04 179.122 11.04ZM172.114 21.936V22.32V21.936ZM180.994 27.36V27.84H181.426C181.426 27.776 181.41 27.696 181.378 27.6C181.282 27.44 181.154 27.36 180.994 27.36ZM176.002 5.616C176.002 5.552 175.986 5.488 175.954 5.424C175.89 5.296 175.762 5.232 175.57 5.232V5.616H176.002ZM179.89 23.952H179.458C179.682 24.112 179.81 24.192 179.842 24.192C179.874 24.192 179.89 24.112 179.89 23.952ZM176.386 3.696C176.546 3.696 176.642 3.68 176.674 3.648C176.706 3.616 176.722 3.488 176.722 3.264H176.386V3.696ZM179.458 17.28C179.298 17.28 179.202 17.232 179.17 17.136C179.138 17.072 179.122 17.008 179.122 16.944V17.28H179.458ZM180.658 28.56H180.274H180.658ZM179.122 15.744V16.08V15.744ZM172.498 32.832C172.306 32.64 172.194 32.544 172.162 32.544C172.13 32.544 172.114 32.64 172.114 32.832H172.498ZM182.626 31.248H182.242H182.626ZM174.034 19.968V19.632V19.968ZM180.994 22.704H180.658H180.994ZM181.81 24.672V24.288V24.672ZM171.682 25.056V24.672V25.056ZM174.418 26.208H174.034H174.418ZM179.122 26.208V26.64V26.208ZM181.81 28.224V27.84V28.224ZM181.426 29.376H181.81H181.426ZM175.57 5.616V5.952V5.616Z" fill="#8E3200"/>
</svg>
