<svg width="105" height="105" viewBox="0 0 105 105" fill="none" xmlns="http://www.w3.org/2000/svg">
<path d="M91.5664 38.4936L55.3939 75.1709C54.9632 75.6063 54.4959 75.9163 53.9917 76.1009C53.4875 76.2855 52.9468 76.3779 52.3694 76.3782C51.7921 76.3813 51.2504 76.2948 50.7443 76.1186C50.2381 75.9423 49.7674 75.6375 49.332 75.2039L12.6541 38.9232C11.6383 37.9184 11.1263 36.6583 11.1181 35.1428C11.1098 33.6274 11.644 32.3254 12.7206 31.2371C13.7971 30.1487 15.0571 29.6006 16.5004 29.5928C17.9437 29.5849 19.2095 30.1193 20.2979 31.1958L52.2958 62.8473L83.9472 30.8493C84.952 29.8335 86.1948 29.3216 87.6757 29.3135C89.1565 29.3055 90.4396 29.8397 91.5251 30.9163C92.6135 31.9929 93.1616 33.2529 93.1694 34.6962C93.1773 36.1395 92.6429 37.4053 91.5664 38.4936Z" fill="#222222"/>
</svg>
